<?xml version="1.0" encoding="UTF-8" standalone="no"?>
<!-- Created with Inkscape (http://www.inkscape.org/) -->

<svg
   xmlns:dc="http://purl.org/dc/elements/1.1/"
   xmlns:cc="http://creativecommons.org/ns#"
   xmlns:rdf="http://www.w3.org/1999/02/22-rdf-syntax-ns#"
   xmlns:svg="http://www.w3.org/2000/svg"
   xmlns="http://www.w3.org/2000/svg"
   xmlns:sodipodi="http://sodipodi.sourceforge.net/DTD/sodipodi-0.dtd"
   xmlns:inkscape="http://www.inkscape.org/namespaces/inkscape"
   width="744.09448819"
   height="1052.3622047"
   id="svg3089"
   version="1.1"
   inkscape:version="0.48.4 r9939"
   sodipodi:docname="BOTTLE METHYLENE BLUE (copy).svg">
  <defs
     id="defs3091">
    <inkscape:perspective
       sodipodi:type="inkscape:persp3d"
       inkscape:vp_x="0 : 526.18109 : 1"
       inkscape:vp_y="0 : 1000 : 0"
       inkscape:vp_z="744.09448 : 526.18109 : 1"
       inkscape:persp3d-origin="372.04724 : 350.78739 : 1"
       id="perspective3897" />
  </defs>
  <sodipodi:namedview
     id="base"
     pagecolor="#ffffff"
     bordercolor="#666666"
     borderopacity="1.0"
     inkscape:pageopacity="0.0"
     inkscape:pageshadow="2"
     inkscape:zoom="1"
     inkscape:cx="347.6874"
     inkscape:cy="698.33398"
     inkscape:document-units="px"
     inkscape:current-layer="layer1"
     showgrid="false"
     inkscape:window-width="1366"
     inkscape:window-height="716"
     inkscape:window-x="0"
     inkscape:window-y="0"
     inkscape:window-maximized="1" />
  <metadata
     id="metadata3094">
    <rdf:RDF>
      <cc:Work
         rdf:about="">
        <dc:format>image/svg+xml</dc:format>
        <dc:type
           rdf:resource="http://purl.org/dc/dcmitype/StillImage" />
        <dc:title></dc:title>
      </cc:Work>
    </rdf:RDF>
  </metadata>
  <g
     inkscape:label="Layer 1"
     inkscape:groupmode="layer"
     id="layer1">
    <rect
       style="fill:#ffffff;stroke:#834b4b;stroke-width:1.05389953;stroke-opacity:1"
       id="rect3119"
       width="83.788765"
       height="128.66441"
       x="357.62094"
       y="193.80009"
       rx="2.0436285"
       ry="128.66441" />
    <path
       style="fill:none;stroke:#000000;stroke-width:1.42539144px;stroke-linecap:butt;stroke-linejoin:miter;stroke-opacity:1"
       d="m 332.03293,124.15802 48.0768,122.89989"
       id="path3121"
       inkscape:connector-curvature="0" />
    <path
       style="fill:none;stroke:#000000;stroke-width:1.12803066px;stroke-linecap:butt;stroke-linejoin:miter;stroke-opacity:1"
       d="m 333.73259,124.92296 129.3607,-1.65566"
       id="path3125"
       inkscape:connector-curvature="0" />
    <path
       style="fill:none;stroke:#000000;stroke-width:1.48504686px;stroke-linecap:butt;stroke-linejoin:miter;stroke-opacity:1"
       d="M 462.91242,123.26436 424.00151,246.523"
       id="path3129"
       inkscape:connector-curvature="0" />
    <path
       style="fill:none;stroke:#000000;stroke-width:0.90472049px;stroke-linecap:butt;stroke-linejoin:miter;stroke-opacity:1"
       d="m 380.52733,247.0657 45.04707,-0.85289"
       id="path3141"
       inkscape:connector-curvature="0" />
    <path
       style="fill:none;stroke:#000000;stroke-width:1px;stroke-linecap:butt;stroke-linejoin:miter;stroke-opacity:1"
       d="m 440,196.6479 52.14286,-5"
       id="path3929"
       inkscape:connector-curvature="0" />
    <path
       style="fill:none;stroke:#000000;stroke-width:1px;stroke-linecap:butt;stroke-linejoin:miter;stroke-opacity:1"
       d="m 447.14286,173.07647 45,17.85714"
       id="path3931"
       inkscape:connector-curvature="0" />
    <rect
       style="fill:#ffffff;stroke:#834b4b;stroke-width:1.06921148;stroke-opacity:1"
       id="rect3937"
       width="294.21655"
       height="119.93044"
       x="256.03461"
       y="539.39679"
       rx="0"
       ry="46.55191" />
    <text
       xml:space="preserve"
       style="font-size:54.65183640000000054px;font-style:normal;font-weight:normal;line-height:125%;letter-spacing:0px;word-spacing:0px;fill:#280b0b;fill-opacity:1;stroke:none;font-family:Sans"
       x="306.63452"
       y="512.12396"
       id="text4001"
       sodipodi:linespacing="125%"
       transform="scale(0.86095988,1.1614943)"><tspan
         sodipodi:role="line"
         x="306.63452"
         y="512.12396"
         id="tspan4007"> GLYCERINE</tspan></text>
    <path
       style="fill:#e6e6e6;stroke:#834b4b;stroke-width:0.71116346;stroke-opacity:1"
       d="m 327.45869,821.29452 c -43.89563,-7.64849 -80.28964,-39.21648 -94.69608,-82.13896 -3.48274,-10.37644 -5.29398,-19.97024 -6.16171,-32.6374 -0.79516,-11.60767 0.40782,-286.57054 0.11966,-285.45712 -12.14543,46.92848 328.90494,15.59929 344.89964,-2.89652 0.24139,-0.27913 2.96694,66.37749 2.96694,146.92492 0,120.44089 -0.17128,147.53269 -0.96446,152.54696 -7.76214,49.07087 -41.25728,87.52369 -87.87487,100.8814 -13.38722,3.83595 -13.13455,3.82487 -85.66649,3.75914 -51.38788,-0.0466 -68.58693,-0.27923 -72.62263,-0.98242 z"
       id="path4063"
       inkscape:connector-curvature="0"
       sodipodi:nodetypes="ssssssssss" />
    <path
       style="fill:#0000ff;stroke:#834b4b;stroke-width:0.25;stroke-opacity:1"
       d=""
       id="path4089"
       inkscape:connector-curvature="0" />
    <path
       style="fill:#0000ff;stroke:#834b4b;stroke-width:0.08838835;stroke-opacity:1"
       d=""
       id="path4099"
       inkscape:connector-curvature="0" />
    <path
       style="fill:#0000ff;stroke:#834b4b;stroke-width:0.02209709;stroke-opacity:1"
       d="m 556.42941,430.86291 c 0.007,-0.007 0.0264,-0.008 0.0424,-0.002 0.0176,0.007 0.0124,0.0123 -0.0134,0.0134 -0.0233,9.6e-4 -0.0363,-0.004 -0.029,-0.0116 z"
       id="path4115"
       inkscape:connector-curvature="0" />
    <path
       style="fill:#0000ff;stroke:#834b4b;stroke-width:0.02209709;stroke-opacity:1"
       d=""
       id="path4117"
       inkscape:connector-curvature="0" />
    <path
       style="fill:#0000ff;stroke:#834b4b;stroke-width:0.02209709;stroke-opacity:1"
       d="m 556.25217,430.79414 c 0.0334,-0.005 0.0881,-0.005 0.12153,0 0.0334,0.005 0.006,0.009 -0.0608,0.009 -0.0669,0 -0.0942,-0.004 -0.0608,-0.009 z"
       id="path4119"
       inkscape:connector-curvature="0" />
    <path
       style="fill:#0000ff;stroke:#834b4b;stroke-width:0.02209709;stroke-opacity:1"
       d="m 555.90966,430.81743 c 0.0152,-0.006 0.0401,-0.006 0.0553,0 0.0152,0.006 0.003,0.0111 -0.0276,0.0111 -0.0304,0 -0.0428,-0.005 -0.0276,-0.0111 z"
       id="path4121"
       inkscape:connector-curvature="0" />
    <path
       style="fill:#0000ff;stroke:#834b4b;stroke-width:0.02209709;stroke-opacity:1"
       d="m 555.6445,430.81743 c 0.0152,-0.006 0.04,-0.006 0.0552,0 0.0152,0.006 0.003,0.0111 -0.0276,0.0111 -0.0304,0 -0.0428,-0.005 -0.0276,-0.0111 z"
       id="path4123"
       inkscape:connector-curvature="0" />
    <path
       style="fill:#0000ff;stroke:#834b4b;stroke-width:0.02209709;stroke-opacity:1"
       d="m 555.46772,430.81743 c 0.0152,-0.006 0.0401,-0.006 0.0553,0 0.0152,0.006 0.003,0.0111 -0.0276,0.0111 -0.0304,0 -0.0428,-0.005 -0.0276,-0.0111 z"
       id="path4125"
       inkscape:connector-curvature="0" />
    <path
       style="fill:#0000ff;stroke:#834b4b;stroke-width:0.02209709;stroke-opacity:1"
       d="m 544.85053,429.4045 c 0.007,-0.007 0.0264,-0.008 0.0424,-0.002 0.0176,0.007 0.0124,0.0123 -0.0133,0.0134 -0.0233,9.6e-4 -0.0363,-0.004 -0.029,-0.0116 z"
       id="path4131"
       inkscape:connector-curvature="0" />
    <path
       style="fill:#b3b3b3;stroke:#834b4b;stroke-width:0.3000001;stroke-miterlimit:4;stroke-opacity:1;stroke-dasharray:none"
       d="m 369.90089,457.79723 c -36.34153,-0.99703 -77.31187,-5.35205 -102.33755,-10.87818 -24.64328,-5.44169 -41.66245,-14.7092 -41.66245,-22.68659 0,-2.93708 11.62042,-13.91661 19.20059,-18.14163 20.48073,-11.41551 51.83365,-19.35655 95.79941,-24.26397 22.13851,-2.47108 88.57606,-3.04306 112,-0.0151 89.54216,11.5749 105.00485,29.42466 106.69387,30.61103 l 10.80613,7.59028 -5.10424,7.26922 c -14.07389,20.04338 -68.41,27.41374 -143.39576,30.19524 -14.575,0.54065 -30.1,0.8924 -34.5,0.78168 -4.4,-0.11072 -12.275,-0.3186 -17.5,-0.46194 z"
       id="path4181"
       inkscape:connector-curvature="0"
       sodipodi:nodetypes="csssssscssscc" />
    <path
       style="fill:#ffffff;stroke:#834b4b;stroke-width:1;stroke-opacity:1"
       d="m 566.40089,415.89782 c -21.99311,-18.55064 -65.81571,-30.79077 -124.82955,-34.86623 -22.13926,-1.52893 -70.57241,-1.29974 -90.67045,0.42905 -29.82232,2.56525 -52.46009,6.33896 -72.78106,12.13259 -20.47112,5.83644 -31.92315,11.08178 -42.21894,19.33741 -3.48553,2.79486 -8.09363,8.08228 -8.3091,7.09966 -0.44442,-2.02672 8.20345,-22.90389 11.8905,-30.27987 8.27646,-16.55709 23.62341,-34.53642 38.4186,-45.00831 13.31162,-9.42183 32.62072,-17.59342 49,-20.73675 4.27733,-0.82085 26.09787,-1.05821 76,-0.8267 l 70,0.32475 9.5,2.66958 c 35.06347,9.85315 62.18528,31.92994 78.1448,63.60881 3.80784,7.5584 10.30684,26.38303 9.69979,28.09588 -0.18952,0.53476 -1.91959,-0.35618 -3.84459,-1.97987 z"
       id="path4183"
       inkscape:connector-curvature="0"
       sodipodi:nodetypes="sssssssssscssss" />
    <text
       xml:space="preserve"
       style="font-size:44.95901489px;font-style:normal;font-weight:normal;line-height:125%;letter-spacing:0px;word-spacing:0px;fill:#000000;fill-opacity:1;stroke:none;font-family:Sans"
       x="926.55701"
       y="620.91595"
       id="text4185"
       sodipodi:linespacing="125%"
       transform="scale(1.1688433,0.85554668)"><tspan
         sodipodi:role="line"
         x="926.55701"
         y="620.91595"
         id="tspan4191"
         style="fill:#000000" /></text>
    <text
       xml:space="preserve"
       style="font-size:40px;font-style:normal;font-weight:normal;line-height:125%;letter-spacing:0px;word-spacing:0px;fill:#000000;fill-opacity:1;stroke:none;font-family:Sans"
       x="510"
       y="353.36218"
       id="text4197"
       sodipodi:linespacing="125%"><tspan
         sodipodi:role="line"
         id="tspan4199"
         x="510"
         y="353.36218" /></text>
    <rect
       style="fill:#f9f9f9;stroke:#834b4b;stroke-width:0.9989869;stroke-opacity:1"
       id="rect3014"
       width="310.00113"
       height="135.72406"
       x="247.99945"
       y="-630.22418"
       ry="5.7757397"
       transform="scale(1,-1)" />
    <text
       xml:space="preserve"
       style="font-size:40px;font-style:normal;font-weight:normal;line-height:125%;letter-spacing:0px;word-spacing:0px;fill:#000000;fill-opacity:1;stroke:none;font-family:Sans"
       x="302"
       y="550.36218"
       id="text3021"
       sodipodi:linespacing="125%"><tspan
         sodipodi:role="line"
         id="tspan3023"
         x="302"
         y="550.36218">    70%</tspan><tspan
         sodipodi:role="line"
         x="302"
         y="600.36218"
         id="tspan3025">ALCOHOL</tspan></text>
    <path
       style="fill:#e6e6e6;stroke:#060000;stroke-width:0.1;stroke-miterlimit:4;stroke-opacity:1;stroke-dasharray:none"
       d="m 559.64313,410.05065 c -17.1873,-11.67908 -48.55662,-20.58529 -87.3904,-25.70434 -30.43294,-4.01166 -110.38513,-5.49565 -140,-1.8521 -40.28109,4.95583 -87.27471,22.20793 -93.98717,27.16959 -17.24524,12.74721 -12.25124,18.75147 -2.32322,-10.03618 6.57323,-19.05999 31.66938,-49.55037 53.43149,-61.29372 25.88587,-13.96863 26.55323,-14.35046 107.91613,-15.19833 l 72.53723,1.23368 17.71758,4.73444 c 37.70745,10.07608 62.2956,34.94615 76.33782,69.50426 2.79714,6.88384 5.76106,16.84074 5.36424,17.23756 -0.39682,0.39681 -5.54348,-3.03587 -9.6037,-5.79486 z"
       id="path3835"
       inkscape:connector-curvature="0"
       sodipodi:nodetypes="ssssssscssss" />
    <path
       style="fill:#e6e6e6;stroke:#060000;stroke-width:0.1;stroke-miterlimit:4;stroke-opacity:1;stroke-dasharray:none"
       d="m 360.46106,320.58961 c -1.27505,4.18714 -2.58476,-24.49187 -2.06897,-59.25 0.29416,-19.82309 0.15022,-41.1875 1.5144,-63.66667 l 10.29124,26.5 9.54125,23.25 22.84471,-0.375 22.09471,-0.125 6.39796,-20.25 8.64795,-26.5 0.80472,55.625 c 0.40297,27.85465 -0.7993,57.15855 -0.80995,57.25 l -0.98968,8.5 -39.15498,-0.25 c -20.57232,-0.13135 -39.11299,0.45376 -39.11332,-0.58333 z"
       id="path3837"
       inkscape:connector-curvature="0"
       sodipodi:nodetypes="cscccccccsscssc" />
    <path
       style="fill:#e6e6e6;stroke:#060000;stroke-width:2;stroke-opacity:1"
       d=""
       id="path3839"
       inkscape:connector-curvature="0" />
    <path
       style="fill:#e6e6e6;stroke:#060000;stroke-width:0.1;stroke-miterlimit:4;stroke-opacity:1;stroke-dasharray:none"
       d="m 348.03791,159.95394 c -6.88261,-17.72046 -14.00516,-27.32305 -13.66728,-33.1192 0.0968,-1.66087 127.5032,-2.59613 127.49699,-1.50167 -0.004,0.62302 -6.87485,21.08045 -12.37132,38.48559 -5.49646,17.40515 -9.01077,26.45034 -9.74357,27.5 -1.17244,1.67941 -15.40924,1.9907 -37.10049,1.60428 l -42.1005,-0.75 z"
       id="path3841"
       inkscape:connector-curvature="0"
       sodipodi:nodetypes="sscssscs" />
    <path
       style="fill:#e6e6e6;stroke:#060000;stroke-width:2;stroke-opacity:1"
       d=""
       id="path3843"
       inkscape:connector-curvature="0" />
    <path
       style="fill:#e6e6e6;stroke:#060000;stroke-width:0.1;stroke-miterlimit:4;stroke-opacity:1;stroke-dasharray:none"
       d="m 380.26044,244.85492 c -0.96076,-2.475 -6.71071,-15.85738 -11.14693,-28.0052 l -8.64121,-22.41422 38.03909,0.35356 c 33.1691,0.30829 42.05671,-1.82112 41.03857,0.83209 -0.64143,1.67156 -5.31516,17.34803 -9.29883,28.55664 l -6.65772,21.57288 -15.9292,0.0344 c -24.29115,0.0524 -25.45072,4.10111 -27.40377,-0.93011 z"
       id="path3845"
       inkscape:connector-curvature="0"
       sodipodi:nodetypes="sscssscss" />
    <path
       style="fill:#e6e6e6;stroke:#060000;stroke-width:2;stroke-opacity:1"
       d=""
       id="path3847"
       inkscape:connector-curvature="0" />
    <path
       style="fill:#ececec;stroke:#060000;stroke-width:0.35355338;stroke-opacity:1"
       d=""
       id="path3859"
       inkscape:connector-curvature="0" />
    <path
       style="fill:#ececec;stroke:#060000;stroke-width:0.35355338;stroke-opacity:1"
       d=""
       id="path3861"
       inkscape:connector-curvature="0" />
    <path
       style="fill:#ececec;stroke:#060000;stroke-width:0.35355338;stroke-opacity:1"
       d=""
       id="path3863"
       inkscape:connector-curvature="0" />
    <path
       style="fill:#ececec;stroke:#060000;stroke-width:0.35355337999999997;stroke-opacity:1"
       d=""
       id="path3865"
       inkscape:connector-curvature="0" />
    <path
       style="fill:#ffffff;stroke:#060000;stroke-width:0.35355337999999997;stroke-opacity:1"
       d=""
       id="path3871"
       inkscape:connector-curvature="0" />
    <path
       style="fill:#ffffff;stroke:#060000;stroke-width:0.35355338;stroke-opacity:1"
       d=""
       id="path3875"
       inkscape:connector-curvature="0" />
    <path
       style="fill:#cccccc;stroke:#060000;stroke-width:0.03535534000000000;stroke-miterlimit:4;stroke-opacity:1;stroke-dasharray:none"
       d="m 441.47629,194.28704 c 0.25265,-0.82643 1.78385,-5.68099 3.40266,-10.78791 2.74673,-8.66519 2.99236,-9.2699 3.67798,-9.05467 2.21103,0.69407 42.01461,16.71448 41.57011,16.73142 -0.29168,0.0111 -11.24519,1.05375 -24.34113,2.31698 -13.09594,1.26323 -24.02639,2.29678 -24.28989,2.29678 -0.39998,0 -0.40324,-0.2481 -0.0197,-1.5026 z"
       id="path3899"
       inkscape:connector-curvature="0" />
  </g>
</svg>
