<?xml version="1.0" encoding="UTF-8" standalone="no"?>
<!-- Created with Inkscape (http://www.inkscape.org/) -->

<svg
   xmlns:dc="http://purl.org/dc/elements/1.1/"
   xmlns:cc="http://creativecommons.org/ns#"
   xmlns:rdf="http://www.w3.org/1999/02/22-rdf-syntax-ns#"
   xmlns:svg="http://www.w3.org/2000/svg"
   xmlns="http://www.w3.org/2000/svg"
   xmlns:sodipodi="http://sodipodi.sourceforge.net/DTD/sodipodi-0.dtd"
   xmlns:inkscape="http://www.inkscape.org/namespaces/inkscape"
   width="744.09448819"
   height="1052.3622047"
   id="svg3089"
   version="1.1"
   inkscape:version="0.48.4 r9939"
   sodipodi:docname="BOTTLE METHYLENE BLUE.svg">
  <defs
     id="defs3091" />
  <sodipodi:namedview
     id="base"
     pagecolor="#ffffff"
     bordercolor="#666666"
     borderopacity="1.0"
     inkscape:pageopacity="0.0"
     inkscape:pageshadow="2"
     inkscape:zoom="0.5"
     inkscape:cx="285.90552"
     inkscape:cy="646.58924"
     inkscape:document-units="px"
     inkscape:current-layer="layer1"
     showgrid="false"
     inkscape:window-width="1303"
     inkscape:window-height="744"
     inkscape:window-x="63"
     inkscape:window-y="24"
     inkscape:window-maximized="1" />
  <metadata
     id="metadata3094">
    <rdf:RDF>
      <cc:Work
         rdf:about="">
        <dc:format>image/svg+xml</dc:format>
        <dc:type
           rdf:resource="http://purl.org/dc/dcmitype/StillImage" />
        <dc:title></dc:title>
      </cc:Work>
    </rdf:RDF>
  </metadata>
  <g
     inkscape:label="Layer 1"
     inkscape:groupmode="layer"
     id="layer1">
    <rect
       style="fill:#ffffff;stroke:#834b4b;stroke-width:1.05389953;stroke-opacity:1"
       id="rect3119"
       width="83.788765"
       height="128.66441"
       x="357.62094"
       y="193.80009"
       rx="2.0436285"
       ry="128.66441" />
    <path
       style="fill:none;stroke:#000000;stroke-width:1.42539144px;stroke-linecap:butt;stroke-linejoin:miter;stroke-opacity:1"
       d="m 332.03293,124.15802 48.0768,122.89989"
       id="path3121"
       inkscape:connector-curvature="0" />
    <path
       style="fill:none;stroke:#000000;stroke-width:1.12803066px;stroke-linecap:butt;stroke-linejoin:miter;stroke-opacity:1"
       d="m 333.73259,124.92296 129.3607,-1.65566"
       id="path3125"
       inkscape:connector-curvature="0" />
    <path
       style="fill:none;stroke:#000000;stroke-width:1.48504686px;stroke-linecap:butt;stroke-linejoin:miter;stroke-opacity:1"
       d="M 462.91242,123.26436 424.00151,246.523"
       id="path3129"
       inkscape:connector-curvature="0" />
    <path
       style="fill:none;stroke:#000000;stroke-width:0.90472049px;stroke-linecap:butt;stroke-linejoin:miter;stroke-opacity:1"
       d="m 380.52733,247.0657 45.04707,-0.85289"
       id="path3141"
       inkscape:connector-curvature="0" />
    <path
       style="fill:none;stroke:#000000;stroke-width:1px;stroke-linecap:butt;stroke-linejoin:miter;stroke-opacity:1"
       d="m 440,196.6479 52.14286,-5"
       id="path3929"
       inkscape:connector-curvature="0" />
    <path
       style="fill:none;stroke:#000000;stroke-width:1px;stroke-linecap:butt;stroke-linejoin:miter;stroke-opacity:1"
       d="m 447.14286,173.07647 45,17.85714"
       id="path3931"
       inkscape:connector-curvature="0" />
    <rect
       style="fill:#ffffff;stroke:#834b4b;stroke-width:1.06921148;stroke-opacity:1"
       id="rect3937"
       width="294.21655"
       height="119.93044"
       x="256.03461"
       y="539.39679"
       rx="0"
       ry="46.55191" />
    <text
       xml:space="preserve"
       style="font-size:54.65183640000000054px;font-style:normal;font-weight:normal;line-height:125%;letter-spacing:0px;word-spacing:0px;fill:#280b0b;fill-opacity:1;stroke:none;font-family:Sans"
       x="306.63452"
       y="512.12396"
       id="text4001"
       sodipodi:linespacing="125%"
       transform="scale(0.86095988,1.1614943)"><tspan
         sodipodi:role="line"
         x="306.63452"
         y="512.12396"
         id="tspan4007"> GLYCERINE</tspan></text>
    <path
       style="fill:#000080;stroke:#834b4b;stroke-width:0.71116346;stroke-opacity:1"
       d="m 327.45869,821.29452 c -43.89563,-7.64849 -80.28964,-39.21648 -94.69608,-82.13896 -3.48274,-10.37644 -5.29398,-19.97024 -6.16171,-32.6374 -0.79516,-11.60767 0.40782,-286.57054 0.11966,-285.45712 -12.14543,46.92848 331.40494,53.97561 347.39964,-2.89652 0.0999,-0.35525 0.46694,66.37749 0.46694,146.92492 0,120.44089 -0.17128,147.53269 -0.96446,152.54696 -7.76214,49.07087 -41.25728,87.52369 -87.87487,100.8814 -13.38722,3.83595 -13.13455,3.82487 -85.66649,3.75914 -51.38788,-0.0466 -68.58693,-0.27923 -72.62263,-0.98242 z"
       id="path4063"
       inkscape:connector-curvature="0"
       sodipodi:nodetypes="ssssssssss" />
    <path
       style="fill:#0000ff;stroke:#834b4b;stroke-width:0.70710677000000000;stroke-opacity:1"
       d="m 570.73444,422.62549 c -6.71926,-9.73651 -25.02613,-20.0049 -47.72971,-26.77179 -31.158,-9.28675 -67.49547,-13.99179 -113.84419,-14.74073 -40.62494,-0.65646 -74.95722,1.92599 -106.41957,8.00479 -38.75429,7.48768 -63.23482,18.43958 -74.09458,33.14783 l -2.08836,2.82843 0.49882,-3.53554 c 1.76303,-12.49613 8.66054,-30.73787 16.17582,-42.77996 19.59705,-31.4013 50.85071,-51.6996 87.66039,-56.93277 11.00798,-1.56499 127.11436,-1.52295 138.52403,0.0501 50.45875,6.95699 90.87751,43.96846 102.35229,93.72405 0.86118,3.73416 1.45792,7.52965 1.32608,8.43441 -0.21827,1.49798 -0.4293,1.37027 -2.36102,-1.42887 l 0,0 z"
       id="path4073"
       inkscape:connector-curvature="0" />
    <path
       style="fill:#ffffff;stroke:#834b4b;stroke-width:0.70710677000000000;stroke-opacity:1"
       d="m 567.19891,417.99612 c -18.8008,-19.00576 -65.69504,-32.40036 -127.27922,-36.35527 -70.72302,-4.54181 -140.05781,2.7407 -180.88457,18.99901 -11.4731,4.5689 -20.55632,10.22677 -26.97875,16.80485 -2.32031,2.37655 -3.91516,3.55865 -3.91516,2.90189 0,-2.61281 3.85542,-15.64515 6.70374,-22.6604 6.61786,-16.29941 14.35158,-27.94324 26.88325,-40.47522 10.23777,-10.23803 18.86114,-16.50902 31.11328,-22.62587 10.41911,-5.20172 20.33181,-8.60637 32.17336,-11.05036 l 8.13172,-1.67832 66.46804,0.0139 c 60.76919,0.0127 67.04398,0.12203 73.18555,1.27541 26.42669,4.96293 47.0558,15.68698 65.4698,34.0345 16.53058,16.47087 27.36862,36.04568 32.84697,59.32556 0.81036,3.44354 1.37401,6.31343 1.25256,6.37753 -0.12145,0.0641 -2.44821,-2.13513 -5.17057,-4.88718 l 0,0 z"
       id="path4077"
       inkscape:connector-curvature="0" />
    <path
       style="fill:#0000ff;stroke:#834b4b;stroke-width:0.25;stroke-opacity:1"
       d=""
       id="path4089"
       inkscape:connector-curvature="0" />
    <path
       style="fill:#0000ff;stroke:#834b4b;stroke-width:0.08838835;stroke-opacity:1"
       d=""
       id="path4099"
       inkscape:connector-curvature="0" />
    <path
       style="fill:#0000ff;stroke:#834b4b;stroke-width:0.02209709;stroke-opacity:1"
       d="m 556.42941,430.86291 c 0.007,-0.007 0.0264,-0.008 0.0424,-0.002 0.0176,0.007 0.0124,0.0123 -0.0134,0.0134 -0.0233,9.6e-4 -0.0363,-0.004 -0.029,-0.0116 z"
       id="path4115"
       inkscape:connector-curvature="0" />
    <path
       style="fill:#0000ff;stroke:#834b4b;stroke-width:0.02209709;stroke-opacity:1"
       d=""
       id="path4117"
       inkscape:connector-curvature="0" />
    <path
       style="fill:#0000ff;stroke:#834b4b;stroke-width:0.02209709;stroke-opacity:1"
       d="m 556.25217,430.79414 c 0.0334,-0.005 0.0881,-0.005 0.12153,0 0.0334,0.005 0.006,0.009 -0.0608,0.009 -0.0669,0 -0.0942,-0.004 -0.0608,-0.009 z"
       id="path4119"
       inkscape:connector-curvature="0" />
    <path
       style="fill:#0000ff;stroke:#834b4b;stroke-width:0.02209709;stroke-opacity:1"
       d="m 555.90966,430.81743 c 0.0152,-0.006 0.0401,-0.006 0.0553,0 0.0152,0.006 0.003,0.0111 -0.0276,0.0111 -0.0304,0 -0.0428,-0.005 -0.0276,-0.0111 z"
       id="path4121"
       inkscape:connector-curvature="0" />
    <path
       style="fill:#0000ff;stroke:#834b4b;stroke-width:0.02209709;stroke-opacity:1"
       d="m 555.6445,430.81743 c 0.0152,-0.006 0.04,-0.006 0.0552,0 0.0152,0.006 0.003,0.0111 -0.0276,0.0111 -0.0304,0 -0.0428,-0.005 -0.0276,-0.0111 z"
       id="path4123"
       inkscape:connector-curvature="0" />
    <path
       style="fill:#0000ff;stroke:#834b4b;stroke-width:0.02209709;stroke-opacity:1"
       d="m 555.46772,430.81743 c 0.0152,-0.006 0.0401,-0.006 0.0553,0 0.0152,0.006 0.003,0.0111 -0.0276,0.0111 -0.0304,0 -0.0428,-0.005 -0.0276,-0.0111 z"
       id="path4125"
       inkscape:connector-curvature="0" />
    <path
       style="fill:#0000ff;stroke:#834b4b;stroke-width:0.02209709;stroke-opacity:1"
       d="m 544.85053,429.4045 c 0.007,-0.007 0.0264,-0.008 0.0424,-0.002 0.0176,0.007 0.0124,0.0123 -0.0133,0.0134 -0.0233,9.6e-4 -0.0363,-0.004 -0.029,-0.0116 z"
       id="path4131"
       inkscape:connector-curvature="0" />
    <path
       style="fill:#0000ff;stroke:#834b4b;stroke-width:1;stroke-opacity:1"
       d="m 371.40089,460.29723 c -36.34153,-0.99703 -77.31187,-5.35205 -102.33755,-10.87818 -24.64328,-5.44169 -41.66245,-14.7092 -41.66245,-22.68659 0,-2.93708 11.62042,-13.91661 19.20059,-18.14163 20.48073,-11.41551 51.83365,-19.35655 95.79941,-24.26397 22.13851,-2.47108 88.51014,-2.48005 112,-0.0151 55.95858,5.87203 93.40955,17.47117 110.94387,34.36103 l 6.55613,6.31515 -5.10424,4.79435 c -17.85118,16.76743 -68.41,27.41374 -143.39576,30.19524 -14.575,0.54065 -30.1,0.8924 -34.5,0.78168 -4.4,-0.11072 -12.275,-0.3186 -17.5,-0.46194 z"
       id="path4181"
       inkscape:connector-curvature="0" />
    <path
       style="fill:#ffffff;stroke:#834b4b;stroke-width:1;stroke-opacity:1"
       d="m 566.40089,415.89782 c -21.99311,-18.55064 -65.81571,-30.79077 -124.82955,-34.86623 -22.13926,-1.52893 -70.57241,-1.29974 -90.67045,0.42905 -29.82232,2.56525 -52.46009,6.33896 -72.78106,12.13259 -20.47112,5.83644 -31.92315,11.08178 -42.21894,19.33741 -3.48553,2.79486 -5.09363,3.58228 -5.3091,2.59966 -0.44442,-2.02672 5.20345,-18.40389 8.8905,-25.77987 8.27646,-16.55709 23.62341,-34.53642 38.4186,-45.00831 13.31162,-9.42183 32.62072,-17.59342 49,-20.73675 4.27733,-0.82085 26.09787,-1.05821 76,-0.8267 l 70,0.32475 9.5,2.66958 c 35.06347,9.85315 62.18528,31.92994 78.1448,63.60881 3.80784,7.5584 10.30684,26.38303 9.69979,28.09588 -0.18952,0.53476 -1.91959,-0.35618 -3.84459,-1.97987 z"
       id="path4183"
       inkscape:connector-curvature="0" />
    <text
       xml:space="preserve"
       style="font-size:44.95901489px;font-style:normal;font-weight:normal;line-height:125%;letter-spacing:0px;word-spacing:0px;fill:#000000;fill-opacity:1;stroke:none;font-family:Sans"
       x="207.89787"
       y="644.29285"
       id="text4185"
       sodipodi:linespacing="125%"
       transform="scale(1.1688433,0.85554668)"><tspan
         sodipodi:role="line"
         id="tspan4187"
         x="207.89787"
         y="644.29285"
         style="fill:#ffffff">       1%</tspan><tspan
         sodipodi:role="line"
         x="207.89787"
         y="700.49164"
         id="tspan4189"
         style="fill:#ffffff">METHYLENE</tspan><tspan
         sodipodi:role="line"
         x="207.89787"
         y="756.69037"
         id="tspan4191"
         style="fill:#ffffff">      BLUE</tspan></text>
    <text
       xml:space="preserve"
       style="font-size:40px;font-style:normal;font-weight:normal;line-height:125%;letter-spacing:0px;word-spacing:0px;fill:#000000;fill-opacity:1;stroke:none;font-family:Sans"
       x="510"
       y="353.36218"
       id="text4197"
       sodipodi:linespacing="125%"><tspan
         sodipodi:role="line"
         id="tspan4199"
         x="510"
         y="353.36218" /></text>
    <path
       style="fill:#cccccc"
       d="m 233.95273,409.5321 c 0,-2.01343 3.35869,-10.47792 7.46376,-18.80997 11.09901,-22.52767 32.54131,-43.63771 54.72038,-53.87248 9.24872,-4.26793 21.0394,-8.77615 26.2015,-10.01829 6.04805,-1.45531 34.18964,-2.25842 79.137,-2.25842 76.52936,0 78.6523,0.25856 104.47736,12.72471 19.24514,9.28991 43.24542,33.63305 52.73188,53.48516 10.57352,22.12699 10.15038,22.71295 -9.33838,12.93199 -35.49328,-17.81324 -93.16722,-26.45405 -163.3935,-24.47989 -23.65,0.66483 -52.33292,2.5809 -63.73983,4.25792 -39.27779,5.77456 -73.18037,16.42133 -84.76017,26.61809 -3.18108,2.80114 -3.5,2.7484 -3.5,-0.57882 z"
       id="path3012"
       inkscape:connector-curvature="0" />
    <path
       style="fill:#cccccc"
       d="m 360.06838,260.57294 0.1169,-59 9.15501,23.5 9.15501,23.5 23.30341,0 23.30342,0 6.9253,-20.5 6.9253,-20.5 0.60953,44 c 0.33524,24.2 0.0623,49.4 -0.60657,56 l -1.21609,12 -38.89406,0 -38.89407,0 0.11691,-59 0,0 z"
       id="path3016"
       inkscape:connector-curvature="0" />
    <path
       style="fill:#cccccc"
       d="m 360.6488,297.26182 c 0.71716,-11.72112 1.33169,-36.24612 1.36563,-54.5 l 0.0617,-33.18888 7.49641,19 7.49642,19 24.94188,0 c 20.83724,0 24.94189,-0.4937 24.94189,-3 0,-1.65 0.54005,-3.45 1.20011,-4 0.66006,-0.55 3.06401,-6.4 5.34211,-13 l 4.14199,-12 0.1579,51.5 0.15789,51.5 -39.30393,0 -39.30394,0 1.30394,-21.31112 z"
       id="path3018"
       inkscape:connector-curvature="0" />
    <path
       style="fill:#cccccc"
       d="m 379.8909,241.57294 c -0.86525,-2.2 -4.71857,-12.1 -8.56294,-22 -3.84437,-9.9 -7.62278,-19.575 -8.39647,-21.5 -1.31054,-3.2607 1.22063,-3.5 37.02124,-3.5 29.85293,0 38.24223,0.55787 37.59564,2.5 -0.45777,1.375 -3.92906,12.56205 -7.71398,24.8601 l -6.88166,22.3601 -20.74432,0.6399 c -19.2025,0.59234 -20.86126,0.3426 -22.31751,-3.3601 z"
       id="path3020"
       inkscape:connector-curvature="0" />
    <path
       style="fill:#999999"
       d="m 348.141,160.42205 c -6.90423,-17.683 -12.24605,-32.42225 -11.87071,-32.7539 1.45232,-1.28328 123.68244,-3.40576 123.68244,-2.1477 0,0.73292 -4.68154,16.11957 -10.40341,34.19254 l -10.40341,32.85995 -39.22588,0 -39.22588,0 -12.55315,-32.15089 z"
       id="path3022"
       inkscape:connector-curvature="0" />
    <path
       style="fill:#999999"
       d="m 445.38274,184.99702 3.14214,-9.82571 17.92026,7.13546 c 20.31576,8.0893 19.90468,8.66826 -7.87522,11.09153 l -16.32932,1.42443 3.14214,-9.82571 z"
       id="path3024"
       inkscape:connector-curvature="0" />
    <path
       style="fill:#cccccc"
       d="m 380.45273,193.08194 c 10.725,-0.35962 28.275,-0.35962 39,0 10.725,0.35961 1.95,0.65384 -19.5,0.65384 -21.45,0 -30.225,-0.29423 -19.5,-0.65384 z"
       id="path3026"
       inkscape:connector-curvature="0" />
    <path
       style="fill:#cccccc"
       d="m 358.92166,185.1901 c -1.71639,-4.1079 -6.2671,-16.05226 -10.11269,-26.54303 -3.84559,-10.49077 -7.89514,-21.21543 -8.999,-23.83258 -1.10385,-2.61715 -1.59468,-5.17078 -1.09072,-5.67473 1.81843,-1.81844 119.23344,-3.17113 119.22595,-1.37356 -0.004,0.99371 -4.4097,15.75674 -9.79012,32.80674 l -9.78258,31 -38.16507,0.54303 -38.16506,0.54303 -3.12071,-7.4689 0,0 z"
       id="path3028"
       inkscape:connector-curvature="0" />
    <path
       style="fill:#cccccc"
       d="m 235.97917,406.07294 c 0.0145,-1.375 3.73429,-9.18654 8.26611,-17.35899 10.59566,-19.10765 30.61262,-38.9808 48.87929,-48.52813 25.73419,-13.45033 27.99718,-13.74578 105.82816,-13.81656 44.46372,-0.0404 73.64804,0.75087 80,2.16911 30.0815,6.7165 62.84224,32.94971 78.05584,62.50337 4.3255,8.40262 7.3814,15.76063 6.79088,16.35115 -0.59052,0.59051 -8.39074,-2.08982 -17.33384,-5.95629 -35.67376,-15.42326 -81.84708,-22.8772 -141.50062,-22.84302 -72.44349,0.0415 -129.72926,9.1151 -158.76417,25.14693 -10.15196,5.60549 -10.25652,5.62934 -10.22165,2.33243 z"
       id="path3030"
       inkscape:connector-curvature="0" />
    <path
       style="fill:#cccccc"
       d="m 394.61556,244.97407 c -5.68544,-0.32938 -11.23041,-1.67938 -12.32215,-3 -2.82957,-3.42278 -18.68648,-43.722 -17.62239,-44.78608 1.18205,-1.18205 69.41995,-1.14347 70.60334,0.0399 1.03158,1.03159 -11.0664,41.54788 -13.05768,43.73034 -2.26365,2.48099 -17.02427,4.62859 -27.60112,4.01583 l 0,0 z"
       id="path3032"
       inkscape:connector-curvature="0" />
    <path
       style="fill:#cccccc"
       d="m 394.61556,244.97407 c -5.68544,-0.32938 -11.23041,-1.67938 -12.32215,-3 -2.82957,-3.42278 -18.68648,-43.722 -17.62239,-44.78608 1.19526,-1.19526 69.42683,-1.13659 70.62415,0.0607 1.06835,1.06836 -11.00699,41.5661 -13.03302,43.70953 -2.35156,2.48784 -17.08377,4.62777 -27.64659,4.01583 z"
       id="path3034"
       inkscape:connector-curvature="0" />
    <path
       style="fill:#cccccc"
       d="m 394.61556,244.97407 c -5.68544,-0.32938 -11.23041,-1.67938 -12.32215,-3 -2.82957,-3.42278 -18.68648,-43.722 -17.62239,-44.78608 1.19526,-1.19526 69.42683,-1.13659 70.62415,0.0607 1.06835,1.06836 -11.00699,41.5661 -13.03302,43.70953 -2.35156,2.48784 -17.08377,4.62777 -27.64659,4.01583 z"
       id="path3036"
       inkscape:connector-curvature="0" />
    <path
       style="fill:#cccccc"
       d="m 351.17872,161.78313 c -6.21326,-16.3933 -10.75726,-30.34695 -10.09777,-31.0081 1.82611,-1.83071 114.87198,-2.60807 114.87039,-0.7899 -0.002,2.06243 -17.43099,58.6999 -18.32087,59.53506 -0.37276,0.34984 -17.4351,0.95847 -37.91633,1.35251 l -37.23859,0.71643 -11.29683,-29.806 z"
       id="path3038"
       inkscape:connector-curvature="0" />
    <path
       style="fill:#cccccc"
       d="m 360.63181,284.07294 c 0.71978,-18.975 1.36187,-43.5 1.42687,-54.5 l 0.11817,-20 7.44194,19 7.44194,19 23.32161,0.3548 c 18.09312,0.27526 23.85279,-0.28522 25.69089,-2.5 1.30311,-1.57014 1.69888,-2.8548 0.8795,-2.8548 -0.81938,0 -0.4632,-1.23695 0.79151,-2.74879 1.25472,-1.51183 3.99916,-7.58683 6.09876,-13.5 l 3.81747,-10.75121 0.14613,51.5 0.14613,51.5 -39.3148,0 -39.3148,0 1.30868,-34.5 z"
       id="path3040"
       inkscape:connector-curvature="0" />
    <path
       style="fill:#ececec"
       d="m 359.95273,300.89356 c 0,-9.72367 0.59771,-34.18043 1.32823,-54.34838 l 1.32824,-36.66899 7.30084,18.84838 7.30083,18.84837 21.86605,0.30539 c 20.19481,0.28204 29.28968,-1.26871 28.53294,-4.8651 -0.16668,-0.79216 0.83675,-4.14029 2.22985,-7.44029 1.3931,-3.3 3.72502,-9.15 5.18204,-13 2.31663,-6.12139 2.66682,-0.53597 2.79006,44.5 l 0.14092,51.5 -39,0 -39,0 0,-17.67938 z"
       id="path3042"
       inkscape:connector-curvature="0" />
    <path
       style="fill:#ececec"
       d="m 394.61556,244.97407 c -5.68544,-0.32938 -11.28222,-1.73759 -12.43728,-3.12935 -2.92896,-3.52919 -18.63513,-43.52886 -17.52704,-44.63696 1.24227,-1.24226 69.45161,-1.15136 70.69719,0.0942 1.11065,1.11064 -10.96965,41.46406 -13.06904,43.65626 -2.38501,2.49045 -17.10632,4.62747 -27.66383,4.01583 l 0,0 z"
       id="path3044"
       inkscape:connector-curvature="0" />
    <path
       style="fill:#ececec"
       d="m 387.95273,242.87229 c -3.90658,-1.14853 -6.58105,-5.16897 -12.22981,-18.38467 -11.79338,-27.59148 -12.38063,-25.12187 6.34517,-26.68354 18.21402,-1.51899 51.88464,0.44857 51.88464,3.03191 0,0.92902 -2.72541,10.1973 -6.05647,20.59618 -4.0549,12.65855 -7.19451,19.2369 -9.5,19.9051 -6.97852,2.02257 -25.59276,2.96113 -30.44353,1.53502 z"
       id="path3046"
       inkscape:connector-curvature="0" />
    <path
       style="fill:#ececec"
       d="m 235.97917,406.23961 c 0.0145,-1.46667 3.73429,-9.35321 8.26611,-17.52566 15.21247,-27.43335 43.44196,-50.03777 73.70745,-59.02032 16.08764,-4.77468 147.08932,-4.85416 164.99108,-0.1001 28.7281,7.62915 59.53072,33.21466 74.12958,61.57411 4.28984,8.33337 7.2952,15.65611 6.67856,16.27275 -0.61664,0.61665 -8.54614,-2.09648 -17.62112,-6.02916 -34.94894,-15.1453 -82.60374,-22.8466 -141.1781,-22.81523 -77.96678,0.0418 -126.62202,8.62328 -167.5,29.54265 -0.825,0.42219 -1.4881,-0.43237 -1.47356,-1.89904 z"
       id="path3048"
       inkscape:connector-curvature="0" />
    <path
       style="fill:#ececec"
       d="m 431.45273,191.24838 c 1.375,-0.55482 3.625,-0.55482 5,0 1.375,0.55483 0.25,1.00877 -2.5,1.00877 -2.75,0 -3.875,-0.45394 -2.5,-1.00877 z"
       id="path3050"
       inkscape:connector-curvature="0" />
    <path
       style="fill:#ececec"
       d="m 351.1746,161.77503 c -6.21099,-16.38885 -10.75323,-30.33885 -10.09386,-31 1.84326,-1.84822 114.87668,-2.65172 114.83774,-0.81632 -0.0504,2.37607 -17.66126,58.97641 -18.66131,59.97646 -0.4687,0.4687 -17.48816,1.02894 -37.82102,1.24497 l -36.96884,0.3928 -11.29271,-29.79791 z"
       id="path3052"
       inkscape:connector-curvature="0" />
    <path
       style="fill:#ececec"
       d=""
       id="path3054"
       inkscape:connector-curvature="0" />
    <path
       style="fill:#cccccc"
       d="m 392.45273,195.11601 c 4.125,-0.43149 10.875,-0.43149 15,0 4.125,0.43148 0.75,0.78452 -7.5,0.78452 -8.25,0 -11.625,-0.35304 -7.5,-0.78452 z"
       id="path3056"
       inkscape:connector-curvature="0" />
    <path
       style="fill:#cccccc"
       d="m 353.56291,165.07294 c -5.01902,-14.025 -9.7452,-27.525 -10.50261,-30 l -1.37712,-4.5 56.36804,0 c 52.70632,0 56.30736,0.22737 55.43403,3.5 -0.5137,1.925 -4.4393,14.86985 -8.72354,28.76633 l -7.78954,25.26633 -11.8031,1.23367 c -6.49171,0.67852 -23.20556,1.23367 -37.14188,1.23367 l -25.33878,0 -9.1255,-25.5 z"
       id="path3058"
       inkscape:connector-curvature="0" />
    <path
       style="fill:#cccccc"
       d="m 241.24483,397.24794 c 9.69228,-22.61118 33.2361,-46.2076 58.68878,-58.81989 l 16.7878,-8.31869 33.69205,-1.91303 c 48.80141,-2.77095 121.84016,-0.38205 137.52572,4.4981 25.40626,7.90449 56.17766,34.91387 68.54126,60.16163 3.42504,6.99429 6.04734,12.91137 5.82734,13.14908 -0.22,0.23771 -8.88276,-2.76026 -19.25062,-6.66214 -23.29262,-8.76606 -53.93088,-15.70217 -83.27702,-18.85285 -34.26652,-3.67894 -119.3909,-1.55076 -148.71518,3.718 -24.51052,4.40386 -52.16845,12.39261 -64.37977,18.59553 -4.08117,2.07309 -7.87419,3.76926 -8.42892,3.76926 -0.55473,0 0.79012,-4.19625 2.98856,-9.325 z"
       id="path3062"
       inkscape:connector-curvature="0" />
    <path
       style="fill:#cccccc"
       d="m 395.63302,319.13778 c 3.04012,-0.45971 7.54012,-0.44742 10,0.0273 2.45987,0.47472 -0.0275,0.85085 -5.5275,0.83583 -5.5,-0.015 -7.51263,-0.40342 -4.4725,-0.86313 z"
       id="path3064"
       inkscape:connector-curvature="0" />
  </g>
</svg>
