<?xml version="1.0" encoding="UTF-8" standalone="no"?>
<!-- Created with Inkscape (http://www.inkscape.org/) -->

<svg
   xmlns:dc="http://purl.org/dc/elements/1.1/"
   xmlns:cc="http://creativecommons.org/ns#"
   xmlns:rdf="http://www.w3.org/1999/02/22-rdf-syntax-ns#"
   xmlns:svg="http://www.w3.org/2000/svg"
   xmlns="http://www.w3.org/2000/svg"
   xmlns:sodipodi="http://sodipodi.sourceforge.net/DTD/sodipodi-0.dtd"
   xmlns:inkscape="http://www.inkscape.org/namespaces/inkscape"
   width="744.09448819"
   height="1052.3622047"
   id="svg2"
   version="1.1"
   inkscape:version="0.48.4 r9939"
   sodipodi:docname="CoverSlip_Box.svg">
  <defs
     id="defs4" />
  <sodipodi:namedview
     id="base"
     pagecolor="#ffffff"
     bordercolor="#666666"
     borderopacity="1.0"
     inkscape:pageopacity="0.0"
     inkscape:pageshadow="2"
     inkscape:zoom="0.70000001"
     inkscape:cx="255.79742"
     inkscape:cy="450.48241"
     inkscape:document-units="px"
     inkscape:current-layer="layer1"
     showgrid="false"
     inkscape:window-width="1301"
     inkscape:window-height="744"
     inkscape:window-x="65"
     inkscape:window-y="24"
     inkscape:window-maximized="1" />
  <metadata
     id="metadata7">
    <rdf:RDF>
      <cc:Work
         rdf:about="">
        <dc:format>image/svg+xml</dc:format>
        <dc:type
           rdf:resource="http://purl.org/dc/dcmitype/StillImage" />
        <dc:title />
      </cc:Work>
    </rdf:RDF>
  </metadata>
  <g
     inkscape:label="Layer 1"
     inkscape:groupmode="layer"
     id="layer1">
    <path
       style="fill:none;stroke:#000000;stroke-width:1px;stroke-linecap:butt;stroke-linejoin:miter;stroke-opacity:1"
       d="m 252.83198,570.13522 c 0,137.14285 2.85714,137.14285 2.85714,137.14285"
       id="path3012"
       inkscape:connector-curvature="0" />
    <path
       style="fill:none;stroke:#000000;stroke-width:0.94134831px;stroke-linecap:butt;stroke-linejoin:miter;stroke-opacity:1"
       d="m 19.289882,423.67731 c -2.9158,131.48723 -2.9158,131.48723 -2.9158,131.48723"
       id="path3016"
       inkscape:connector-curvature="0" />
    <path
       style="fill:none;stroke:#000000;stroke-width:1.06036615px;stroke-linecap:butt;stroke-linejoin:miter;stroke-opacity:1"
       d="M 14.290742,553.73683 C 254.94465,707.40359 254.94465,704.39052 254.94465,704.39052"
       id="path3022"
       inkscape:connector-curvature="0" />
    <path
       style="fill:none;stroke:#000000;stroke-width:0.90831476px;stroke-linecap:butt;stroke-linejoin:miter;stroke-opacity:1"
       d="M 255.64329,707.32391 C 517.16354,540.80366 517.16354,540.80366 517.16354,540.80366"
       id="path3024"
       inkscape:connector-curvature="0" />
    <path
       style="fill:none;stroke:#000000;stroke-width:1px;stroke-linecap:butt;stroke-linejoin:miter;stroke-opacity:1"
       d="M 19.260552,422.27807 C 256.40341,573.70664 253.54627,570.8495 253.54627,570.8495 c 265.71428,-160 262.85714,-157.14286 262.85714,-157.14286 0,131.42858 0,128.57143 0,128.57143"
       id="path3026"
       inkscape:connector-curvature="0" />
    <path
       style="fill:none;stroke:#000000;stroke-width:1px;stroke-linecap:butt;stroke-linejoin:miter;stroke-opacity:1"
       d="M 19.974842,422.27807 C 281.40341,260.8495 282.1177,260.13522 282.1177,260.13522 515.68913,414.42093 514.97484,414.42093 514.97484,414.42093"
       id="path3032"
       inkscape:connector-curvature="0" />
    <path
       style="fill:none;stroke:#000000;stroke-width:1px;stroke-linecap:butt;stroke-linejoin:miter;stroke-opacity:1"
       d="M 25.689122,425.8495 C 281.40341,276.56379 281.40341,276.56379 281.40341,276.56379 l 0,0 c 0,0 0.71429,2.14285 0,0 -0.71428,-2.14286 -0.71428,-2.14286 -0.71428,-2.14286 212.85714,143.57143 212.85714,143.57143 212.85714,143.57143 -117.85714,80 -117.85714,80 -117.85714,80 l 0,0 0,0"
       id="path3067"
       inkscape:connector-curvature="0" />
    <path
       style="fill:#f2f2f2"
       d="M 231.51868,555.49781 C 219.38738,547.92932 168.61334,515.73349 118.6875,483.95154 L 27.913241,426.16616 154.9355,351.98329 c 100.15239,-58.49048 127.57775,-73.91761 129.64825,-72.9289 4.21436,2.01243 205.79084,138.30871 205.72914,139.1041 -0.0307,0.39671 -24.9415,17.52902 -55.35714,38.07179 -34.83355,23.52663 -78.63286,51.35515 -118.34066,75.18945 l -63.03947,37.83896 -22.05694,-13.76088 0,0 z"
       id="path3403"
       inkscape:connector-curvature="0" />
    <path
       style="fill:#ffaaaa"
       d="M 242.51171,694.303 C 212.17896,675.8498 35.604245,564.874 17.802039,553.07476 c -0.534918,-0.35454 2.626024,-128.30182 3.183472,-128.85927 0.226,-0.226 48.233276,30.012 106.682839,67.19556 58.44956,37.18355 110.28978,70.03275 115.2005,72.99815 l 8.92857,5.3917 0.004,40.2537 c 0.003,22.1396 0.42501,51.343 0.93914,64.8966 0.5498,14.494 0.40091,24.6271 -0.36152,24.6046 -0.71295,-0.021 -5.15342,-2.3848 -9.86771,-5.2528 l 9e-5,0 z"
       id="path3405"
       inkscape:connector-curvature="0" />
    <path
       style="fill:#ffaaaa"
       d="m 255.58757,691.31693 c -0.50502,-7.62614 -0.92155,-37.66011 -0.92562,-66.74213 l -0.007,-52.87639 123.21429,-73.75532 C 445.6367,457.37767 504.1435,422.44626 507.88397,420.31774 l 6.80083,-3.87003 -0.37226,62.41812 -0.37227,62.41812 -126.42857,80.6373 c -69.53571,44.35053 -127.45847,81.22774 -128.71723,81.94937 -2.00862,1.1515 -2.40102,-0.3846 -3.2069,-12.55369 l 0,0 z"
       id="path3407"
       inkscape:connector-curvature="0" />
    <path
       style="fill:#ffaaaa"
       d=""
       id="path3409"
       inkscape:connector-curvature="0" />
    <path
       style="fill:#ffaaaa"
       d="m 448.94027,450.38956 c 0,-0.34818 10.28572,-7.53574 22.85715,-15.97232 12.57143,-8.4366 22.85714,-15.78073 22.85714,-16.32029 0,-0.87551 -211.47245,-144.24099 -214.48475,-145.40765 -0.67625,-0.2619 -1.22953,0.48724 -1.22953,1.66475 0,2.04392 -250.707346,149.52573 -254.181845,149.52573 -0.842842,0 -1.522097,-0.48214 -1.509454,-1.07143 0.02179,-1.01561 247.447969,-154.64699 255.607729,-158.71145 3.7761,-1.88092 6.4904,-0.18952 116.61768,72.6698 62.01338,41.02755 113.63508,75.42558 114.71491,76.44008 1.64312,1.5437 1.23162,2.2229 -2.52318,4.16458 -2.46759,1.27603 -16.33787,9.36959 -30.82286,17.98566 -25.26641,15.02919 -27.90299,16.44962 -27.90299,15.03254 z"
       id="path3411"
       inkscape:connector-curvature="0" />
    <flowRoot
       xml:space="preserve"
       id="flowRoot3417"
       style="font-size:40px;font-style:normal;font-weight:normal;line-height:125%;letter-spacing:0px;word-spacing:0px;fill:#000000;fill-opacity:1;stroke:none;font-family:Sans"
       transform="matrix(1.3061394,0.78690937,-0.53766437,1.0848108,887.74021,43.215595)"><flowRegion
         id="flowRegion3419"><rect
           id="rect3421"
           width="243.11536"
           height="55.206093"
           x="-370.19467"
           y="660.78461"
           ry="12.62043" /></flowRegion><flowPara
         id="flowPara3423">COVER</flowPara></flowRoot>    <flowRoot
       xml:space="preserve"
       id="flowRoot3425"
       style="fill:black;stroke:none;stroke-opacity:1;stroke-width:1px;stroke-linejoin:miter;stroke-linecap:butt;fill-opacity:1;font-family:Sans;font-style:normal;font-weight:normal;font-size:40px;line-height:125%;letter-spacing:0px;word-spacing:0px"><flowRegion
         id="flowRegion3427"><rect
           id="rect3429"
           width="97.142853"
           height="50"
           x="-182.85715"
           y="678.07648" /></flowRegion><flowPara
         id="flowPara3431"></flowPara></flowRoot>    <flowRoot
       xml:space="preserve"
       id="flowRoot3433"
       style="font-size:40px;font-style:normal;font-weight:normal;line-height:125%;letter-spacing:0px;word-spacing:0px;fill:#000000;fill-opacity:1;stroke:none;font-family:Sans"
       transform="matrix(1.2861085,-0.90256474,1.0887612,0.90475689,-733.64895,309.37059)"><flowRegion
         id="flowRegion3435"><rect
           id="rect3437"
           width="152.85715"
           height="140"
           x="310"
           y="596.64789" /></flowRegion><flowPara
         id="flowPara3439">SLIP</flowPara></flowRoot>    <flowRoot
       xml:space="preserve"
       id="flowRoot3441"
       style="fill:black;stroke:none;stroke-opacity:1;stroke-width:1px;stroke-linejoin:miter;stroke-linecap:butt;fill-opacity:1;font-family:Sans;font-style:normal;font-weight:normal;font-size:40px;line-height:125%;letter-spacing:0px;word-spacing:0px"><flowRegion
         id="flowRegion3443"><rect
           id="rect3445"
           width="18.571428"
           height="78.571426"
           x="455.71429"
           y="660.93359" /></flowRegion><flowPara
         id="flowPara3447"></flowPara></flowRoot>    <flowRoot
       xml:space="preserve"
       id="flowRoot3449"
       style="fill:black;stroke:none;stroke-opacity:1;stroke-width:1px;stroke-linejoin:miter;stroke-linecap:butt;fill-opacity:1;font-family:Sans;font-style:normal;font-weight:normal;font-size:40px;line-height:125%;letter-spacing:0px;word-spacing:0px"><flowRegion
         id="flowRegion3451"><rect
           id="rect3453"
           width="31.428572"
           height="82.85714"
           x="312.85715"
           y="638.07648" /></flowRegion><flowPara
         id="flowPara3455"></flowPara></flowRoot>  </g>
</svg>
