<?xml version="1.0" encoding="UTF-8" standalone="no"?>
<!-- Created with Inkscape (http://www.inkscape.org/) -->

<svg
   xmlns:dc="http://purl.org/dc/elements/1.1/"
   xmlns:cc="http://creativecommons.org/ns#"
   xmlns:rdf="http://www.w3.org/1999/02/22-rdf-syntax-ns#"
   xmlns:svg="http://www.w3.org/2000/svg"
   xmlns="http://www.w3.org/2000/svg"
   xmlns:sodipodi="http://sodipodi.sourceforge.net/DTD/sodipodi-0.dtd"
   xmlns:inkscape="http://www.inkscape.org/namespaces/inkscape"
   width="744.09448819"
   height="1052.3622047"
   id="svg2"
   version="1.1"
   inkscape:version="0.48.4 r9939"
   sodipodi:docname="CoverSlip_Box.svg">
  <defs
     id="defs4" />
  <sodipodi:namedview
     id="base"
     pagecolor="#ffffff"
     bordercolor="#666666"
     borderopacity="1.0"
     inkscape:pageopacity="0.0"
     inkscape:pageshadow="2"
     inkscape:zoom="0.70000001"
     inkscape:cx="255.79742"
     inkscape:cy="393.33955"
     inkscape:document-units="px"
     inkscape:current-layer="layer1"
     showgrid="false"
     inkscape:window-width="1301"
     inkscape:window-height="744"
     inkscape:window-x="65"
     inkscape:window-y="24"
     inkscape:window-maximized="1" />
  <metadata
     id="metadata7">
    <rdf:RDF>
      <cc:Work
         rdf:about="">
        <dc:format>image/svg+xml</dc:format>
        <dc:type
           rdf:resource="http://purl.org/dc/dcmitype/StillImage" />
        <dc:title />
      </cc:Work>
    </rdf:RDF>
  </metadata>
  <g
     inkscape:label="Layer 1"
     inkscape:groupmode="layer"
     id="layer1">
    <path
       style="fill:none;stroke:#000000;stroke-width:1px;stroke-linecap:butt;stroke-linejoin:miter;stroke-opacity:1"
       d="m 252.83198,570.13522 c 0,137.14285 2.85714,137.14285 2.85714,137.14285"
       id="path3012"
       inkscape:connector-curvature="0" />
    <path
       style="fill:none;stroke:#000000;stroke-width:0.94134831px;stroke-linecap:butt;stroke-linejoin:miter;stroke-opacity:1"
       d="m 19.289882,423.67731 c -2.9158,131.48723 -2.9158,131.48723 -2.9158,131.48723"
       id="path3016"
       inkscape:connector-curvature="0" />
    <path
       style="fill:none;stroke:#000000;stroke-width:1.06036615px;stroke-linecap:butt;stroke-linejoin:miter;stroke-opacity:1"
       d="M 14.290742,553.73683 C 254.94465,707.40359 254.94465,704.39052 254.94465,704.39052"
       id="path3022"
       inkscape:connector-curvature="0" />
    <path
       style="fill:none;stroke:#000000;stroke-width:0.90831476px;stroke-linecap:butt;stroke-linejoin:miter;stroke-opacity:1"
       d="M 255.64329,707.32391 C 517.16354,540.80366 517.16354,540.80366 517.16354,540.80366"
       id="path3024"
       inkscape:connector-curvature="0" />
    <path
       style="fill:none;stroke:#000000;stroke-width:1px;stroke-linecap:butt;stroke-linejoin:miter;stroke-opacity:1"
       d="M 19.260552,422.27807 C 256.40341,573.70664 253.54627,570.8495 253.54627,570.8495 c 265.71428,-160 262.85714,-157.14286 262.85714,-157.14286 0,131.42858 0,128.57143 0,128.57143"
       id="path3026"
       inkscape:connector-curvature="0" />
    <path
       style="fill:none;stroke:#000000;stroke-width:1px;stroke-linecap:butt;stroke-linejoin:miter;stroke-opacity:1"
       d="M 19.974842,422.27807 C 281.40341,260.8495 282.1177,260.13522 282.1177,260.13522 515.68913,414.42093 514.97484,414.42093 514.97484,414.42093"
       id="path3032"
       inkscape:connector-curvature="0" />
    <path
       style="fill:none;stroke:#000000;stroke-width:1px;stroke-linecap:butt;stroke-linejoin:miter;stroke-opacity:1"
       d="M 25.689122,425.8495 C 281.40341,276.56379 281.40341,276.56379 281.40341,276.56379 l 0,0 c 0,0 0.71429,2.14285 0,0 -0.71428,-2.14286 -0.71428,-2.14286 -0.71428,-2.14286 212.85714,143.57143 212.85714,143.57143 212.85714,143.57143 -117.85714,80 -117.85714,80 -117.85714,80 l 0,0 0,0"
       id="path3067"
       inkscape:connector-curvature="0" />
    <flowRoot
       xml:space="preserve"
       id="flowRoot3077"
       style="font-size:40px;font-style:normal;font-weight:normal;line-height:125%;letter-spacing:0px;word-spacing:0px;fill:#000000;fill-opacity:1;stroke:none;font-family:Sans"
       transform="matrix(1.1790171,0.67752016,-0.81585226,1.4197418,1309.7666,495.38694)"
       inkscape:transform-center-x="-79.840563"
       inkscape:transform-center-y="45.998775"><flowRegion
         id="flowRegion3079"><rect
           id="rect3081"
           width="149.28572"
           height="47.857143"
           x="-803.57141"
           y="365.93362" /></flowRegion><flowPara
         id="flowPara3083">COVER </flowPara></flowRoot>    <flowRoot
       xml:space="preserve"
       id="flowRoot3085"
       style="font-size:40px;font-style:normal;font-weight:normal;line-height:125%;letter-spacing:0px;word-spacing:0px;fill:#000000;fill-opacity:1;stroke:none;font-family:Sans"
       transform="matrix(1.4916521,-0.88818724,0.99738958,1.2335016,1078.8119,-568.6031)"
       inkscape:transform-center-x="-67.719748"
       inkscape:transform-center-y="-36.779363"><flowRegion
         id="flowRegion3087"><rect
           id="rect3089"
           width="215.71428"
           height="62.857143"
           x="-767.85712"
           y="369.50504" /></flowRegion><flowPara
         id="flowPara3091">SLIP</flowPara></flowRoot>    <path
       style="fill:#f2f2f2"
       d="M 231.51868,555.49781 C 219.38738,547.92932 168.61334,515.73349 118.6875,483.95154 L 27.913241,426.16616 154.9355,351.98329 c 100.15239,-58.49048 127.57775,-73.91761 129.64825,-72.9289 4.21436,2.01243 205.79084,138.30871 205.72914,139.1041 -0.0307,0.39671 -24.9415,17.52902 -55.35714,38.07179 -34.83355,23.52663 -78.63286,51.35515 -118.34066,75.18945 l -63.03947,37.83896 -22.05694,-13.76088 0,0 z"
       id="path3403"
       inkscape:connector-curvature="0" />
  </g>
</svg>
