<?xml version="1.0" encoding="UTF-8" standalone="no"?>
<!-- Created with Inkscape (http://www.inkscape.org/) -->

<svg
   xmlns:dc="http://purl.org/dc/elements/1.1/"
   xmlns:cc="http://creativecommons.org/ns#"
   xmlns:rdf="http://www.w3.org/1999/02/22-rdf-syntax-ns#"
   xmlns:svg="http://www.w3.org/2000/svg"
   xmlns="http://www.w3.org/2000/svg"
   xmlns:sodipodi="http://sodipodi.sourceforge.net/DTD/sodipodi-0.dtd"
   xmlns:inkscape="http://www.inkscape.org/namespaces/inkscape"
   width="744.09448819"
   height="1052.3622047"
   id="svg3003"
   version="1.1"
   inkscape:version="0.48.4 r9939"
   sodipodi:docname="Dropper.svg">
  <defs
     id="defs3005" />
  <sodipodi:namedview
     id="base"
     pagecolor="#ffffff"
     bordercolor="#666666"
     borderopacity="1.0"
     inkscape:pageopacity="0.0"
     inkscape:pageshadow="2"
     inkscape:zoom="0.35740385"
     inkscape:cx="50.03993"
     inkscape:cy="649.42633"
     inkscape:document-units="px"
     inkscape:current-layer="layer1"
     showgrid="false"
     inkscape:window-width="1301"
     inkscape:window-height="744"
     inkscape:window-x="65"
     inkscape:window-y="24"
     inkscape:window-maximized="1"
     showguides="true"
     inkscape:guide-bbox="true" />
  <metadata
     id="metadata3008">
    <rdf:RDF>
      <cc:Work
         rdf:about="">
        <dc:format>image/svg+xml</dc:format>
        <dc:type
           rdf:resource="http://purl.org/dc/dcmitype/StillImage" />
        <dc:title />
      </cc:Work>
    </rdf:RDF>
  </metadata>
  <g
     inkscape:label="Layer 1"
     inkscape:groupmode="layer"
     id="layer1">
    <path
       style="fill:none;stroke:#000000;stroke-width:1px;stroke-linecap:butt;stroke-linejoin:miter;stroke-opacity:1"
       d="M 125.7143,712.36218 C 517.14286,286.6479 517.14286,286.6479 517.14286,286.6479 l 0,0 0,0"
       id="path3011"
       inkscape:connector-curvature="0" />
    <path
       style="fill:none;stroke:#000000;stroke-width:0.9846406px;stroke-linecap:butt;stroke-linejoin:miter;stroke-opacity:1"
       d="m 208.56375,763.79843 c 382.65143,-407.8711 382.65143,-407.8711 382.65143,-407.8711 l 0,0"
       id="path3013"
       inkscape:connector-curvature="0" />
    <path
       style="fill:none;stroke:#000000;stroke-width:1px;stroke-linecap:butt;stroke-linejoin:miter;stroke-opacity:1"
       d="m 125.9668,712.28296 c -10.5588,24.84419 -18.7871,44.15257 -25.0428,59.15789 -22.5213,54.02063 -20.6715,52.27068 -20.6715,52.27068 l 0,0"
       id="path3027"
       inkscape:connector-curvature="0"
       sodipodi:nodetypes="cscc" />
    <path
       style="fill:none;stroke:#000000;stroke-width:1.01990807px;stroke-linecap:butt;stroke-linejoin:miter;stroke-opacity:1"
       d="M 209.23987,763.46894 C 103.2549,835.57709 103.2549,835.57709 103.2549,835.57709"
       id="path3029"
       inkscape:connector-curvature="0" />
    <path
       style="fill:none;stroke:#000000;stroke-width:0.89280015px;stroke-linecap:butt;stroke-linejoin:miter;stroke-opacity:1"
       d="M 103.1041,835.86182 C 71.5817,869.71244 71.5817,869.71244 71.5817,869.71244"
       id="path3039"
       inkscape:connector-curvature="0" />
    <path
       style="fill:none;stroke:#000000;stroke-width:0.7358833px;stroke-linecap:butt;stroke-linejoin:miter;stroke-opacity:1"
       d="m 51.609,857.77608 c 7.3366,0.71322 15.5397,-2.03947 19.3388,12.82403 -0.021,0.007 -18.5084,6.47792 -19.3388,-12.82403"
       id="path3041"
       inkscape:connector-curvature="0"
       sodipodi:nodetypes="ccc" />
    <path
       style="fill:none;stroke:#000000;stroke-width:1px;stroke-linecap:butt;stroke-linejoin:miter;stroke-opacity:1"
       d="m 51.5954,857.59221 c 29.0288,-34.6247 29.0288,-34.6247 29.0288,-34.6247 l 0,0"
       id="path3045"
       inkscape:connector-curvature="0" />
    <path
       style="fill:none;stroke:#000000;stroke-width:1px;stroke-linecap:butt;stroke-linejoin:miter;stroke-opacity:1"
       d="m 430.71832,380.89057 c 12.59554,65.63403 78.13463,62.17714 78.34275,62.2545"
       id="path3091"
       inkscape:connector-curvature="0"
       sodipodi:nodetypes="cc" />
    <path
       style="fill:#00ffff;stroke:#000000;stroke-width:1px;stroke-linecap:butt;stroke-linejoin:miter;stroke-opacity:1"
       d="m 430.01883,380.54083 c 26.04875,8.54891 38.6523,16.84931 52.17281,27.55289 23.98459,18.98754 27.19674,34.63431 27.21917,34.70161"
       id="path3093"
       inkscape:connector-curvature="0"
       sodipodi:nodetypes="csc" />
    <path
       style="fill:none;stroke:#000000;stroke-width:1px;stroke-linecap:butt;stroke-linejoin:miter;stroke-opacity:1"
       d="m 282.83515,541.23561 c 14.36974,23.95427 37.58784,32.14889 37.59061,32.14987"
       id="path3101"
       inkscape:connector-curvature="0"
       sodipodi:nodetypes="cc" />
    <path
       style="fill:none;stroke:#000000;stroke-width:1px;stroke-linecap:butt;stroke-linejoin:miter;stroke-opacity:1"
       d="m 234.36305,595.14846 c 5.91355,15.69844 31.45488,29.07724 31.65525,29.18219"
       id="path3103"
       inkscape:connector-curvature="0"
       sodipodi:nodetypes="cc" />
    <path
       style="fill:none;stroke:#000000;stroke-width:1px;stroke-linecap:butt;stroke-linejoin:miter;stroke-opacity:1"
       d="m 187.37479,646.58825 c 15.55071,25.02039 33.62206,32.1457 33.6337,32.14986"
       id="path3105"
       inkscape:connector-curvature="0"
       sodipodi:nodetypes="cc" />
    <path
       style="fill:#aaeeff"
       d="m 67.7458,860.78151 c -0.8858,-2.30832 -3.5387,-4.19694 -5.8953,-4.19694 -6.2546,0 -5.5022,-1.74911 7.2654,-16.89075 8.5241,-10.10904 17.7212,-28.50017 35.104,-70.19642 l 23.5539,-56.4986 29.22231,-31.33235 29.22227,-31.33236 14.98965,14.98965 c 8.24431,8.24431 16.47241,14.98965 18.28467,14.98965 1.81226,0 -4.40083,-7.53039 -13.80687,-16.73421 l -17.10189,-16.73418 21.81809,-23.64815 21.8181,-23.64814 11.59653,10.68931 c 12.61352,11.62673 23.59577,18.49341 23.59577,14.75331 0,-1.29678 -5.57243,-6.2856 -12.38318,-11.08625 -21.13395,-14.89659 -21.02706,-15.91272 4.60154,-43.74583 l 22.59361,-24.53704 9.88264,10.17468 c 10.05006,10.34704 25.06485,19.73059 27.56721,17.22822 0.75823,-0.75823 -1.56216,-2.88855 -5.15644,-4.73405 -7.82533,-4.01797 -27.51969,-22.44826 -27.51969,-25.75336 0,-3.78639 140.79784,-155.78359 143.02831,-154.40509 1.11915,0.69168 2.82885,4.87276 3.79932,9.29129 2.23677,10.18395 18.91636,29.81657 30.42387,35.81026 4.8469,2.5245 15.53223,6.59752 23.74521,9.05115 l 14.93272,4.46115 -147.83559,157.65165 -147.83557,157.65164 -51.76217,35.06227 C 121.4534,820.17033 98.6265,837.7897 88.8193,848.57635 73.0367,865.93517 70.3259,867.50516 67.7458,860.78151 z"
       id="path3002"
       inkscape:connector-curvature="0" />
    <g
       id="g3009"
       style="fill:#c83737">
      <path
         inkscape:connector-curvature="0"
         id="path3031-2"
         d="m 516.62558,285.56452 c 74.751,69.69434 74.751,69.69434 74.751,69.69434"
         style="fill:#c83737;stroke:#000000;stroke-width:0.91878605000000002px;stroke-linecap:butt;stroke-linejoin:miter;stroke-opacity:1" />
      <path
         inkscape:connector-curvature="0"
         id="path3065"
         d="M 516.05596,286.80932 C 512.55852,228.05226 513.258,227.35277 513.258,227.35277"
         style="fill:#c83737;stroke:#000000;stroke-width:1px;stroke-linecap:butt;stroke-linejoin:miter;stroke-opacity:1" />
      <path
         inkscape:connector-curvature="0"
         id="path3067"
         d="M 591.60075,355.35922 C 657.3527,334.37456 657.3527,334.37456 657.3527,334.37456"
         style="fill:#c83737;stroke:#000000;stroke-width:1px;stroke-linecap:butt;stroke-linejoin:miter;stroke-opacity:1" />
      <path
         inkscape:connector-curvature="0"
         id="path3069"
         d="m 513.95749,226.65328 c 60.85553,-75.5448 60.85553,-75.5448 60.85553,-75.5448"
         style="fill:#c83737;stroke:#000000;stroke-width:1px;stroke-linecap:butt;stroke-linejoin:miter;stroke-opacity:1" />
      <path
         inkscape:connector-curvature="0"
         id="path3071"
         d="m 655.95373,334.37456 c 62.95399,-74.84531 62.95399,-74.84531 62.95399,-74.84531"
         style="fill:#c83737;stroke:#000000;stroke-width:1px;stroke-linecap:butt;stroke-linejoin:miter;stroke-opacity:1" />
      <path
         sodipodi:nodetypes="csc"
         inkscape:connector-curvature="0"
         id="path3073"
         d="m 574.11353,150.409 c 8.1491,-2.88893 -17.62334,6.25828 33.12825,-11.30114 119.20376,-41.243021 134.15165,49.21598 111.66594,120.42139"
         style="fill:#c83737;stroke:#000000;stroke-width:1px;stroke-linecap:butt;stroke-linejoin:miter;stroke-opacity:1" />
      <path
         sodipodi:nodetypes="cc"
         inkscape:connector-curvature="0"
         id="path3095"
         d="m 576.81302,150.31053 c 76.39774,108.81602 142.65014,103.52815 142.69572,103.52435"
         style="fill:#c83737;stroke:#000000;stroke-width:1px;stroke-linecap:butt;stroke-linejoin:miter;stroke-opacity:1" />
      <path
         sodipodi:nodetypes="cc"
         inkscape:connector-curvature="0"
         id="path3097"
         d="m 514.46005,223.05737 c 95.87447,111.91821 139.53522,111.91821 139.89777,111.91821"
         style="fill:#c83737;stroke:#000000;stroke-width:1px;stroke-linecap:butt;stroke-linejoin:miter;stroke-opacity:1" />
      <path
         inkscape:connector-curvature="0"
         id="path3003"
         d="m 641.27818,328.75086 c -6.87091,-2.60815 -20.40219,-10.11342 -30.06952,-16.67838 -18.20323,-12.36157 -70.26265,-60.88847 -84.20225,-78.48864 l -7.95075,-10.03864 28.70555,-35.38769 28.70555,-35.38768 10.91539,14.4901 c 33.76356,44.8209 70.7749,73.37295 109.64419,84.584 l 20.57128,5.93337 -31.91344,37.85782 -31.91344,37.85782 -12.49256,-4.74208 0,0 z"
         style="fill:#c83737" />
      <path
         inkscape:connector-curvature="0"
         id="path3005"
         d="m 706.01882,249.76507 c -32.27255,-5.54121 -75.92493,-36.16396 -106.97599,-75.04511 l -18.8404,-23.59135 11.92377,-4.68371 c 6.55808,-2.57603 23.58981,-7.54475 37.8483,-11.04159 22.91582,-5.62003 27.91818,-5.98713 43.10304,-3.16321 20.94815,3.89571 34.31397,13.8821 44.12056,32.96507 6.27289,12.20659 6.96682,16.72132 6.62006,43.06996 -0.21306,16.18871 -1.47213,32.63301 -2.79795,36.5429 -2.26713,6.68579 -3.15995,6.98022 -15.00139,4.94704 z"
         style="fill:#c83737" />
      <path
         inkscape:connector-curvature="0"
         id="path3007"
         d="M 555.91164,319.14794 C 516.48403,282.15526 516.22403,281.69097 515.9191,247.73125 l -0.16125,-17.95743 32.87598,32.5257 c 41.33318,40.89282 56.20674,53.02886 79.10446,64.54511 l 18.24893,9.17816 -27.05936,8.43071 -27.05936,8.43071 -35.95686,-33.73627 0,0 z"
         style="fill:#c83737" />
    </g>
    <path
       style="fill:#c83737"
       d="m 631.74912,325.07561 c -26.4658,-13.57777 -84.37077,-64.85279 -102.10919,-90.41798 l -7.94137,-11.44538 14.33732,-17.93315 c 7.88552,-9.86324 20.16697,-25.00558 27.2921,-33.64966 l 12.95477,-15.7165 17.51324,21.31241 c 32.02498,38.97223 66.98226,64.67585 103.20051,75.88197 8.2052,2.53873 14.93069,5.531 14.94554,6.6495 0.0148,1.11849 -12.95829,17.51533 -28.8292,36.43742 -19.42525,23.15975 -30.7296,34.42719 -34.58832,34.47536 -3.15267,0.0394 -10.7016,-2.47794 -16.7754,-5.59399 z"
       id="path3022"
       inkscape:connector-curvature="0"
       inkscape:transform-center-x="-369.3301"
       inkscape:transform-center-y="139.89777" />
    <path
       style="fill:#00ffff"
       d="m 484.96223,437.94665 c -11.033,-3.35608 -23.09029,-10.37037 -31.46059,-18.3021 -7.41922,-7.03047 -20.33067,-28.93332 -18.27036,-30.99363 0.89716,-0.89716 58.40973,42.68925 64.99792,49.25926 3.16496,3.15622 -4.94723,3.1756 -15.26697,0.0365 l 0,-1e-5 z"
       id="path3024"
       inkscape:connector-curvature="0" />
    <path
       style="fill:#00ffff"
       d="m 66.408467,857.8618 c -5.782167,-4.47217 -5.776446,-4.5002 3.572058,-17.51262 10.113422,-14.07716 23.708418,-42.25915 44.579725,-92.41238 13.47873,-32.38902 16.85599,-37.22688 52.12242,-74.66392 l 19.31419,-20.50295 15.0224,14.20756 c 8.26232,7.81415 15.72731,14.20756 16.58887,14.20756 4.2484,0 0.2954,-6.53568 -12.26581,-20.27966 l -13.83227,-15.13471 20.25396,-21.96326 20.25396,-21.96326 16.07083,13.08987 c 17.56582,14.30755 18.65103,14.85259 18.65103,9.36725 0,-2.04744 -5.66586,-7.79154 -12.5908,-12.76465 -6.92494,-4.97312 -12.5908,-11.19556 -12.5908,-13.82765 0,-2.6321 9.08943,-15.05073 20.19873,-27.59697 l 20.19873,-22.81134 11.57405,10.66858 c 6.36573,5.86773 14.38172,12.17121 17.8133,14.00774 10.36007,5.54453 10.44895,0.31012 0.13168,-7.75441 -5.31002,-4.15059 -12.77648,-10.22777 -16.59213,-13.50482 l -6.93754,-5.95829 7.96976,-10.4489 c 9.13834,-11.98098 104.27157,-114.80146 121.52077,-131.34027 6.31563,-6.05551 11.91151,-10.46229 12.43534,-9.79284 0.52381,0.66945 4.35225,7.15514 8.50761,14.41265 9.29573,16.23535 20.72996,25.20631 42.4813,33.32955 9.19122,3.43255 17.14975,6.5585 17.68562,6.94655 0.53586,0.38805 -65.26947,71.27426 -146.23413,157.52492 C 230.31751,735.34969 201.39574,764.69655 183.4597,776.72457 139.67454,806.08715 107.86531,829.66029 90.256921,845.79517 73.026554,861.5837 71.934778,862.1361 66.408467,857.8618 l 0,0 z"
       id="path3026"
       inkscape:connector-curvature="0" />
  </g>
</svg>
