<?xml version="1.0" encoding="UTF-8" standalone="no"?>
<!-- Created with Inkscape (http://www.inkscape.org/) -->

<svg
   xmlns:dc="http://purl.org/dc/elements/1.1/"
   xmlns:cc="http://creativecommons.org/ns#"
   xmlns:rdf="http://www.w3.org/1999/02/22-rdf-syntax-ns#"
   xmlns:svg="http://www.w3.org/2000/svg"
   xmlns="http://www.w3.org/2000/svg"
   xmlns:sodipodi="http://sodipodi.sourceforge.net/DTD/sodipodi-0.dtd"
   xmlns:inkscape="http://www.inkscape.org/namespaces/inkscape"
   width="744.09448819"
   height="1052.3622047"
   id="svg2"
   version="1.1"
   inkscape:version="0.48.4 r9939"
   sodipodi:docname="Forcep.svg">
  <defs
     id="defs4" />
  <sodipodi:namedview
     id="base"
     pagecolor="#ffffff"
     bordercolor="#666666"
     borderopacity="1.0"
     inkscape:pageopacity="0.0"
     inkscape:pageshadow="2"
     inkscape:zoom="0.49497475"
     inkscape:cx="511.25642"
     inkscape:cy="691.9418"
     inkscape:document-units="px"
     inkscape:current-layer="layer1"
     showgrid="false"
     showborder="true"
     inkscape:window-width="1301"
     inkscape:window-height="744"
     inkscape:window-x="65"
     inkscape:window-y="24"
     inkscape:window-maximized="1" />
  <metadata
     id="metadata7">
    <rdf:RDF>
      <cc:Work
         rdf:about="">
        <dc:format>image/svg+xml</dc:format>
        <dc:type
           rdf:resource="http://purl.org/dc/dcmitype/StillImage" />
        <dc:title />
      </cc:Work>
    </rdf:RDF>
  </metadata>
  <g
     inkscape:label="Layer 1"
     inkscape:groupmode="layer"
     id="layer1">
    <path
       style="fill:none;stroke:#000000;stroke-width:0.64541519px;stroke-linecap:butt;stroke-linejoin:miter;stroke-opacity:1"
       d="M 44.093455,348.17093 C 523.2388,467.61349 521.95766,466.28636 521.95766,466.28636"
       id="path3080"
       inkscape:connector-curvature="0" />
    <path
       style="fill:none;stroke:#000000;stroke-width:0.64541519px;stroke-linecap:butt;stroke-linejoin:miter;stroke-opacity:1"
       d="M 40.62528,304.61683 C 521.05176,425.38654 522.3329,425.38654 522.3329,425.38654"
       id="path3088"
       inkscape:connector-curvature="0" />
    <path
       style="fill:none;stroke:#000000;stroke-width:0.62604159px;stroke-linecap:butt;stroke-linejoin:miter;stroke-opacity:1"
       d="m 521.70556,466.30254 c 181.73021,-1.118 181.73021,-1.118 181.73021,-1.118"
       id="path3090"
       inkscape:connector-curvature="0" />
    <path
       style="fill:none;stroke:#000000;stroke-width:0.65451115px;stroke-linecap:butt;stroke-linejoin:miter;stroke-opacity:1"
       d="m 521.05622,425.39117 c 181.87573,27.86067 183.19365,27.86067 183.19365,27.86067 l 0,0 -2.63589,0"
       id="path3092"
       inkscape:connector-curvature="0" />
    <path
       style="fill:none;stroke:#000000;stroke-width:0.74076331px;stroke-linecap:butt;stroke-linejoin:miter;stroke-opacity:1"
       d="m 704.13129,453.29008 c 3.65379,7.4427 -0.87047,11.90129 -0.87047,11.90129"
       id="path3094"
       inkscape:connector-curvature="0"
       sodipodi:nodetypes="cc" />
    <path
       style="fill:none;stroke:#000000;stroke-width:0.74331254px;stroke-linecap:butt;stroke-linejoin:miter;stroke-opacity:1"
       d="m 483.58118,366.26873 c 222.0826,44.9645 222.0826,44.9645 222.0826,44.9645"
       id="path3100"
       inkscape:connector-curvature="0" />
    <path
       style="fill:none;stroke:#000000;stroke-width:0.62784463px;stroke-linecap:butt;stroke-linejoin:miter;stroke-opacity:1"
       d="m 148.08132,319.28848 c 167.51542,7.05057 335.75045,46.90078 335.91335,46.93936"
       id="path3102"
       inkscape:connector-curvature="0"
       sodipodi:nodetypes="cc" />
    <path
       style="fill:none;stroke:#000000;stroke-width:0.56647003px;stroke-linecap:butt;stroke-linejoin:miter;stroke-opacity:1"
       d="m 47.30304,296.73494 c 102.21789,22.60267 102.21789,22.60267 102.21789,22.60267"
       id="path3104"
       inkscape:connector-curvature="0" />
    <path
       style="fill:none;stroke:#000000;stroke-width:0.82200599px;stroke-linecap:butt;stroke-linejoin:miter;stroke-opacity:1"
       d="m 705.91636,410.71197 c 8.44897,8.6736 -1.02875,12.56684 -1.09489,12.59399"
       id="path3106"
       inkscape:connector-curvature="0"
       sodipodi:nodetypes="cc" />
    <path
       style="fill:#808080;stroke:#000000;stroke-width:0.61992991px;stroke-linecap:butt;stroke-linejoin:miter;stroke-opacity:1"
       d="m 40.625643,304.60386 c -8.068121,33.7773 3.827049,45.0583 2.574005,44.48694"
       id="path3114"
       inkscape:connector-curvature="0"
       sodipodi:nodetypes="cc" />
    <path
       style="fill:none;stroke:#000000;stroke-width:0.55439109px;stroke-linecap:butt;stroke-linejoin:miter;stroke-opacity:1"
       d="m 478.81895,426.66736 c -1.37058,29.28971 -1.37058,29.28971 -1.37058,29.28971"
       id="path3118"
       inkscape:connector-curvature="0"
       inkscape:transform-center-x="0.97858252"
       inkscape:transform-center-y="5.2622715" />
    <path
       style="fill:none;stroke:#000000;stroke-width:0.55568784px;stroke-linecap:butt;stroke-linejoin:miter;stroke-opacity:1"
       d="m 452.23471,419.70053 c -1.3693,29.45429 -1.3693,29.45429 -1.3693,29.45429"
       id="path3118-8"
       inkscape:connector-curvature="0"
       inkscape:transform-center-x="0.9776747"
       inkscape:transform-center-y="5.2918415" />
    <path
       style="fill:none;stroke:#000000;stroke-width:0.55697984px;stroke-linecap:butt;stroke-linejoin:miter;stroke-opacity:1"
       d="m 465.68601,422.68726 c -1.36802,29.61885 -1.36802,29.61885 -1.36802,29.61885"
       id="path3118-7"
       inkscape:connector-curvature="0"
       inkscape:transform-center-x="0.97676758"
       inkscape:transform-center-y="5.3214072" />
    <path
       style="fill:none;stroke:#000000;stroke-width:0.55308932px;stroke-linecap:butt;stroke-linejoin:miter;stroke-opacity:1"
       d="m 439.7449,417.04493 c -1.37186,29.12515 -1.37186,29.12515 -1.37186,29.12515"
       id="path3118-9"
       inkscape:connector-curvature="0"
       inkscape:transform-center-x="0.97949579"
       inkscape:transform-center-y="5.2327024" />
    <path
       style="fill:none;stroke:#000000;stroke-width:0.55954927px;stroke-linecap:butt;stroke-linejoin:miter;stroke-opacity:1"
       d="m 425.00865,412.40323 c -1.36551,29.94803 -1.36551,29.94803 -1.36551,29.94803"
       id="path3118-2"
       inkscape:connector-curvature="0"
       inkscape:transform-center-x="0.97495942"
       inkscape:transform-center-y="5.3805503" />
    <path
       style="fill:none;stroke:#000000;stroke-width:0.55670255px;stroke-linecap:butt;stroke-linejoin:miter;stroke-opacity:1"
       d="m 410.27697,408.75215 c -2.09804,32.9592 -1.40526,29.81728 -1.36578,29.63823"
       id="path3118-77"
       inkscape:connector-curvature="0"
       inkscape:transform-center-x="0.97515126"
       inkscape:transform-center-y="5.3248901"
       sodipodi:nodetypes="cc" />
    <path
       style="fill:none;stroke:#000000;stroke-width:0.55568784px;stroke-linecap:butt;stroke-linejoin:miter;stroke-opacity:1"
       d="m 394.90381,405.102 c -1.36929,29.45428 -1.36929,29.45428 -1.36929,29.45428"
       id="path3118-27"
       inkscape:connector-curvature="0"
       inkscape:transform-center-x="0.97767192"
       inkscape:transform-center-y="5.2918454" />
    <path
       style="fill:none;stroke:#000000;stroke-width:0.55568784px;stroke-linecap:butt;stroke-linejoin:miter;stroke-opacity:1"
       d="m 380.49102,401.78415 c -1.3693,29.45429 -1.3693,29.45429 -1.3693,29.45429"
       id="path3118-0"
       inkscape:connector-curvature="0"
       inkscape:transform-center-x="0.97767399"
       inkscape:transform-center-y="5.2918477" />
    <path
       style="fill:none;stroke:#000000;stroke-width:0.54383552px;stroke-linecap:butt;stroke-linejoin:miter;stroke-opacity:1"
       d="m 364.80291,399.12384 c -1.38095,27.97332 -1.38095,27.97332 -1.38095,27.97332"
       id="path3118-4"
       inkscape:connector-curvature="0"
       inkscape:transform-center-x="0.98599031"
       inkscape:transform-center-y="5.0257729" />
    <path
       style="fill:none;stroke:#000000;stroke-width:0.67307454px;stroke-linecap:butt;stroke-linejoin:miter;stroke-opacity:1"
       d="m 447.60344,406.53829 c 255.94229,16.64564 257.71963,16.64564 257.71963,16.64564"
       id="path3199"
       inkscape:connector-curvature="0" />
    <path
       style="fill:none;stroke:#000000;stroke-width:0.53569835px;stroke-linecap:butt;stroke-linejoin:miter;stroke-opacity:1"
       d="m 351.35498,396.63131 c -1.38895,26.98625 -1.38895,26.98625 -1.38895,26.98625"
       id="path3118-4-5"
       inkscape:connector-curvature="0"
       inkscape:transform-center-x="0.99168914"
       inkscape:transform-center-y="4.8484289" />
    <path
       style="fill:none;stroke:#000000;stroke-width:0.64541519px;stroke-linecap:butt;stroke-linejoin:miter;stroke-opacity:1"
       d="m 47.030966,297.31755 c -5.765117,8.62642 -5.765117,8.62642 -5.765117,8.62642"
       id="path3219"
       inkscape:connector-curvature="0" />
    <path
       style="fill:#b3b3b3"
       d="m 497.8043,458.97185 -19.02391,-4.9947 0.26153,-15.01487 0.26152,-15.01487 -1.73653,14.04036 c -0.9551,7.7222 -2.05395,14.36917 -2.44191,14.77106 -0.38795,0.40188 -2.79904,0.18635 -5.35795,-0.47896 -4.62249,-1.20182 -4.64666,-1.30953 -3.73657,-16.64792 0.60128,-10.13361 0.36536,-13.82602 -0.68661,-10.74612 -0.88143,2.58069 -1.68388,9.47548 -1.7832,15.32178 l -0.1806,10.62962 -4.98246,-1.3724 c -4.78371,-1.31765 -5.02339,-1.96624 -6.00905,-16.2602 l -1.02661,-14.88779 -0.33224,14.54564 c -0.18275,8.00012 -0.94373,14.53413 -1.6911,14.52003 -0.74738,-0.0141 -3.29107,-0.56137 -5.65268,-1.21618 -4.14943,-1.15052 -4.26613,-1.68616 -3.47027,-15.92767 0.45295,-8.10542 0.14306,-14.73712 -0.68864,-14.73712 -0.8317,0 -1.51218,6.3344 -1.51218,14.07644 0,14.73879 -0.30625,15.19762 -8.60606,12.89349 -3.76398,-1.04493 -4.10376,-2.3022 -4.43141,-16.39689 l -0.35486,-15.26518 -0.64331,13.13801 c -0.35382,7.22591 -1.29916,13.8182 -2.10077,14.64954 -0.80162,0.83136 -3.61368,0.95094 -6.24905,0.26575 -4.66048,-1.2117 -4.79883,-1.6638 -5.05727,-16.52641 l -0.2657,-15.28061 -1.20658,13.56833 c -0.66363,7.46258 -1.70873,14.0885 -2.32246,14.72426 -0.61371,0.63576 -3.69769,0.5685 -6.85329,-0.14947 l -5.73743,-1.3054 1.18275,-15.29573 c 0.83843,-10.84296 0.63299,-14.47615 -0.70568,-12.48042 -1.03864,1.5484 -1.90093,8.09395 -1.91619,14.54566 -0.029,12.26937 -0.47865,12.8107 -8.7375,10.51931 -4.04344,-1.12184 -4.14669,-1.65854 -3.15437,-16.39688 0.68366,-10.15405 0.45854,-13.98487 -0.67485,-11.48338 -0.9354,2.06454 -1.75805,8.61009 -1.82807,14.54566 -0.13244,11.23034 -0.68873,11.84229 -8.73341,9.60898 -3.74858,-1.04065 -4.095,-2.28431 -4.30575,-15.45846 l -0.22917,-14.32675 -1.61066,13.01065 c -0.88586,7.15585 -1.96773,13.38054 -2.40415,13.83262 -0.43641,0.4521 -2.96189,0.25821 -5.61217,-0.43086 l -4.8187,-1.25284 1.2923,-14.45665 c 0.71077,-7.95115 0.59911,-13.75562 -0.24813,-12.8988 -0.84724,0.8568 -1.94809,7.2361 -2.44635,14.17622 l -0.9059,12.61838 -152.19134,-37.7371 -152.19134,-37.7371 -1.171627,-19.60688 c -0.644395,-10.78378 -0.949949,-19.85341 -0.679008,-20.15473 0.27094,-0.30131 108.419185,26.53024 240.329455,59.62568 l 239.83684,60.17351 86.96647,13.13891 c 47.83157,7.2264 88.85386,13.57472 91.16064,14.10738 3.09145,0.71384 4.04417,2.06137 3.62361,5.12507 l -0.57052,4.1566 -93.30783,0.30255 -93.30778,0.30257 -19.02392,-4.99472 z"
       id="path3245"
       inkscape:connector-curvature="0" />
    <path
       style="fill:#999999"
       d=""
       id="path3247"
       inkscape:connector-curvature="0" />
    <path
       style="fill:#ffffff;stroke:#000000;stroke-width:0.64541519px;stroke-linecap:butt;stroke-linejoin:miter;stroke-opacity:1"
       d="m 147.89682,321.17428 c -1.81181,10.32273 -1.81181,10.32273 -1.81181,10.32273 l 0,0 -0.9059,0.93843"
       id="path3251"
       inkscape:connector-curvature="0" />
    <path
       style="fill:#cccccc"
       d="m 508.5066,461.78395 c 0,-0.78337 -6.48553,-2.95877 -14.41229,-4.8342 l -14.41228,-3.40988 -0.56311,-10.50436 c -0.49298,-9.19641 -0.74298,-9.80327 -2.00762,-4.87378 -0.79448,3.09681 -1.81653,7.53089 -2.27124,9.85351 -0.4547,2.3226 -1.42268,4.21 -2.15106,4.19419 -4.3035,-0.0934 -5.81637,-4.01923 -6.06149,-15.72921 -0.1665,-7.9565 -0.8561,-11.80755 -1.8319,-10.23099 -0.86066,1.39052 -1.44304,6.97241 -1.29419,12.4042 0.14893,5.4318 -0.0592,10.18974 -0.46256,10.57318 -0.40326,0.38344 -2.45463,0.0215 -4.55862,-0.80421 -3.08029,-1.20893 -4.1167,-3.81676 -5.32092,-13.38846 l -1.4955,-11.88709 -1.03054,10.64606 c -1.1565,11.94718 -1.92958,13.41175 -6.18632,11.71963 -2.38704,-0.94889 -2.97702,-3.91133 -2.97702,-14.94829 0,-17.71155 -2.99703,-19.85354 -3.92688,-2.80654 -0.79005,14.48381 -1.47166,15.95693 -6.60266,14.26994 -2.80275,-0.9215 -3.93022,-3.83832 -5.32594,-13.7786 -1.27623,-9.08929 -1.83921,-10.67882 -2.01654,-5.69359 -0.38384,10.79138 -3.04382,16.41698 -7.22671,15.28385 -2.9328,-0.79448 -3.80325,-3.31764 -4.96675,-14.3969 l -1.41072,-13.43357 -1.93223,12.19958 c -1.20961,7.63711 -2.77726,12.1294 -4.19173,12.0119 -9.05472,-0.75213 -8.63378,-0.0215 -7.99916,-13.88452 0.3918,-8.55867 -0.0822,-13.14224 -1.35885,-13.14224 -1.15363,0 -1.97189,4.05528 -1.98821,9.8535 -0.0338,11.97491 -1.7819,15.39502 -6.99327,13.6816 -3.23257,-1.06282 -3.88326,-2.82529 -4.05844,-10.99279 -0.11469,-5.34986 -0.0484,-11.29738 0.14748,-13.21669 0.22521,-2.20703 -0.41017,-2.99909 -1.72866,-2.15497 -1.16605,0.74656 -1.88077,4.77055 -1.62188,9.13165 0.60637,10.21463 -2.04381,15.18516 -7.19362,13.49199 -3.01384,-0.9909 -3.91772,-2.83412 -4.0164,-8.19041 -0.10653,-5.77897 -0.40751,-6.29654 -1.8369,-3.15802 -1.47247,3.23311 -1.61674,3.04576 -1.04027,-1.35084 0.36809,-2.80752 -0.0282,-4.65799 -0.88081,-4.11217 -0.85255,0.54582 -1.56255,2.84287 -1.57782,5.10456 -0.0406,6.01799 -2.33817,8.79296 -6.37838,7.70379 -3.1907,-0.86015 -3.49573,-2.33063 -2.94917,-14.21694 0.46053,-10.01529 0.0735,-12.91437 -1.58221,-11.85429 -1.49646,0.95808 -1.84823,4.44878 -1.10882,11.003 0.72794,6.4526 0.51328,8.67679 -0.6548,6.78446 -1.38745,-2.24771 -1.74339,-1.92181 -1.76554,1.61652 -0.0257,4.11969 -0.50624,4.33178 -6.82201,3.01153 -3.73683,-0.78116 -8.42488,-1.5086 -10.41785,-1.61652 -1.99299,-0.10795 -4.03127,-0.68942 -4.52951,-1.29218 -1.49507,-1.80864 -170.48513,-43.11929 -172.11642,-42.07489 -0.82891,0.53069 -1.78057,0.27544 -2.1148,-0.56723 -0.33423,-0.84267 -24.39121,-7.39348 -53.459942,-14.55735 L 44.971274,346.19564 43.718798,328.99828 c -0.688862,-9.45856 -0.95702,-17.97032 -0.595907,-18.91504 0.361113,-0.94471 59.358949,12.88542 131.106289,30.73363 71.74735,17.8482 131.4162,32.10836 132.59742,31.68926 1.18123,-0.41911 2.4042,-0.10149 2.7177,0.70585 0.75586,1.94649 108.17425,28.69927 110.1514,27.43345 0.84421,-0.54049 1.80839,-0.25413 2.14262,0.63635 1.37843,3.67249 101.25463,26.58889 144.33668,33.11778 24.02045,3.64018 44.3118,6.50927 45.09187,6.37573 0.78009,-0.13354 1.82598,-0.0519 2.32423,0.18119 0.49825,0.2332 20.46342,3.50042 44.36704,7.26048 35.02367,5.50926 43.56921,7.42062 44.0178,9.84532 0.46412,2.50868 -2.16924,3.22199 -15.84192,4.29121 -22.08239,1.72686 -177.62742,1.22812 -177.62742,-0.56954 z"
       id="path3255"
       inkscape:connector-curvature="0" />
    <path
       style="fill:#999999"
       d="m 92.318932,316.37707 c -25.120822,-6.39776 -46.134777,-12.10938 -46.697679,-12.6925 -0.562903,-0.58312 0.02651,-1.96289 1.309799,-3.06617 1.696332,-1.45838 15.556532,0.88741 50.774231,8.59337 46.216017,10.11251 48.440977,10.7958 48.440977,14.87653 0,3.23711 -0.99129,4.23388 -4.07655,4.09913 -2.24212,-0.0979 -24.62996,-5.41259 -49.750778,-11.81036 z"
       id="path3257"
       inkscape:connector-curvature="0" />
    <path
       style="fill:#999999"
       d="m 502.16529,458.57513 c -3.98596,-1.53056 -9.77486,-3.0322 -12.86424,-3.33699 -8.43722,-0.83241 -9.78327,-2.43771 -9.78327,-11.66738 0,-9.71737 -2.8813,-9.53972 -4.66098,0.28738 -0.64773,3.57675 -1.92246,6.50316 -2.83271,6.50316 -2.67599,0 -5.68174,-9.75464 -5.34955,-17.36094 0.16905,-3.87102 -0.43369,-7.03822 -1.33947,-7.03822 -0.90578,0 -1.6878,4.7173 -1.73782,10.48286 -0.05,5.76558 -0.52975,10.93744 -1.06608,11.49303 -2.48592,2.57519 -6.47686,-1.81313 -7.52114,-8.27001 -2.56711,-15.873 -3.82619,-17.25106 -5.23452,-5.72923 -2.26588,18.53765 -8.51895,11.05875 -8.6308,-10.32272 -0.0203,-3.87102 -0.66398,-7.03823 -1.43052,-7.03823 -1.52505,0 -3.62812,11.05499 -3.65971,19.23782 -0.0145,3.83974 -0.91491,5.16135 -3.5151,5.16135 -2.78667,0 -3.95046,-2.18756 -5.74133,-10.79193 l -2.24621,-10.79195 -2.51707,8.91509 c -1.38439,4.90329 -3.30247,8.91508 -4.26241,8.91508 -2.41864,0 -4.83062,-6.72763 -6.39245,-17.83017 l -1.32011,-9.38429 -2.57002,11.73037 c -2.01886,9.21471 -3.29051,11.73037 -5.92963,11.73037 -4.74395,0 -5.56705,-2.19362 -5.62616,-14.99388 -0.0287,-6.20519 -0.80148,-11.28214 -1.7174,-11.28214 -0.91592,0 -1.53908,0.63343 -1.38483,1.40764 0.15418,0.77421 -0.35845,5.84172 -1.13931,11.26115 -2.62501,18.21783 -11.02821,10.20474 -10.06013,-9.59308 0.23992,-4.90659 -0.29558,-6.8309 -1.65812,-5.95856 -1.10685,0.70864 -1.8448,3.96979 -1.63985,7.24701 0.43387,6.93801 -3.18853,14.95346 -6.28849,13.91482 -1.17816,-0.39473 -3.23859,-4.2467 -4.57876,-8.55992 -2.21986,-7.14438 -6.25967,-11.10975 -5.59931,-5.49613 0.51041,4.33882 -2.3305,10.79193 -4.75102,10.79193 -3.32501,0 -4.98804,-3.33493 -4.8146,-9.65477 0.19602,-7.14133 -2.63007,-6.85116 -4.17354,0.42854 -1.21313,5.7217 -1.33522,5.77749 -10.56181,4.82528 -5.13397,-0.52984 -10.96511,-1.44439 -12.95809,-2.03233 -25.76127,-7.59967 -43.89079,-12.16748 -45.63094,-11.49692 -1.18124,0.45518 -2.4042,0.23406 -2.7177,-0.49136 -0.79377,-1.83675 -34.0371,-9.98565 -35.89192,-8.79815 -0.8308,0.53189 -1.78399,0.28145 -2.11823,-0.55655 -0.51024,-1.27928 -32.71039,-9.66053 -41.37324,-10.76887 -1.49473,-0.19125 -3.94067,-0.86518 -5.4354,-1.49761 -3.51609,-1.4877 -19.489,-5.07973 -21.27491,-4.78437 -0.75493,0.12486 -1.78027,0.0563 -2.27852,-0.15253 -0.49824,-0.20876 -5.39011,-1.49431 -10.8708,-2.85678 -5.4807,-1.36246 -17.65218,-4.61974 -27.04773,-7.23838 -9.39555,-2.61864 -17.54865,-4.67737 -18.11801,-4.57496 -0.56936,0.10241 -2.25817,-0.33926 -3.75291,-0.9815 -6.51502,-2.79928 -40.1819,-10.70459 -41.632691,-9.77575 -0.880089,0.56345 -2.068428,0.23959 -2.640751,-0.7197 -0.572323,-0.95929 -4.250623,-2.30596 -8.173999,-2.99262 -10.158523,-1.7779 -11.549902,-4.42187 -11.122844,-21.13621 0.203026,-7.94607 0.645225,-14.73341 0.982664,-15.08297 0.33744,-0.34956 17.615115,3.35309 38.394831,8.22811 20.77972,4.87502 39.81958,8.94066 42.31081,9.03477 2.49123,0.0941 4.93716,0.68043 5.43541,1.30292 1.41506,1.76796 41.86567,11.16497 43.51513,10.10893 0.80873,-0.51777 1.74388,-0.28791 2.07812,0.51079 0.59459,1.42091 33.306,10.22327 40.46732,10.88943 1.99299,0.1854 4.84657,0.85286 6.34131,1.48326 5.33813,2.25134 33.33258,8.60043 34.15674,7.74668 0.46199,-0.47858 1.84833,-0.003 3.08073,1.05628 1.23241,1.05953 2.93805,1.7627 3.79031,1.5626 0.85225,-0.2001 2.77252,0.16198 4.26727,0.80463 1.49473,0.64264 12.50143,3.31873 24.45932,5.94689 22.06119,4.84869 23.26145,5.15675 28.08292,7.20769 6.21343,2.64304 47.62374,12.63911 48.51874,11.71197 0.53482,-0.55403 2.08626,-0.0497 3.44766,1.1207 1.36136,1.17041 2.99198,1.59271 3.62359,0.93843 0.63159,-0.65428 2.03869,-0.47424 3.12686,0.40009 2.52142,2.0259 14.78761,5.10669 30.89729,7.76019 6.93692,1.14261 13.6275,2.95004 14.86799,4.01653 1.24051,1.06648 3.03684,1.43879 3.99185,0.82735 0.95505,-0.61144 2.00989,-0.39257 2.34413,0.48638 0.56545,1.48696 42.7967,12.48912 54.96175,14.31872 2.98947,0.44961 7.47368,1.31035 9.96491,1.91275 2.49123,0.6024 6.56778,1.47764 9.05901,1.94497 2.49123,0.46732 8.1984,1.62979 12.68261,2.58326 4.48421,0.95346 11.0067,2.28041 14.49441,2.94877 3.48772,0.66835 7.97193,1.5539 9.96491,1.96788 18.97,3.94045 36.12901,6.79763 44.38915,7.39133 5.48069,0.39393 11.18786,1.13556 12.68261,1.64806 1.49473,0.51249 3.94066,0.96406 5.4354,1.00348 3.95225,0.10422 13.96819,1.6297 25.36523,3.86322 5.48069,1.07408 13.63381,2.39323 18.11801,2.93145 13.86616,1.66429 46.9724,8.15586 49.34697,9.6761 5.25079,3.36173 -11.16463,4.0464 -98.26561,4.09861 -76.48393,0.0458 -92.68506,-0.40175 -98.7432,-2.728 l 0,0 z M 352.69165,400.31174 c 0,-5.50964 -2.18903,-4.57841 -3.05498,1.29961 -0.30024,2.03794 0.26431,3.70535 1.25454,3.70535 0.99024,0 1.80044,-2.25224 1.80044,-5.00496 z"
       id="path3259"
       inkscape:connector-curvature="0" />
    <path
       style="fill:#999999"
       d="M 571.91966,413.5302 447.81125,405.31015 301.0553,368.59721 C 220.33954,348.4051 152.87257,331.45792 151.12871,330.93683 c -3.44087,-1.02819 -4.32466,-7.24157 -1.30503,-9.17481 3.76688,-2.41166 87.76627,4.71781 144.89032,12.29759 52.63866,6.98461 130.68446,20.52555 173.93296,30.17733 9.46667,2.11268 66.40141,13.80937 126.52165,25.99265 60.12023,12.18327 110.16625,23.03893 111.21339,24.12367 3.25608,3.37299 0.11999,7.87313 -5.31464,7.62608 -2.7716,-0.12601 -60.88807,-3.92812 -129.1477,-8.44914 z"
       id="path3280"
       inkscape:connector-curvature="0" />
    <path
       style="fill:#999999"
       d=""
       id="path3282"
       inkscape:connector-curvature="0" />
    <path
       style="fill:#b3b3b3"
       d="m 509.22509,458.9938 c -7.89262,-1.14868 -26.75573,-5.99348 -27.88333,-7.16156 -0.40245,-0.41688 -0.99459,-4.04195 -1.3159,-8.05571 -0.72329,-9.03489 -3.15267,-9.60892 -5.40461,-1.27704 -0.89499,3.31139 -2.26706,5.80469 -3.04906,5.54067 -2.15534,-0.7277 -4.47121,-8.80346 -4.55233,-15.87456 -0.0714,-6.21802 -1.6224,-8.29629 -3.13808,-4.20467 -0.4277,1.1546 -0.77763,4.98762 -0.77763,8.51787 0,7.63067 -0.9294,10.61711 -3.30412,10.61711 -1.57439,0 -3.83541,-6.39522 -6.217,-17.5846 -1.23634,-5.80866 -2.83809,-4.27518 -4.46118,4.27103 -2.64999,13.95334 -5.48147,11.19071 -7.09792,-6.92531 -0.86729,-9.72006 -1.98077,-12.17836 -3.99041,-8.80993 -0.48414,0.81147 -1.32216,5.64567 -1.86228,10.74264 -1.6423,15.49821 -5.73797,15.35148 -8.94854,-0.32059 -0.90066,-4.39656 -2.03106,-8.24565 -2.51199,-8.55356 -0.48094,-0.30791 -1.90379,2.99993 -3.16188,7.35074 -1.2581,4.35081 -2.77112,8.22022 -3.36226,8.59869 -1.75185,1.12158 -3.78571,-4.13506 -5.78219,-14.9444 -1.03102,-5.5821 -2.08712,-10.36947 -2.34691,-10.63858 -0.25979,-0.26912 -1.18714,2.67829 -2.06078,6.54981 -2.31074,10.23999 -4.70643,15.66553 -6.91725,15.66553 -3.03654,0 -4.59443,-4.4337 -4.59443,-13.07561 0,-8.33966 -0.82684,-12.14004 -2.6413,-12.14004 -0.99355,0 -1.42522,1.89335 -3.2002,14.03618 -0.32822,2.24544 -1.41662,5.23151 -2.41865,6.6357 -1.7293,2.42336 -1.92372,2.30238 -3.82711,-2.38109 -1.10288,-2.71379 -2.00525,-8.50136 -2.00525,-12.86129 0,-4.35993 -0.57759,-8.29693 -1.28353,-8.74889 -1.59005,-1.01799 -3.84102,4.83007 -3.84102,9.97902 0,4.82472 -2.562,10.80095 -4.38445,10.22741 -0.75937,-0.23898 -2.96044,-3.83772 -4.89125,-7.99721 -1.93083,-4.15949 -4.03107,-7.5627 -4.6672,-7.5627 -1.35891,0 -2.71189,3.23819 -2.71189,6.49059 0,1.26064 -0.82596,3.45134 -1.83545,4.86822 -2.51102,3.52434 -4.80511,1.03683 -5.76186,-6.24764 -0.96227,-7.32658 -3.04126,-7.76475 -5.54265,-1.1682 -2.31682,6.10982 -2.85505,6.21906 -16.96676,3.44355 -10.06613,-1.97982 -48.04537,-11.65133 -60.98293,-15.52946 -4.65096,-1.39415 -13.87515,-3.63984 -20.49819,-4.99041 -6.62304,-1.35057 -17.80702,-3.96996 -24.85327,-5.82086 -19.92997,-5.23521 -45.5944,-11.4139 -51.24549,-12.33732 -2.81851,-0.46055 -23.86119,-5.8066 -46.76152,-11.88009 -22.90032,-6.0735 -45.384285,-11.72669 -49.96435,-12.56264 -13.189473,-2.40737 -26.066396,-6.74962 -28.505305,-9.61233 -1.82835,-2.14607 -2.24199,-5.17541 -2.24199,-16.41953 0,-8.1327 0.515679,-13.78793 1.25727,-13.78793 2.608498,0 86.997675,18.73479 98.030865,21.76331 6.34163,1.74073 16.43059,4.1058 22.41991,5.25571 5.98932,1.14992 18.09606,4.12429 26.90388,6.60971 8.80782,2.48543 21.77934,5.86269 28.82559,7.505 58.28621,13.58526 89.6922,21.29223 99.9287,24.52232 5.63701,1.77875 18.32027,5.04693 28.18502,7.26265 9.86476,2.2157 19.85275,4.68663 22.19554,5.49095 2.34278,0.80431 4.5778,1.13278 4.96669,0.72992 0.3889,-0.40286 2.2194,0.0752 4.06778,1.06241 1.84838,0.98719 11.14361,3.38234 20.65606,5.32257 9.51243,1.94022 18.81776,4.14019 20.6785,4.88883 1.86072,0.74863 4.74329,1.58477 6.40568,1.85809 1.66239,0.27333 9.07591,2.33757 16.47448,4.5872 23.8305,7.24598 108.85207,24.4061 144.76851,29.21899 27.11009,3.63283 96.44542,15.41042 103.13157,17.51838 l 5.12454,1.61564 -7.68681,0.90637 c -10.59613,1.2494 -173.8471,1.08929 -182.56208,-0.17906 l 0,0 z M 352.92634,400.64602 c 0,-4.2544 -1.78179,-5.3483 -3.06578,-1.88216 -1.31749,3.5566 -0.86736,5.86358 1.14407,5.86358 1.28114,0 1.92171,-1.32714 1.92171,-3.98142 z"
       id="path3284"
       inkscape:connector-curvature="0" />
    <path
       style="fill:#999999"
       d="m 653.9936,418.41855 c -25.01421,-1.70661 -81.61662,-5.51063 -125.78314,-8.45341 L 447.90769,404.61465 347.5701,379.49307 C 177.00525,336.78863 151.63432,330.36602 150.41029,329.58235 c -0.65163,-0.41718 -1.18478,-2.30986 -1.18478,-4.20595 l 0,-3.44744 20.17792,0.84401 c 72.5392,3.03418 182.48283,18.4427 295.96511,41.4793 23.44111,4.75848 43.13739,8.32067 43.76952,7.91596 0.63213,-0.4047 1.34268,-0.24215 1.57903,0.3612 0.23635,0.60336 33.00262,7.81559 72.81396,16.02717 110.4686,22.78547 122.9892,25.71359 122.9892,28.76267 0,1.53591 -5.71295,5.21197 -6.80936,4.38159 -0.13032,-0.0987 -20.7031,-1.57571 -45.71729,-3.28231 z"
       id="path3286"
       inkscape:connector-curvature="0" />
    <path
       style="fill:#ffffff;stroke:#000000;stroke-width:0.64541519px;stroke-linecap:butt;stroke-linejoin:miter;stroke-opacity:1"
       d="m 627.38615,396.18947 c 2.56227,23.88852 2.56227,23.88852 2.56227,23.88852 l 0,0"
       id="path3644"
       inkscape:connector-curvature="0" />
    <path
       style="fill:#cccccc"
       d="m 661.48309,417.5646 -29.65118,-2.00584 -0.76172,-4.77006 c -1.32938,-8.32476 -0.94194,-13.39647 1.02336,-13.39647 2.22536,0 47.67368,9.59743 63.14716,13.33494 12.52383,3.02502 14.38538,4.14319 11.95285,7.17948 -1.96092,2.44759 -4.78515,2.42645 -45.71047,-0.34205 l 0,0 z"
       id="path3646"
       inkscape:connector-curvature="0" />
  </g>
</svg>
