<?xml version="1.0" encoding="UTF-8" standalone="no"?>
<!-- Created with Inkscape (http://www.inkscape.org/) -->

<svg
   xmlns:dc="http://purl.org/dc/elements/1.1/"
   xmlns:cc="http://creativecommons.org/ns#"
   xmlns:rdf="http://www.w3.org/1999/02/22-rdf-syntax-ns#"
   xmlns:svg="http://www.w3.org/2000/svg"
   xmlns="http://www.w3.org/2000/svg"
   xmlns:sodipodi="http://sodipodi.sourceforge.net/DTD/sodipodi-0.dtd"
   xmlns:inkscape="http://www.inkscape.org/namespaces/inkscape"
   width="744.09448819"
   height="1052.3622047"
   id="svg3089"
   version="1.1"
   inkscape:version="0.48.4 r9939"
   sodipodi:docname="ALCOHOL.svg">
  <defs
     id="defs3091">
    <inkscape:perspective
       sodipodi:type="inkscape:persp3d"
       inkscape:vp_x="0 : 526.18109 : 1"
       inkscape:vp_y="0 : 1000 : 0"
       inkscape:vp_z="744.09448 : 526.18109 : 1"
       inkscape:persp3d-origin="372.04724 : 350.78739 : 1"
       id="perspective3897" />
  </defs>
  <sodipodi:namedview
     id="base"
     pagecolor="#ffffff"
     bordercolor="#666666"
     borderopacity="1.0"
     inkscape:pageopacity="0.0"
     inkscape:pageshadow="2"
     inkscape:zoom="0.5"
     inkscape:cx="347.6874"
     inkscape:cy="578.33398"
     inkscape:document-units="px"
     inkscape:current-layer="layer1"
     showgrid="false"
     inkscape:window-width="1303"
     inkscape:window-height="744"
     inkscape:window-x="63"
     inkscape:window-y="24"
     inkscape:window-maximized="1" />
  <metadata
     id="metadata3094">
    <rdf:RDF>
      <cc:Work
         rdf:about="">
        <dc:format>image/svg+xml</dc:format>
        <dc:type
           rdf:resource="http://purl.org/dc/dcmitype/StillImage" />
        <dc:title></dc:title>
      </cc:Work>
    </rdf:RDF>
  </metadata>
  <g
     inkscape:label="Layer 1"
     inkscape:groupmode="layer"
     id="layer1">
    <rect
       style="fill:#ffffff;stroke:#834b4b;stroke-width:1.05389953;stroke-opacity:1"
       id="rect3119"
       width="83.788765"
       height="128.66441"
       x="357.62094"
       y="193.80009"
       rx="2.0436285"
       ry="128.66441" />
    <path
       style="fill:none;stroke:#000000;stroke-width:1.42539144px;stroke-linecap:butt;stroke-linejoin:miter;stroke-opacity:1"
       d="m 332.03293,124.15802 48.0768,122.89989"
       id="path3121"
       inkscape:connector-curvature="0" />
    <path
       style="fill:none;stroke:#000000;stroke-width:1.12803066px;stroke-linecap:butt;stroke-linejoin:miter;stroke-opacity:1"
       d="m 333.73259,124.92296 129.3607,-1.65566"
       id="path3125"
       inkscape:connector-curvature="0" />
    <path
       style="fill:none;stroke:#000000;stroke-width:1.48504686px;stroke-linecap:butt;stroke-linejoin:miter;stroke-opacity:1"
       d="M 462.91242,123.26436 424.00151,246.523"
       id="path3129"
       inkscape:connector-curvature="0" />
    <path
       style="fill:none;stroke:#000000;stroke-width:0.90472049px;stroke-linecap:butt;stroke-linejoin:miter;stroke-opacity:1"
       d="m 380.52733,247.0657 45.04707,-0.85289"
       id="path3141"
       inkscape:connector-curvature="0" />
    <path
       style="fill:none;stroke:#000000;stroke-width:1px;stroke-linecap:butt;stroke-linejoin:miter;stroke-opacity:1"
       d="m 440,196.6479 52.14286,-5"
       id="path3929"
       inkscape:connector-curvature="0" />
    <path
       style="fill:none;stroke:#000000;stroke-width:1px;stroke-linecap:butt;stroke-linejoin:miter;stroke-opacity:1"
       d="m 447.14286,173.07647 45,17.85714"
       id="path3931"
       inkscape:connector-curvature="0" />
    <rect
       style="fill:#ffffff;stroke:#834b4b;stroke-width:1.06921148;stroke-opacity:1"
       id="rect3937"
       width="294.21655"
       height="119.93044"
       x="256.03461"
       y="539.39679"
       rx="0"
       ry="46.55191" />
    <text
       xml:space="preserve"
       style="font-size:54.65183640000000054px;font-style:normal;font-weight:normal;line-height:125%;letter-spacing:0px;word-spacing:0px;fill:#280b0b;fill-opacity:1;stroke:none;font-family:Sans"
       x="306.63452"
       y="512.12396"
       id="text4001"
       sodipodi:linespacing="125%"
       transform="scale(0.86095988,1.1614943)"><tspan
         sodipodi:role="line"
         x="306.63452"
         y="512.12396"
         id="tspan4007"> GLYCERINE</tspan></text>
    <path
       style="fill:#e6e6e6;stroke:#834b4b;stroke-width:0.71116346;stroke-opacity:1"
       d="m 327.45869,821.29452 c -43.89563,-7.64849 -80.28964,-39.21648 -94.69608,-82.13896 -3.48274,-10.37644 -5.29398,-19.97024 -6.16171,-32.6374 -0.79516,-11.60767 0.40782,-286.57054 0.11966,-285.45712 -12.14543,46.92848 328.90494,15.59929 344.89964,-2.89652 0.24139,-0.27913 2.96694,66.37749 2.96694,146.92492 0,120.44089 -0.17128,147.53269 -0.96446,152.54696 -7.76214,49.07087 -41.25728,87.52369 -87.87487,100.8814 -13.38722,3.83595 -13.13455,3.82487 -85.66649,3.75914 -51.38788,-0.0466 -68.58693,-0.27923 -72.62263,-0.98242 z"
       id="path4063"
       inkscape:connector-curvature="0"
       sodipodi:nodetypes="ssssssssss" />
    <path
       style="fill:#0000ff;stroke:#834b4b;stroke-width:0.25;stroke-opacity:1"
       d=""
       id="path4089"
       inkscape:connector-curvature="0" />
    <path
       style="fill:#0000ff;stroke:#834b4b;stroke-width:0.08838835;stroke-opacity:1"
       d=""
       id="path4099"
       inkscape:connector-curvature="0" />
    <path
       style="fill:#0000ff;stroke:#834b4b;stroke-width:0.02209709;stroke-opacity:1"
       d="m 556.42941,430.86291 c 0.007,-0.007 0.0264,-0.008 0.0424,-0.002 0.0176,0.007 0.0124,0.0123 -0.0134,0.0134 -0.0233,9.6e-4 -0.0363,-0.004 -0.029,-0.0116 z"
       id="path4115"
       inkscape:connector-curvature="0" />
    <path
       style="fill:#0000ff;stroke:#834b4b;stroke-width:0.02209709;stroke-opacity:1"
       d=""
       id="path4117"
       inkscape:connector-curvature="0" />
    <path
       style="fill:#0000ff;stroke:#834b4b;stroke-width:0.02209709;stroke-opacity:1"
       d="m 556.25217,430.79414 c 0.0334,-0.005 0.0881,-0.005 0.12153,0 0.0334,0.005 0.006,0.009 -0.0608,0.009 -0.0669,0 -0.0942,-0.004 -0.0608,-0.009 z"
       id="path4119"
       inkscape:connector-curvature="0" />
    <path
       style="fill:#0000ff;stroke:#834b4b;stroke-width:0.02209709;stroke-opacity:1"
       d="m 555.90966,430.81743 c 0.0152,-0.006 0.0401,-0.006 0.0553,0 0.0152,0.006 0.003,0.0111 -0.0276,0.0111 -0.0304,0 -0.0428,-0.005 -0.0276,-0.0111 z"
       id="path4121"
       inkscape:connector-curvature="0" />
    <path
       style="fill:#0000ff;stroke:#834b4b;stroke-width:0.02209709;stroke-opacity:1"
       d="m 555.6445,430.81743 c 0.0152,-0.006 0.04,-0.006 0.0552,0 0.0152,0.006 0.003,0.0111 -0.0276,0.0111 -0.0304,0 -0.0428,-0.005 -0.0276,-0.0111 z"
       id="path4123"
       inkscape:connector-curvature="0" />
    <path
       style="fill:#0000ff;stroke:#834b4b;stroke-width:0.02209709;stroke-opacity:1"
       d="m 555.46772,430.81743 c 0.0152,-0.006 0.0401,-0.006 0.0553,0 0.0152,0.006 0.003,0.0111 -0.0276,0.0111 -0.0304,0 -0.0428,-0.005 -0.0276,-0.0111 z"
       id="path4125"
       inkscape:connector-curvature="0" />
    <path
       style="fill:#0000ff;stroke:#834b4b;stroke-width:0.02209709;stroke-opacity:1"
       d="m 544.85053,429.4045 c 0.007,-0.007 0.0264,-0.008 0.0424,-0.002 0.0176,0.007 0.0124,0.0123 -0.0133,0.0134 -0.0233,9.6e-4 -0.0363,-0.004 -0.029,-0.0116 z"
       id="path4131"
       inkscape:connector-curvature="0" />
    <path
       style="fill:#b3b3b3;stroke:#834b4b;stroke-width:0.3000001;stroke-miterlimit:4;stroke-opacity:1;stroke-dasharray:none"
       d="m 369.90089,457.79723 c -36.34153,-0.99703 -77.31187,-5.35205 -102.33755,-10.87818 -24.64328,-5.44169 -41.66245,-14.7092 -41.66245,-22.68659 0,-2.93708 11.62042,-13.91661 19.20059,-18.14163 20.48073,-11.41551 51.83365,-19.35655 95.79941,-24.26397 22.13851,-2.47108 88.57606,-3.04306 112,-0.0151 89.54216,11.5749 105.00485,29.42466 106.69387,30.61103 l 10.80613,7.59028 -5.10424,7.26922 c -14.07389,20.04338 -68.41,27.41374 -143.39576,30.19524 -14.575,0.54065 -30.1,0.8924 -34.5,0.78168 -4.4,-0.11072 -12.275,-0.3186 -17.5,-0.46194 z"
       id="path4181"
       inkscape:connector-curvature="0"
       sodipodi:nodetypes="csssssscssscc" />
    <path
       style="fill:#ffffff;stroke:#834b4b;stroke-width:1;stroke-opacity:1"
       d="m 566.40089,415.89782 c -21.99311,-18.55064 -65.81571,-30.79077 -124.82955,-34.86623 -22.13926,-1.52893 -70.57241,-1.29974 -90.67045,0.42905 -29.82232,2.56525 -52.46009,6.33896 -72.78106,12.13259 -20.47112,5.83644 -31.92315,11.08178 -42.21894,19.33741 -3.48553,2.79486 -8.09363,8.08228 -8.3091,7.09966 -0.44442,-2.02672 8.20345,-22.90389 11.8905,-30.27987 8.27646,-16.55709 23.62341,-34.53642 38.4186,-45.00831 13.31162,-9.42183 32.62072,-17.59342 49,-20.73675 4.27733,-0.82085 26.09787,-1.05821 76,-0.8267 l 70,0.32475 9.5,2.66958 c 35.06347,9.85315 62.18528,31.92994 78.1448,63.60881 3.80784,7.5584 10.30684,26.38303 9.69979,28.09588 -0.18952,0.53476 -1.91959,-0.35618 -3.84459,-1.97987 z"
       id="path4183"
       inkscape:connector-curvature="0"
       sodipodi:nodetypes="sssssssssscssss" />
    <text
       xml:space="preserve"
       style="font-size:44.95901489px;font-style:normal;font-weight:normal;line-height:125%;letter-spacing:0px;word-spacing:0px;fill:#000000;fill-opacity:1;stroke:none;font-family:Sans"
       x="926.55701"
       y="620.91595"
       id="text4185"
       sodipodi:linespacing="125%"
       transform="scale(1.1688433,0.85554668)"><tspan
         sodipodi:role="line"
         x="926.55701"
         y="620.91595"
         id="tspan4191"
         style="fill:#000000" /></text>
    <text
       xml:space="preserve"
       style="font-size:40px;font-style:normal;font-weight:normal;line-height:125%;letter-spacing:0px;word-spacing:0px;fill:#000000;fill-opacity:1;stroke:none;font-family:Sans"
       x="510"
       y="353.36218"
       id="text4197"
       sodipodi:linespacing="125%"><tspan
         sodipodi:role="line"
         id="tspan4199"
         x="510"
         y="353.36218" /></text>
    <rect
       style="fill:#f9f9f9;stroke:#834b4b;stroke-width:0.9989869;stroke-opacity:1"
       id="rect3014"
       width="310.00113"
       height="135.72406"
       x="247.99945"
       y="-636.22418"
       ry="5.7757397"
       transform="scale(1,-1)" />
    <text
       xml:space="preserve"
       style="font-size:57.8683815px;font-style:normal;font-weight:normal;line-height:125%;letter-spacing:0px;word-spacing:0px;fill:#000000;fill-opacity:1;stroke:none;font-family:Sans"
       x="315.47473"
       y="500.9075"
       id="text3021"
       sodipodi:linespacing="125%"
       transform="matrix(0.85111592,-0.01762176,0,1.1749281,0,0)"><tspan
         sodipodi:role="line"
         x="315.47473"
         y="500.9075"
         id="tspan3100">GLYCERINE</tspan></text>
    <path
       style="fill:#e6e6e6;stroke:#060000;stroke-width:0.1;stroke-miterlimit:4;stroke-opacity:1;stroke-dasharray:none"
       d="m 559.64313,410.05065 c -17.1873,-11.67908 -48.55662,-20.58529 -87.3904,-25.70434 -30.43294,-4.01166 -110.38513,-5.49565 -140,-1.8521 -40.28109,4.95583 -87.27471,22.20793 -93.98717,27.16959 -17.24524,12.74721 -12.25124,18.75147 -2.32322,-10.03618 6.57323,-19.05999 31.66938,-49.55037 53.43149,-61.29372 25.88587,-13.96863 26.55323,-14.35046 107.91613,-15.19833 l 72.53723,1.23368 17.71758,4.73444 c 37.70745,10.07608 62.2956,34.94615 76.33782,69.50426 2.79714,6.88384 5.76106,16.84074 5.36424,17.23756 -0.39682,0.39681 -5.54348,-3.03587 -9.6037,-5.79486 z"
       id="path3835"
       inkscape:connector-curvature="0"
       sodipodi:nodetypes="ssssssscssss" />
    <path
       style="fill:#e6e6e6;stroke:#060000;stroke-width:0.1;stroke-miterlimit:4;stroke-opacity:1;stroke-dasharray:none"
       d="m 360.46106,320.58961 c -1.27505,4.18714 -2.58476,-24.49187 -2.06897,-59.25 0.29416,-19.82309 0.15022,-41.1875 1.5144,-63.66667 l 10.29124,26.5 9.54125,23.25 22.84471,-0.375 22.09471,-0.125 6.39796,-20.25 8.64795,-26.5 0.80472,55.625 c 0.40297,27.85465 -0.7993,57.15855 -0.80995,57.25 l -0.98968,8.5 -39.15498,-0.25 c -20.57232,-0.13135 -39.11299,0.45376 -39.11332,-0.58333 z"
       id="path3837"
       inkscape:connector-curvature="0"
       sodipodi:nodetypes="cscccccccsscssc" />
    <path
       style="fill:#e6e6e6;stroke:#060000;stroke-width:2;stroke-opacity:1"
       d=""
       id="path3839"
       inkscape:connector-curvature="0" />
    <path
       style="fill:#e6e6e6;stroke:#060000;stroke-width:0.1;stroke-miterlimit:4;stroke-opacity:1;stroke-dasharray:none"
       d="m 348.03791,159.95394 c -6.88261,-17.72046 -14.00516,-27.32305 -13.66728,-33.1192 0.0968,-1.66087 127.5032,-2.59613 127.49699,-1.50167 -0.004,0.62302 -6.87485,21.08045 -12.37132,38.48559 -5.49646,17.40515 -9.01077,26.45034 -9.74357,27.5 -1.17244,1.67941 -15.40924,1.9907 -37.10049,1.60428 l -42.1005,-0.75 z"
       id="path3841"
       inkscape:connector-curvature="0"
       sodipodi:nodetypes="sscssscs" />
    <path
       style="fill:#e6e6e6;stroke:#060000;stroke-width:2;stroke-opacity:1"
       d=""
       id="path3843"
       inkscape:connector-curvature="0" />
    <path
       style="fill:#e6e6e6;stroke:#060000;stroke-width:0.1;stroke-miterlimit:4;stroke-opacity:1;stroke-dasharray:none"
       d="m 380.26044,244.85492 c -0.96076,-2.475 -6.71071,-15.85738 -11.14693,-28.0052 l -8.64121,-22.41422 38.03909,0.35356 c 33.1691,0.30829 42.05671,-1.82112 41.03857,0.83209 -0.64143,1.67156 -5.31516,17.34803 -9.29883,28.55664 l -6.65772,21.57288 -15.9292,0.0344 c -24.29115,0.0524 -25.45072,4.10111 -27.40377,-0.93011 z"
       id="path3845"
       inkscape:connector-curvature="0"
       sodipodi:nodetypes="sscssscss" />
    <path
       style="fill:#e6e6e6;stroke:#060000;stroke-width:2;stroke-opacity:1"
       d=""
       id="path3847"
       inkscape:connector-curvature="0" />
    <path
       style="fill:#ececec;stroke:#060000;stroke-width:0.35355338;stroke-opacity:1"
       d=""
       id="path3859"
       inkscape:connector-curvature="0" />
    <path
       style="fill:#ececec;stroke:#060000;stroke-width:0.35355338;stroke-opacity:1"
       d=""
       id="path3861"
       inkscape:connector-curvature="0" />
    <path
       style="fill:#ececec;stroke:#060000;stroke-width:0.35355338;stroke-opacity:1"
       d=""
       id="path3863"
       inkscape:connector-curvature="0" />
    <path
       style="fill:#ececec;stroke:#060000;stroke-width:0.35355337999999997;stroke-opacity:1"
       d=""
       id="path3865"
       inkscape:connector-curvature="0" />
    <path
       style="fill:#ffffff;stroke:#060000;stroke-width:0.35355337999999997;stroke-opacity:1"
       d=""
       id="path3871"
       inkscape:connector-curvature="0" />
    <path
       style="fill:#ffffff;stroke:#060000;stroke-width:0.35355338;stroke-opacity:1"
       d=""
       id="path3875"
       inkscape:connector-curvature="0" />
    <path
       style="fill:#cccccc;stroke:#060000;stroke-width:0.03535534000000000;stroke-miterlimit:4;stroke-opacity:1;stroke-dasharray:none"
       d="m 441.47629,194.28704 c 0.25265,-0.82643 1.78385,-5.68099 3.40266,-10.78791 2.74673,-8.66519 2.99236,-9.2699 3.67798,-9.05467 2.21103,0.69407 42.01461,16.71448 41.57011,16.73142 -0.29168,0.0111 -11.24519,1.05375 -24.34113,2.31698 -13.09594,1.26323 -24.02639,2.29678 -24.28989,2.29678 -0.39998,0 -0.40324,-0.2481 -0.0197,-1.5026 z"
       id="path3899"
       inkscape:connector-curvature="0" />
    <flowRoot
       xml:space="preserve"
       id="flowRoot3029"
       style="fill:black;stroke:none;stroke-opacity:1;stroke-width:1px;stroke-linejoin:miter;stroke-linecap:butt;fill-opacity:1;font-family:Sans;font-style:normal;font-weight:normal;font-size:40px;line-height:125%;letter-spacing:0px;word-spacing:0px"><flowRegion
         id="flowRegion3031"><rect
           id="rect3033"
           width="44"
           height="64"
           x="273"
           y="533.36218" /></flowRegion><flowPara
         id="flowPara3035"></flowPara></flowRoot>    <path
       style="fill:#e3e2db"
       d="m 330.7874,820.40726 c -10.31843,-0.91518 -22.46391,-4.49835 -34,-10.03073 -36.40161,-17.45715 -62.00365,-52.21968 -67.94933,-92.2618 -1.34325,-9.04628 -1.55067,-28.99722 -1.55067,-149.15004 l 0,-138.70682 4.75,3.47573 c 14.81974,10.84412 44.75525,17.5146 102.75,22.89562 18.69121,1.73425 96.18213,1.73181 119,-0.004 70.35549,-5.35135 99.80754,-13.18882 112.65563,-29.97873 l 4.65562,-6.08398 0.59055,14.18272 c 0.3248,7.80045 0.86684,73.58267 1.20455,146.18267 0.66429,142.8117 0.82661,137.57513 -4.82024,155.5 -12.58777,39.95754 -43.19613,69.77014 -83.78611,81.60786 l -9.5,2.77059 -67.5,0.19942 c -37.125,0.10968 -71.55,-0.15978 -76.5,-0.59881 z m 225.63922,-190.89071 2.36078,-1.91164 0,-65.17671 0,-65.1767 -2.36078,-1.91165 c -2.30118,-1.86338 -6.18307,-1.91165 -153.75,-1.91165 -150.05589,0 -151.40684,0.0176 -153.38922,2 -1.95914,1.95914 -1.99969,3.32281 -1.98469,66.75 0.008,35.6125 0.34592,65.23846 0.75,65.83546 2.24811,3.32147 3.7195,3.35352 155.37391,3.38413 146.85255,0.0296 150.69856,-0.0176 153,-1.88124 l 0,0 z"
       id="path3037"
       inkscape:connector-curvature="0" />
    <path
       style="fill:#e3e2db"
       d="m 231.2874,414.00183 c 0,-2.00027 8.72125,-22.13354 11.94424,-27.57363 9.83314,-16.59739 28.0021,-35.87247 42.45166,-45.03611 8.77906,-5.56752 20.77648,-11.0898 28.24042,-12.99875 13.49456,-3.45133 30.22283,-4.1949 93.0651,-4.13677 l 60.20142,0.0557 11.42987,3.07099 c 15.30534,4.11225 21.04146,6.15177 30.87478,10.97778 19.8968,9.76497 36.84483,27.0072 48.24768,49.08522 4.38072,8.48189 11.07143,25.78868 10.27691,26.58319 -0.19506,0.19507 -3.70208,-1.74534 -7.79337,-4.31202 -17.62533,-11.05727 -38.98846,-17.86776 -74.43871,-23.7308 -26.29749,-4.34928 -38.479,-4.98674 -96,-5.02372 -52.33581,-0.0336 -54.40064,0.0374 -67,2.30661 -19.18453,3.45516 -42.74226,9.59578 -59.96407,15.63039 -16.66652,5.84004 -23.60317,9.0311 -28.39337,13.06179 -1.72841,1.45436 -3.14256,2.37242 -3.14256,2.04013 z"
       id="path3039"
       inkscape:connector-curvature="0" />
    <path
       style="fill:#e3e2db"
       d="m 394.17513,320.67882 -33.61226,-0.27689 -0.62904,-5.23687 c -0.83096,-6.91781 -0.82708,-86.06311 0.005,-101.53754 l 0.6514,-12.11469 9.20026,22.97602 c 5.06015,12.6368 9.37952,23.08026 9.5986,23.20768 0.21909,0.12742 10.60386,0.0885 23.07728,-0.0864 l 22.67894,-0.31805 6.8849,-21.18195 6.8849,-21.18195 0.75473,32.11092 c 0.70449,29.97313 0.23995,67.04896 -0.99155,79.13908 l -0.53477,5.25 -5.17805,-0.23624 c -2.84792,-0.12994 -20.30356,-0.36085 -38.79031,-0.51314 z"
       id="path3041"
       inkscape:connector-curvature="0" />
    <path
       style="fill:#e6e6e6"
       d="m 369.2874,191.67247 -8.5,-0.34447 -6.39801,-16.6999 c -3.51891,-9.18494 -9.25641,-22.89734 -12.75,-30.472 -3.4936,-7.57466 -6.35199,-14.3847 -6.35199,-15.13342 0,-0.74873 1.2375,-1.62618 2.75,-1.94989 1.5125,-0.32371 29.86017,-0.89951 62.99483,-1.27954 l 60.24483,-0.69099 -1.43234,4.41297 c -0.78778,2.42714 -4.78661,14.76297 -8.88629,27.41297 -11.22783,34.64477 -10.99843,34.12698 -15.4454,34.86211 -3.72338,0.61551 -50.16879,0.53286 -66.22563,-0.11784 z"
       id="path3043"
       inkscape:connector-curvature="0" />
    <path
       style="fill:#aca793"
       d="m 375.48971,231.31596 c -3.33798,-8.46327 -7.8419,-19.97929 -10.00872,-25.59117 l -3.93967,-10.2034 36.12304,-0.2966 c 19.86767,-0.16312 37.29219,-0.14304 38.72115,0.0446 l 2.59811,0.34121 -6.76475,20.74236 c -3.72061,11.40829 -7.26961,22.61725 -7.88665,24.90879 l -1.12191,4.16643 -12.71145,0.006 c -6.99131,0.003 -16.3629,0.29029 -20.82578,0.63776 l -8.11432,0.63176 -6.06905,-15.38776 0,0 z"
       id="path3045"
       inkscape:connector-curvature="0" />
    <path
       style="fill:#aca793"
       d="m 557.2874,407.87713 c -5.225,-2.98861 -9.8424,-5.43722 -10.2609,-5.44138 -0.41849,-0.004 -2.66849,-0.867 -5,-1.91744 -16.15799,-7.27983 -52.23604,-15.09397 -84.2391,-18.24531 -8.77443,-0.86402 -31.03992,-1.2891 -68.5,-1.30777 -61.87942,-0.0308 -58.82086,-0.28561 -91,7.58031 -26.35947,6.44335 -52.86736,15.7794 -61.26811,21.57858 -2.07247,1.43065 -4.06109,2.30822 -4.41916,1.95015 -1.26355,-1.26356 10.49075,-25.34649 16.44405,-33.69158 7.77708,-10.90159 19.78749,-23.76308 29.126,-31.18993 9.0778,-7.21951 28.9107,-17.03167 38.77809,-19.18514 11.54974,-2.52063 39.2435,-3.53976 96.74544,-3.56023 l 53.90632,-0.0192 13.76546,3.98777 c 32.25267,9.34339 51.41122,21.95615 66.85374,44.01223 7.75081,11.07025 19.66766,36.02287 18.87565,39.52363 -0.21483,0.94959 -3.17004,-0.27821 -9.80748,-4.0747 l 0,0 z"
       id="path3047"
       inkscape:connector-curvature="0" />
    <path
       style="fill:#e3e2db"
       d="m 391.191,320.67896 -30.5964,-0.27922 -0.64954,-12.73577 c -0.82824,-16.23931 -0.82548,-38.12609 0.009,-75.17098 l 0.66343,-29.43521 2.21581,4.93521 c 1.21869,2.71437 5.35008,12.58521 9.18085,21.93521 l 6.96505,17 23.03023,0.26813 23.03022,0.26813 6.25963,-18.76813 c 3.44279,-10.32247 6.63475,-19.44313 7.09324,-20.26813 0.47243,-0.85009 0.85623,5.86558 0.88581,15.5 0.17664,57.5283 0.0184,81.6658 -0.58424,89.09245 l -0.68218,8.40755 -8.11248,-0.23501 c -4.46186,-0.12925 -21.88086,-0.36065 -38.70888,-0.51423 l 0,0 z"
       id="path3049"
       inkscape:connector-curvature="0" />
    <path
       style="fill:#e3e2db"
       d="m 233.2874,410.83667 c 0,-1.52836 5.93608,-14.22634 10.24182,-21.90847 12.28156,-21.91226 30.94508,-40.63576 50.75818,-50.92132 21.96639,-11.4034 21.60954,-11.35751 98.5,-12.66685 34.65,-0.59004 66.15,-0.86949 70,-0.62099 8.46961,0.54666 33.07979,8.45423 46.08353,14.80722 16.25247,7.94017 29.96571,19.90255 39.62714,34.56768 7.67435,11.64893 18.95563,35.50129 17.48592,36.97101 -0.32569,0.32569 -4.77816,-1.64794 -9.89438,-4.38585 -16.73111,-8.95352 -33.59921,-14.22319 -62.80221,-19.61969 -31.97907,-5.90951 -34.57702,-6.0672 -100.5,-6.10045 -67.72512,-0.0342 -64.33315,-0.29238 -94,7.15617 -23.56663,5.91694 -42.34514,12.12944 -55.14394,18.2433 -5.69583,2.72084 -10.35606,4.73605 -10.35606,4.47824 z"
       id="path3051"
       inkscape:connector-curvature="0" />
    <path
       style="fill:#e3e2db"
       d="m 381.27685,244.28743 c -0.58696,-1.29758 -5.02973,-12.48423 -9.87282,-24.85923 l -8.80563,-22.5 4.0945,-0.67587 c 5.65497,-0.93347 70.37821,-1.00114 70.89279,-0.0741 0.22897,0.4125 -2.89447,11.0952 -6.94099,23.73934 -4.04651,12.64413 -7.3573,23.55663 -7.3573,24.25 0,0.96767 -4.24153,1.26384 -18.25,1.27432 -10.0375,0.008 -19.24975,0.28166 -20.47167,0.60922 -1.68891,0.45275 -2.4776,0.0298 -3.28888,-1.76365 l 0,0 z"
       id="path3053"
       inkscape:connector-curvature="0" />
    <path
       style="fill:#e3e2db"
       d="m 322.39201,818.88185 c -23.05263,-5.00081 -44.352,-17.31438 -61.55025,-35.58339 -16.8121,-17.85881 -27.21517,-39.33281 -32.15304,-66.37026 -0.30134,-1.65 -0.77707,-66.79916 -1.05719,-144.77591 l -0.5093,-141.7759 3.83259,2.62068 c 16.72617,11.43719 36.58974,16.17625 95.83258,22.86378 13.32452,1.50412 31.16958,2.06735 65.5,2.06735 42.86187,0 58.77875,-0.64877 86.51066,-3.52619 52.86024,-5.48469 75.85597,-12.85327 87.85368,-28.15117 2.12538,-2.71001 3.99549,-4.79125 4.1558,-4.62497 1.26311,1.31022 2.74549,257.54677 1.63353,282.36191 -0.91288,20.37219 -1.0629,21.41586 -4.59612,31.97472 -14.06255,42.02532 -44.27275,70.83376 -87.05755,83.01806 -7.2547,2.066 -148.82324,1.97778 -158.39539,-0.0987 l 0,-10e-6 z m 234.7905,-189.85864 c 2.09853,-1.89923 2.10489,-2.10051 2.10489,-66.59501 0,-64.49452 -0.006,-64.69578 -2.10489,-66.59501 -2.04731,-1.85288 -6.2118,-1.91257 -152.25,-2.18212 -82.57981,-0.15242 -151.12614,-0.0392 -152.32518,0.25151 -5.56798,1.35013 -5.31993,-1.84105 -5.31993,68.44206 0,72.75188 -0.57438,67.51764 7.5,68.34647 2.2,0.22582 70.6653,0.37155 152.14511,0.32384 144.21403,-0.0845 148.20097,-0.1373 150.25,-1.99174 l 0,0 z"
       id="path3055"
       inkscape:connector-curvature="0" />
    <path
       style="fill:#e3e2db"
       d="m 324.2874,819.44112 c -7.47647,-1.2895 -22.77194,-6.80481 -31.41722,-11.32856 -16.08428,-8.4163 -34.78357,-25.2325 -44.12824,-39.68436 -8.43188,-13.04019 -15.3312,-29.25761 -18.50607,-43.5 -0.61302,-2.75 -1.37122,-5.9 -1.6849,-7 -1.00603,-3.52795 -1.50829,-287.76928 -0.5074,-287.15069 0.5117,0.31625 3.24297,2.13126 6.06948,4.03336 14.44306,9.71947 44.37287,16.3711 95.67435,21.26277 22.39619,2.1355 97.96671,2.46982 123.5,0.54634 55.05451,-4.14736 86.72848,-10.46104 102.2803,-20.38786 2.62916,-1.67821 7.23964,-5.80813 10.2455,-9.1776 l 5.46521,-6.12632 0.0132,11.5 c 0.007,6.325 0.20896,16.225 0.44816,22 1.06528,25.71847 1.62269,236.55524 0.66944,253.21163 -0.92865,16.22669 -1.31559,18.61401 -4.61519,28.47472 -13.17192,39.36373 -39.4625,66.04999 -79.50667,80.70326 l -8.5,3.11039 -75.5,0.14453 c -41.525,0.0795 -77.525,-0.20474 -80,-0.63161 l 0,0 z M 546.98821,630.58426 c 5.38992,-0.38433 9.73893,-1.19451 10.5,-1.95606 1.03889,-1.03954 1.29919,-14.30587 1.29919,-66.21429 0,-60.98105 -0.10818,-65.02248 -1.78548,-66.69999 -1.69838,-1.69862 -9.19585,-1.78572 -153.71389,-1.78572 -144.52258,0 -152.01548,0.0871 -153.71452,1.78587 -1.67807,1.67783 -1.78611,5.70619 -1.78611,66.59646 0,52.57135 0.25205,65.11428 1.33467,66.41862 0.88809,1.06998 3.39755,1.72607 7.5,1.96085 11.4386,0.65463 281.07954,0.55643 290.36614,-0.10574 l 0,0 z"
       id="path3057"
       inkscape:connector-curvature="0" />
    <path
       style="fill:#e3e2db"
       d="m 323.71128,819.35669 c -13.7852,-2.34091 -34.09179,-11.66165 -46.93573,-21.54354 -23.62368,-18.17561 -37.26207,-39.08717 -46.23074,-70.88495 l -2.53848,-9 -0.44607,-143.86254 c -0.37173,-119.88558 -0.22331,-143.72793 0.89053,-143.05487 0.73514,0.44421 3.04656,2.03721 5.1365,3.53999 16.69953,12.00787 66.02296,20.80422 128.70011,22.95241 53.23312,1.8245 110.55576,-0.94999 147.14372,-7.12196 29.59113,-4.99168 44.13845,-10.81949 55.00361,-22.03503 l 6.85267,-7.07365 0.0765,11.32782 c 0.0421,6.23031 0.23093,12.14028 0.41965,13.13327 0.18873,0.99298 0.65244,57.24298 1.03047,124.99999 0.72265,129.52504 0.33311,147.95964 -3.39555,160.69457 -6.37741,21.78147 -16.87967,39.75619 -32.19393,55.10021 -13.07452,13.09994 -29.87395,23.47033 -49.43715,30.51784 l -8,2.88195 -75.5,0.14524 c -41.525,0.0799 -77.78425,-0.24265 -80.57612,-0.71675 l 0,0 z M 555.04834,629.93953 c 1.24351,-0.41267 2.59351,-1.93404 3,-3.38082 0.40648,-1.44678 0.73906,-31.12929 0.73906,-65.96112 0,-59.73634 -0.10175,-63.40501 -1.79277,-64.64152 -3.10081,-2.26736 -36.16566,-2.71692 -173.92187,-2.36467 -124.86395,0.31928 -131.80749,0.42969 -133.5,2.12275 -1.67714,1.67769 -1.78536,5.72082 -1.78536,66.70019 0,51.82702 0.2613,65.17629 1.29608,66.21405 0.87762,0.88014 5.88207,1.49457 15.5,1.90302 20.20035,0.85787 287.73906,0.3127 290.46486,-0.59188 l 0,0 z"
       id="path3059"
       inkscape:connector-curvature="0" />
    <path
       style="fill:#e3e2db"
       d="m 323.52495,819.33268 c -13.07266,-2.21489 -33.73319,-11.55328 -45.97091,-20.77848 -23.36346,-17.61215 -38.45034,-40.43851 -47.0101,-71.126 l -2.64986,-9.5 -0.3751,-143.85337 c -0.27433,-105.20553 -0.077,-143.66913 0.73449,-143.1676 0.61027,0.37717 3.44381,2.22304 6.29676,4.10192 24.38641,16.06036 99.60469,24.92361 189.73717,22.35744 66.07793,-1.88132 109.78267,-8.78707 129.62862,-20.48251 3.22926,-1.90304 8.40729,-6.20502 11.50674,-9.55996 l 5.63535,-6.09989 0.7118,22.35199 c 0.39148,12.29359 0.78057,78.37698 0.86464,146.85198 0.16935,137.93881 0.39385,132.64709 -6.39499,150.73913 -6.87448,18.32028 -15.68485,32.0929 -29.04266,45.40032 -12.95165,12.90279 -29.01618,22.92144 -48.9095,30.50243 l -7.5,2.85812 -76,0.14804 c -41.8,0.0814 -78.3681,-0.25318 -81.26245,-0.74356 z M 555.00157,629.78115 c 1.21779,-0.30348 2.51078,-1.48635 2.87332,-2.6286 0.89288,-2.81322 0.90013,-126.64607 0.008,-129.43961 -0.48582,-1.52051 -1.8662,-2.46137 -4.40143,-3 -2.03192,-0.4316 -70.84049,-0.78474 -152.90835,-0.78474 -141.92612,0 -149.3015,0.0872 -151,1.78615 -1.6776,1.67801 -1.78571,5.71621 -1.78571,66.70027 0,51.88807 0.26055,65.17494 1.29841,66.21385 0.98329,0.9843 8.99216,1.4486 33,1.91315 36.7094,0.71032 269.61806,0.0613 272.91576,-0.76047 l 0,0 z"
       id="path3061"
       inkscape:connector-curvature="0" />
    <path
       style="fill:#e3e2db"
       d="m 323.43758,819.30516 c -13.38313,-2.22452 -33.45126,-11.3286 -46.15018,-20.93642 -10.18786,-7.70798 -22.91247,-21.2033 -29.45206,-31.23592 -9.31784,-14.29482 -17.57381,-35.61551 -19.49174,-50.33654 -0.49215,-3.77744 -0.9342,-69.81251 -0.98234,-146.74459 l -0.0875,-139.8765 2.25683,1.60137 c 16.28082,11.5523 38.86263,17.30456 91.25683,23.24583 19.02039,2.15683 101.18155,3.10507 127.82493,1.47526 50.87315,-3.11198 83.16498,-8.75048 101.62144,-17.74422 5.35958,-2.6117 9.32195,-5.54935 14.13911,-10.48256 l 6.69275,-6.85399 0.70465,21.25566 c 0.38756,11.69062 0.77496,77.73066 0.86089,146.75566 0.17196,138.13677 0.34954,133.69018 -6.03042,151 -6.80984,18.47614 -15.77839,32.54557 -29.41158,46.13945 -13.66307,13.62367 -31.24441,24.32813 -50.61779,30.81881 l -9.07899,3.04174 -74.35249,-0.1169 c -40.89388,-0.0643 -76.75992,-0.51706 -79.70232,-1.00614 z m 232.62731,-190.43366 2.22251,-1.55671 -0.0153,-64.69329 c -0.009,-38.9687 -0.39192,-65.28976 -0.96241,-66.1933 -0.8206,-1.29965 -11.25413,-1.61659 -78.11445,-2.3729 -96.21833,-1.0884 -227.0172,0.001 -229.63166,1.91288 -1.66919,1.22052 -1.77617,5.11314 -1.77617,64.62938 0,34.83185 0.3386,64.53836 0.75244,66.01445 0.53434,1.9059 1.54883,2.8045 3.5,3.10017 1.51116,0.229 70.03493,0.48378 152.27505,0.56619 133.87346,0.13414 149.76017,-0.0131 151.75,-1.40687 z"
       id="path3063"
       inkscape:connector-curvature="0" />
    <path
       style="fill:#e3e2db"
       d="m 323.43758,819.30516 c -13.3878,-2.2253 -33.42469,-11.31683 -46.20238,-20.96386 -10.32037,-7.79178 -24.34964,-22.94653 -30.77448,-33.24333 -5.77765,-9.25957 -12.71964,-25.46844 -16.34748,-38.16977 l -2.28501,-8 -0.30483,-144.36999 -0.30484,-144.36999 3.28442,2.15985 c 15.52297,10.20803 34.92122,15.62808 73.28442,20.47634 30.45768,3.84918 56.3074,4.90681 105.5,4.31649 44.55602,-0.53468 64.93805,-1.81087 91.68859,-5.74093 36.55777,-5.37088 51.31819,-10.9599 64.4411,-24.40052 l 5.55839,-5.69297 0.64809,15.81086 c 0.35645,8.69597 0.93268,69.81086 1.2805,135.81086 0.77454,146.96973 0.61741,150.52145 -7.56508,171 -6.71357,16.80223 -15.33535,29.86193 -28.14982,42.63945 -13.66924,13.62983 -31.41851,24.45038 -50.54927,30.81653 l -9.14751,3.04402 -74.35249,-0.1169 c -40.89388,-0.0643 -76.75992,-0.51706 -79.70232,-1.00614 z m 233.1963,-190.7494 c 1.5066,-1.2505 1.65352,-7.07564 1.65352,-65.55888 0,-53.85404 -0.22847,-64.49889 -1.4193,-66.12755 -1.37562,-1.8814 -3.86928,-1.96591 -81.03741,-2.74647 -98.84854,-0.99987 -225.22832,0.17692 -226.42171,2.10832 -2.4503,3.9656 -2.17535,130.09116 0.288,132.11119 0.59973,0.49181 2.21542,1.10462 3.59042,1.36182 1.375,0.25719 69.81841,0.41281 152.09648,0.34581 125.19341,-0.10193 149.86621,-0.34568 151.25,-1.49424 l 0,0 z"
       id="path3065"
       inkscape:connector-curvature="0" />
    <path
       style="fill:#e3dedb"
       d="m 323.43758,819.30516 c -13.05846,-2.17056 -33.2511,-11.22798 -45.69179,-20.49509 -9.91925,-7.38888 -23.4545,-21.77294 -30.14153,-32.03176 -6.21114,-9.52872 -12.62843,-23.81476 -17.00229,-37.85011 l -2.80469,-9 -0.28705,-144.86853 -0.28706,-144.86854 3.28212,2.1584 c 16.58997,10.90999 40.15476,16.89715 86.78211,22.04896 38.54972,4.25932 119.21361,4.00007 163,-0.52387 47.40379,-4.89769 69.05586,-11.50637 83.4608,-25.47406 l 7.22698,-7.00762 0.64602,14.26763 c 0.35531,7.8472 0.92973,69.61763 1.27648,137.26763 0.78809,153.75457 0.79988,153.54779 -10.08994,177.01056 -14.67754,31.62366 -40.97165,55.26376 -74.41632,66.90509 l -10.29758,3.58435 -74.65322,-0.1169 c -41.05927,-0.0643 -77.06064,-0.51706 -80.00304,-1.00614 l 0,0 z M 556.86825,627.98707 c 1.19231,-1.63086 1.40322,-11.94057 1.31947,-64.5 -0.0548,-34.40738 -0.41137,-63.68387 -0.79233,-65.05887 -0.61681,-2.22625 -1.39977,-2.5805 -7.15032,-3.23518 -8.63172,-0.98269 -271.98781,-1.24371 -288.1283,-0.28557 -12.49538,0.74175 -12.67951,0.78753 -13.31246,3.30941 -0.92072,3.66843 -0.66508,123.0185 0.27247,127.21134 0.72027,3.22112 1.13831,3.55005 5.24662,4.12815 2.4552,0.34548 71.21288,0.57048 152.79485,0.5 145.6003,-0.12579 148.35697,-0.16388 149.75,-2.06928 z"
       id="path3067"
       inkscape:connector-curvature="0" />
    <path
       style="fill:#e3dedb"
       d="m 395.2874,820.40018 c -63.92773,-0.47211 -72.22304,-0.7146 -78.32722,-2.28975 -3.75497,-0.96895 -7.57997,-2.17199 -8.5,-2.67341 -0.92003,-0.50142 -5.53521,-2.66917 -10.25596,-4.81721 -30.8878,-14.0546 -53.58581,-40.61048 -66.23252,-77.48973 l -4.1843,-12.20188 -0.28193,-145.25 c -0.15507,-79.8875 -0.0878,-145.25 0.14951,-145.25 0.23729,0 2.71873,1.53924 5.51431,3.42052 23.9343,16.1066 89.37499,24.65063 178.11811,23.25537 39.74124,-0.62483 54.41262,-1.4898 81,-4.77546 40.62549,-5.02048 59.75649,-11.65206 72.69626,-25.19949 3.04642,-3.18948 5.78211,-5.5559 6.0793,-5.25871 1.79158,1.79157 2.57197,284.16146 0.82513,298.55777 -3.28834,27.10038 -23.31942,59.50446 -48.07122,77.76433 -15.28952,11.27937 -37.15359,21.03191 -49.52947,22.09277 -4.125,0.35359 -39.675,0.40529 -79,0.11488 l 0,0 z M 536.48104,629.76922 c 10.2815,-0.35933 19.2815,-1.01684 20,-1.46113 2.02003,-1.24912 1.91725,-130.57601 -0.10477,-131.82526 -3.03839,-1.87719 -30.66955,-2.19128 -165.28917,-1.87885 -113.00329,0.26226 -139.94868,0.57282 -141,1.62506 -1.03954,1.04045 -1.2997,14.28518 -1.2997,66.16711 0,35.67644 0.37444,65.24107 0.8321,65.69916 0.45765,0.45809 5.63265,1.09371 11.5,1.4125 15.13767,0.82246 252.8511,1.04813 275.36154,0.26141 l 0,0 z"
       id="path3069"
       inkscape:connector-curvature="0" />
    <path
       style="fill:#e3dedb"
       d="m 394.2874,820.35423 c -81.75374,-0.64722 -75.9928,-0.10567 -94.62942,-8.8956 -5.57118,-2.62764 -13.22118,-6.77915 -17,-9.22557 -9.09071,-5.88536 -22.94831,-19.12161 -30.55858,-29.18838 -10.35151,-13.69284 -21.65783,-39.59387 -23.82708,-54.58413 -0.90543,-6.25685 -1.46521,-288.03235 -0.5722,-288.03235 0.22699,0 2.81449,1.58394 5.75,3.51985 15.21637,10.03495 50.41891,17.7406 98.83728,21.63495 24.0411,1.93365 109.49318,1.60911 134,-0.50893 58.72,-5.07496 84.25224,-12.44823 99.48022,-28.72818 2.59726,-2.77668 4.97793,-4.79288 5.29037,-4.48044 1.88827,1.88828 2.64268,289.26406 0.78955,300.76339 -4.30736,26.72865 -25.21427,59.45303 -48.56014,76.00841 -16.3675,11.60677 -36.71148,20.59468 -49,21.64805 -4.125,0.35359 -40.125,0.38461 -80,0.0689 l 0,3e-5 z M 535.45971,629.57826 c 11.36977,-0.36374 21.04477,-1.03393 21.5,-1.4893 1.05869,-1.05903 1.09405,-130.22816 0.0359,-131.28602 -1.80609,-1.80571 -30.62207,-2.22277 -153.20821,-2.2174 -123.20683,0.005 -152.41506,0.42383 -154.19929,2.20907 -1.06598,1.0666 -1.03648,130.23068 0.03,131.30037 0.45689,0.45827 9.68189,1.0809 20.5,1.38362 28.5522,0.79897 240.98856,0.87876 265.3416,0.0997 l 0,-4e-5 z"
       id="path3071"
       inkscape:connector-curvature="0" />
    <path
       style="fill:#e3dedb"
       d="m 394.2874,820.35423 c -81.75374,-0.64722 -75.9928,-0.10567 -94.62942,-8.8956 -14.16113,-6.67908 -22.45345,-12.304 -33.16268,-22.49522 -12.41531,-11.81478 -18.10243,-19.57001 -25.69227,-35.03521 -7.17605,-14.62208 -11.1362,-25.83111 -12.53071,-35.46765 -0.92965,-6.42418 -1.45277,-288.03235 -0.53505,-288.03235 0.24743,0 2.4961,1.38099 4.99705,3.06886 15.40431,10.39624 50.3475,18.06906 100.55308,22.07944 18.76324,1.49879 104.55694,1.47464 125.5,-0.0353 31.15273,-2.24607 59.646,-6.45712 75.67298,-11.1838 11.34553,-3.34602 22.62643,-9.63521 29.75017,-16.58594 3.5503,-3.46408 6.68367,-6.06974 6.96305,-5.79037 1.62681,1.62681 2.65768,262.73414 1.14276,289.44713 -1.03635,18.27411 -3.28726,26.66112 -11.38782,42.43158 -14.97001,29.14412 -38.50947,50.13575 -69.64114,62.10339 -6.28678,2.41677 -12.03675,3.87405 -17,4.30851 -4.125,0.36109 -40.125,0.39823 -80,0.0826 l 0,-5e-5 z M 525.97777,629.56874 c 16.60471,-0.37837 30.55471,-1.05231 31,-1.49764 0.4453,-0.44532 0.80963,-29.77468 0.80963,-65.17634 0,-50.6832 -0.26985,-64.63649 -1.26935,-65.63595 -0.86547,-0.86544 -7.06987,-1.53125 -19.5,-2.09261 -21.87318,-0.9878 -281.04987,-0.3001 -284.98065,0.75618 l -2.75,0.73898 0,65.88342 c 0,36.23588 0.1125,65.96512 0.25,66.06497 1.77841,1.2915 227.48648,2.0745 276.44037,0.95899 l 0,0 z"
       id="path3073"
       inkscape:connector-curvature="0" />
    <path
       style="fill:#e3dedb"
       d="m 394.2874,820.35423 c -81.78297,-0.64746 -76.18761,-0.12149 -94.67348,-8.89934 -14.37668,-6.82664 -23.04563,-12.72499 -33.46597,-22.77023 -12.2708,-11.82908 -17.80642,-19.40934 -25.38154,-34.75646 -7.1097,-14.40419 -11.07586,-25.66881 -12.49831,-35.49746 -0.94573,-6.53465 -1.4345,-288.00254 -0.50012,-288.00254 0.26432,0 2.85182,1.50713 5.75,3.34917 16.57787,10.53666 50.64659,17.92716 99.76942,21.6429 17.69979,1.33885 106.30326,1.33819 125.5,-9.3e-4 59.50412,-4.15086 88.383,-11.71873 105.19485,-27.5669 3.69825,-3.48625 6.94048,-6.12224 7.20498,-5.85775 1.66618,1.66618 2.68199,262.05161 1.12913,289.43351 -0.69711,12.29226 -1.43274,17.25908 -3.55463,24 -5.73467,18.21824 -17.84938,37.64332 -32.58153,52.24218 -16.62969,16.47923 -44.31608,31.06272 -61.8928,32.6013 -4.125,0.36109 -40.125,0.39823 -80,0.0826 l 0,-5e-5 z m 158,-191.74875 4.5,-0.67728 0.80162,-19.5 c 0.8329,-20.26092 0.12167,-107.73335 -0.89756,-110.38943 -0.33115,-0.86295 -2.58675,-1.85792 -5.24263,-2.31258 -6.10344,-1.04485 -291.22192,-1.02374 -297.41143,0.022 l -4.75,0.80254 0,65.93872 c 0,36.2663 0.1125,66.02467 0.25,66.12971 1.98838,1.51899 292.65392,1.50583 302.75,-0.0137 l 0,0 z"
       id="path3075"
       inkscape:connector-curvature="0" />
    <path
       style="fill:#e3dedb"
       d="m 394.2874,820.35423 c -81.78297,-0.64746 -76.18761,-0.12149 -94.67348,-8.89934 -14.37668,-6.82664 -23.04563,-12.72499 -33.46597,-22.77023 -12.27284,-11.83105 -17.80789,-19.41133 -25.37884,-34.75646 -7.32793,-14.85256 -11.02686,-25.29304 -12.45089,-35.14351 -0.9257,-6.40337 -1.5632,-288.35649 -0.65197,-288.35649 0.20836,0 2.99654,1.5763 6.19596,3.50289 17.96085,10.81546 51.4158,17.93496 100.92519,21.47774 18.00798,1.28862 103.45273,1.28824 123,-5.4e-4 30.71544,-2.02511 61.06772,-6.44069 76.02141,-11.05942 13.72647,-4.23967 27.47207,-12.37047 33.97188,-20.09506 1.4239,-1.69221 2.88079,-2.78486 3.23753,-2.42812 1.82069,1.82069 3.00202,259.00658 1.33023,289.60251 -0.68256,12.49172 -1.37327,17.1497 -3.55881,24 -5.86175,18.37293 -17.91134,37.67706 -32.60944,52.24218 -16.64139,16.49084 -44.45217,31.15003 -61.8928,32.62398 -4.125,0.34861 -40.125,0.37555 -80,0.0599 l 0,-3e-5 z M 545.85757,628.82742 c 4.98859,-0.3074 9.70661,-0.95225 10.48449,-1.433 1.19607,-0.73922 1.40299,-10.5663 1.34095,-63.68485 -0.0534,-45.72753 -0.38988,-63.40214 -1.23709,-64.98517 -0.81575,-1.52424 -2.58327,-2.4169 -5.91112,-2.98531 -6.03298,-1.03047 -287.7738,-0.96977 -295.4974,0.0637 l -5.75,0.76937 0,65.92804 c 0,36.26042 0.1125,66.01564 0.25,66.12272 1.51854,1.18248 277.35946,1.37289 296.32017,0.20454 z"
       id="path3077"
       inkscape:connector-curvature="0" />
    <path
       style="fill:#e3dedb"
       d=""
       id="path3098"
       inkscape:connector-curvature="0" />
  </g>
</svg>
