<?xml version="1.0" encoding="UTF-8" standalone="no"?>
<!-- Created with Inkscape (http://www.inkscape.org/) -->

<svg
   xmlns:dc="http://purl.org/dc/elements/1.1/"
   xmlns:cc="http://creativecommons.org/ns#"
   xmlns:rdf="http://www.w3.org/1999/02/22-rdf-syntax-ns#"
   xmlns:svg="http://www.w3.org/2000/svg"
   xmlns="http://www.w3.org/2000/svg"
   xmlns:xlink="http://www.w3.org/1999/xlink"
   xmlns:sodipodi="http://sodipodi.sourceforge.net/DTD/sodipodi-0.dtd"
   xmlns:inkscape="http://www.inkscape.org/namespaces/inkscape"
   width="744.09448819"
   height="1052.3622047"
   id="svg5427"
   version="1.1"
   inkscape:version="0.48.4 r9939"
   sodipodi:docname="MICROSCOPE(1).svg">
  <defs
     id="defs5429">
    <linearGradient
       inkscape:collect="always"
       id="linearGradient4053">
      <stop
         style="stop-color:#cccccc;stop-opacity:1;"
         offset="0"
         id="stop4055" />
      <stop
         style="stop-color:#cccccc;stop-opacity:0;"
         offset="1"
         id="stop4057" />
    </linearGradient>
    <inkscape:path-effect
       effect="spiro"
       id="path-effect3984"
       is_visible="true" />
    <linearGradient
       inkscape:collect="always"
       id="linearGradient6154">
      <stop
         style="stop-color:#241c1c;stop-opacity:1;"
         offset="0"
         id="stop6156" />
      <stop
         style="stop-color:#241c1c;stop-opacity:0;"
         offset="1"
         id="stop6158" />
    </linearGradient>
    <linearGradient
       inkscape:collect="always"
       xlink:href="#linearGradient6154"
       id="linearGradient6160"
       x1="299.00516"
       y1="104.8391"
       x2="450.52805"
       y2="76.554825"
       gradientUnits="userSpaceOnUse"
       gradientTransform="matrix(0.80381381,0,0,1.0013633,1021.0559,28.453019)" />
    <linearGradient
       inkscape:collect="always"
       xlink:href="#linearGradient4053"
       id="linearGradient3279"
       gradientUnits="userSpaceOnUse"
       x1="345.99643"
       y1="978.0979"
       x2="350.98865"
       y2="931.57501" />
  </defs>
  <sodipodi:namedview
     id="base"
     pagecolor="#ffffff"
     bordercolor="#666666"
     borderopacity="1.0"
     inkscape:pageopacity="0.0"
     inkscape:pageshadow="2"
     inkscape:zoom="0.49497475"
     inkscape:cx="243.83768"
     inkscape:cy="632.35796"
     inkscape:document-units="px"
     inkscape:current-layer="layer1"
     showgrid="false"
     inkscape:window-width="1301"
     inkscape:window-height="744"
     inkscape:window-x="65"
     inkscape:window-y="24"
     inkscape:window-maximized="1"
     inkscape:object-paths="false"
     inkscape:snap-nodes="false"
     showguides="true"
     inkscape:guide-bbox="true" />
  <metadata
     id="metadata5432">
    <rdf:RDF>
      <cc:Work
         rdf:about="">
        <dc:format>image/svg+xml</dc:format>
        <dc:type
           rdf:resource="http://purl.org/dc/dcmitype/StillImage" />
        <dc:title></dc:title>
      </cc:Work>
    </rdf:RDF>
  </metadata>
  <g
     inkscape:label="Layer 1"
     inkscape:groupmode="layer"
     id="layer1">
    <path
       style="fill:url(#linearGradient6160);fill-opacity:1;stroke:#000000;stroke-width:1.81299996;stroke-miterlimit:4;stroke-opacity:1;stroke-dasharray:none;stroke-dashoffset:0"
       d="m 1257.6802,146.20295 c 0.4332,-45.05782 0.483,-45.63407 4.9107,-56.896495 27.7594,-70.609053 111.1154,-65.555617 130.9902,7.941249 2.9681,10.976056 3.3475,17.160966 3.2784,53.443316 l -0.078,41.03078 -4.9501,-11.95367 c -15.2149,-36.74161 -51.2696,-55.48377 -84.5916,-43.97299 -20.7341,7.16241 -37.1345,23.44016 -45.8857,45.54249 l -4.1114,10.38417 0.4376,-45.51885 z"
       id="path6152"
       inkscape:connector-curvature="0" />
    <path
       style="fill:none;stroke:#000000;stroke-width:0.82939959;stroke-linecap:butt;stroke-linejoin:miter;stroke-miterlimit:4;stroke-opacity:1;stroke-dasharray:none"
       d="m 291.71262,230.88676 -0.21397,-83.16458"
       id="path5562"
       inkscape:connector-curvature="0" />
    <path
       sodipodi:nodetypes="cccc"
       style="fill:none;stroke:#000000;stroke-width:0.82939959;stroke-linecap:butt;stroke-linejoin:miter;stroke-miterlimit:4;stroke-opacity:1;stroke-dasharray:none"
       d="m 291.61237,208.43132 0,290.52161 118.29841,0 -0.25254,-350.41075"
       id="path6108"
       inkscape:connector-curvature="0" />
    <rect
       style="fill:#241c1c;fill-opacity:1;stroke:#000000;stroke-width:0.66989893;stroke-miterlimit:4;stroke-opacity:1;stroke-dasharray:none;stroke-dashoffset:0"
       id="rect6114"
       width="48.236645"
       height="128.65266"
       x="242.75554"
       y="257.77972" />
    <rect
       style="fill:#241c1c;fill-opacity:1;stroke:#000000;stroke-width:0.66390789;stroke-miterlimit:4;stroke-opacity:1;stroke-dasharray:none;stroke-dashoffset:0"
       id="rect6114-3"
       width="48.242783"
       height="126.34574"
       x="409.60153"
       y="258.56976" />
    <rect
       style="fill:#ffffff;fill-opacity:1;stroke:#000000;stroke-width:0.65320873;stroke-miterlimit:4;stroke-opacity:1;stroke-dasharray:none;stroke-dashoffset:0"
       id="rect6162"
       width="19.066435"
       height="49.233093"
       x="223.09995"
       y="298.67596" />
    <rect
       style="fill:#ffffff;fill-opacity:1;stroke:#000000;stroke-width:0.65320796;stroke-miterlimit:4;stroke-opacity:1;stroke-dasharray:none;stroke-dashoffset:0"
       id="rect6162-1"
       width="19.066437"
       height="49.232975"
       x="459.02673"
       y="290.50006" />
    <rect
       style="fill:#ffffff;fill-opacity:1;stroke:#000000;stroke-width:0.82939959;stroke-miterlimit:4;stroke-opacity:1;stroke-dasharray:none;stroke-dashoffset:0"
       id="rect6182"
       width="56.657719"
       height="104.66376"
       x="166.21048"
       y="270.18219"
       ry="26.165941" />
    <rect
       style="fill:#ffffff;fill-opacity:1;stroke:#000000;stroke-width:0.82939959;stroke-miterlimit:4;stroke-opacity:1;stroke-dasharray:none;stroke-dashoffset:0"
       id="rect6182-6"
       width="56.657719"
       height="104.66376"
       x="477.98343"
       y="265.55667"
       ry="26.165941"
       inkscape:transform-center-x="58.27353"
       inkscape:transform-center-y="-231.27644" />
    <path
       sodipodi:type="arc"
       style="fill:#ffffff;fill-rule:evenodd;stroke:#000000;stroke-width:1px;stroke-linecap:butt;stroke-linejoin:miter;stroke-opacity:1"
       id="path3017"
       sodipodi:cx="362.85715"
       sodipodi:cy="553.79077"
       sodipodi:rx="111.42857"
       sodipodi:ry="30"
       d="m 474.28572,553.79077 a 111.42857,30 0 1 1 -222.85715,0 111.42857,30 0 1 1 222.85715,0 z"
       transform="matrix(1.2086355,0,0,0.80689511,-88.582821,63.03872)" />
    <path
       sodipodi:type="arc"
       style="fill:#ffffff;fill-rule:evenodd;stroke:#000000;stroke-width:1px;stroke-linecap:butt;stroke-linejoin:miter;stroke-opacity:1"
       id="path3017-7"
       sodipodi:cx="362.85715"
       sodipodi:cy="553.79077"
       sodipodi:rx="111.42857"
       sodipodi:ry="30"
       d="m 474.28572,553.79077 a 111.42857,30 0 1 1 -222.85715,0 111.42857,30 0 1 1 222.85715,0 z"
       transform="matrix(1.2086355,0,0,0.80689511,-88.011981,77.308808)" />
    <path
       sodipodi:type="arc"
       style="fill:#ffffff;fill-rule:evenodd;stroke:#000000;stroke-width:1px;stroke-linecap:butt;stroke-linejoin:miter;stroke-opacity:1"
       id="path3034"
       sodipodi:cx="468.71078"
       sodipodi:cy="554.35699"
       sodipodi:rx="40.406101"
       sodipodi:ry="5.0507627"
       d="m 509.11689,554.35699 a 40.406101,5.0507627 0 1 1 -80.81221,0 40.406101,5.0507627 0 1 1 80.81221,0 z"
       transform="matrix(0.83677991,0.14127262,-0.14831557,0.79704434,122.44546,14.693224)" />
    <path
       sodipodi:type="arc"
       style="fill:#ffffff"
       id="path3804"
       sodipodi:cx="407.59656"
       sodipodi:cy="554.10443"
       sodipodi:rx="1.5152289"
       sodipodi:ry="0.25253814"
       d="m 409.11179,554.10443 a 1.5152289,0.25253814 0 1 1 -3.03046,0 1.5152289,0.25253814 0 1 1 3.03046,0 z"
       transform="matrix(0.84982241,0,0,0.8094675,43.800353,78.959885)" />
    <path
       style="fill:none;stroke:#000000;stroke-width:0.82939959px;stroke-linecap:butt;stroke-linejoin:miter;stroke-opacity:1"
       d="m 465.01765,745.19822 -1.71691,25.34826"
       id="path3852"
       inkscape:connector-curvature="0" />
    <path
       style="fill:none;stroke:#000000;stroke-width:0.82939959px;stroke-linecap:butt;stroke-linejoin:miter;stroke-opacity:1"
       d="m 234.24235,744.46981 -1.28767,24.12172"
       id="path3858"
       inkscape:connector-curvature="0" />
    <path
       style="fill:none;stroke:#000000;stroke-width:0.85532534px;stroke-linecap:butt;stroke-linejoin:miter;stroke-opacity:1"
       d="m 300.47698,546.52632 0,273.0556 z"
       id="path3882"
       inkscape:connector-curvature="0" />
    <path
       style="fill:none;stroke:#000000;stroke-width:0.8470757px;stroke-linecap:butt;stroke-linejoin:miter;stroke-opacity:1"
       d="m 396.62342,545.70036 0,276.34289 z"
       id="path3884"
       inkscape:connector-curvature="0" />
    <path
       style="fill:#ffffff;stroke:#000000;stroke-width:1.09796011;stroke-miterlimit:4;stroke-opacity:1"
       d="m 211.54313,592.11484 275.54057,0 73.80563,117.4844 -430.27545,0 z"
       id="rect3809"
       inkscape:connector-curvature="0"
       sodipodi:nodetypes="ccccc" />
    <path
       style="fill:#ffffff;stroke:#000000;stroke-width:0.82939959;stroke-miterlimit:4;stroke-opacity:1"
       d="m 312.10144,527.23548 70.41386,0 -10.92629,91.35419 c -9.71226,12.33472 -35.6116,13.49114 -48.56128,1.15638 z"
       id="rect3808"
       inkscape:connector-curvature="0"
       sodipodi:nodetypes="ccccc" />
    <path
       style="fill:#ffffff;stroke:#000000;stroke-width:0.82939959;stroke-miterlimit:4;stroke-opacity:1"
       d="m 233.18935,526.0791 70.41386,-6.93829 -58.27354,93.66695 c -12.46295,-1.23718 -27.50799,6.13377 -33.9929,-15.03296 z"
       id="rect3805"
       inkscape:connector-curvature="0"
       sodipodi:nodetypes="ccccc" />
    <path
       sodipodi:type="arc"
       style="fill:#ffffff;stroke:#000000;stroke-width:1;stroke-miterlimit:4;stroke-opacity:1;stroke-dasharray:none"
       id="path3814"
       sodipodi:cx="352.54324"
       sodipodi:cy="713.96106"
       sodipodi:rx="41.416256"
       sodipodi:ry="13.131983"
       d="m 393.9595,713.96106 a 41.416256,13.131983 0 1 1 -82.83251,0 41.416256,13.131983 0 1 1 82.83251,0 z"
       transform="matrix(0.84982241,0,0,0.8094675,50.293525,69.748509)" />
    <rect
       style="fill:#000000;stroke:#000000;stroke-width:1.50370133;stroke-miterlimit:4;stroke-opacity:1;stroke-dasharray:none"
       id="rect3886"
       width="21.461258"
       height="24.530569"
       x="339.45569"
       y="787.28931"
       ry="12.265284"
       rx="4.2922511" />
    <path
       sodipodi:type="arc"
       style="fill:#ffffff;stroke:#000000;stroke-width:1;stroke-miterlimit:4;stroke-opacity:1;stroke-dasharray:none"
       id="path3830-1"
       sodipodi:cx="370.72598"
       sodipodi:cy="841.2403"
       sodipodi:rx="168.69548"
       sodipodi:ry="21.213203"
       d="m 539.42146,841.2403 a 168.69548,21.213203 0 1 1 -337.39096,0 168.69548,21.213203 0 1 1 337.39096,0 z"
       transform="matrix(0.68836436,0,0,0.81135575,93.222514,84.835253)" />
    <path
       sodipodi:type="arc"
       style="fill:#ffffff;stroke:#000000;stroke-width:1;stroke-miterlimit:4;stroke-opacity:1;stroke-dasharray:none"
       id="path3830"
       sodipodi:cx="370.72598"
       sodipodi:cy="841.2403"
       sodipodi:rx="168.69548"
       sodipodi:ry="21.213203"
       d="m 539.42146,841.2403 a 168.69548,21.213203 0 1 1 -337.39096,0 168.69548,21.213203 0 1 1 337.39096,0 z"
       transform="matrix(0.68836436,0,0,0.81135575,93.714561,62.7206)" />
    <rect
       style="fill:#ffffff;stroke:#000000;stroke-width:0.83528876;stroke-miterlimit:4;stroke-opacity:1;stroke-dasharray:none"
       id="rect3826"
       width="430.1868"
       height="35.972393"
       x="131.21101"
       y="709.76508" />
    <path
       sodipodi:type="arc"
       style="fill:#ffffff;stroke:#000000;stroke-width:1.81299996;stroke-miterlimit:4;stroke-opacity:1;stroke-dasharray:none"
       id="path3898"
       sodipodi:cx="262.63965"
       sodipodi:cy="1052.3622"
       sodipodi:rx="131.31982"
       sodipodi:ry="119.198"
       d="M 140.37356,1095.8548 A 131.31982,119.198 0 0 1 205.07283,945.22773"
       transform="matrix(1.2928309,0,0,0.84217825,34.26981,-7.610025)"
       sodipodi:start="2.7680922"
       sodipodi:end="4.2586034"
       sodipodi:open="true" />
    <path
       sodipodi:type="arc"
       style="fill:#ffffff;stroke:#000000;stroke-width:1;stroke-miterlimit:4;stroke-opacity:1;stroke-dasharray:none"
       id="path3860"
       sodipodi:cx="346.07144"
       sodipodi:cy="972.00507"
       sodipodi:rx="140.35715"
       sodipodi:ry="39.642857"
       d="m 486.42859,972.00507 a 140.35715,39.642857 0 1 1 -280.7143,0 140.35715,39.642857 0 1 1 280.7143,0 z"
       transform="matrix(0.68783209,0,0,0.87879912,102.25203,6.912223)" />
    <path
       sodipodi:type="arc"
       style="fill:#ffffff;stroke:#000000;stroke-width:1.81299996;stroke-miterlimit:4;stroke-opacity:1;stroke-dasharray:none"
       id="path3898-3"
       sodipodi:cx="262.63965"
       sodipodi:cy="1052.3622"
       sodipodi:rx="131.31982"
       sodipodi:ry="119.198"
       d="M 140.37356,1095.8548 A 131.31982,119.198 0 0 1 205.07283,945.22773"
       transform="matrix(-1.2928309,0,0,0.84217825,661.27143,-8.798024)"
       sodipodi:start="2.7680922"
       sodipodi:end="4.2586034"
       sodipodi:open="true" />
    <path
       sodipodi:type="arc"
       style="fill:url(#linearGradient3279);fill-opacity:1;stroke:#000000;stroke-width:1;stroke-miterlimit:4;stroke-opacity:1;stroke-dasharray:none"
       id="path3860-5"
       sodipodi:cx="346.07144"
       sodipodi:cy="972.00507"
       sodipodi:rx="140.35715"
       sodipodi:ry="39.642857"
       d="m 486.42859,972.00507 a 140.35715,39.642857 0 1 1 -280.7143,0 140.35715,39.642857 0 1 1 280.7143,0 z"
       transform="matrix(0.68783209,0,0,0.87879912,101.97825,-3.148087)" />
    <path
       sodipodi:type="arc"
       style="fill:#ffffff;stroke:#000000;stroke-width:1.81299996;stroke-miterlimit:4;stroke-opacity:1;stroke-dasharray:none"
       id="path3898-9"
       sodipodi:cx="262.63965"
       sodipodi:cy="1052.3622"
       sodipodi:rx="131.31982"
       sodipodi:ry="119.198"
       d="m 144.31037,1104.0535 a 131.31982,119.198 0 0 1 64.9167,-160.58411"
       transform="matrix(1.292665,0,0,0.85295793,-36.252946,-41.058897)"
       sodipodi:start="2.693043"
       sodipodi:end="4.29351"
       sodipodi:open="true" />
    <path
       sodipodi:type="arc"
       style="fill:#ffffff;stroke:#000000;stroke-width:1.81299996;stroke-miterlimit:4;stroke-opacity:1;stroke-dasharray:none"
       id="path3898-9-3"
       sodipodi:cx="262.63965"
       sodipodi:cy="1052.3622"
       sodipodi:rx="131.31982"
       sodipodi:ry="119.198"
       d="m 144.31037,1104.0535 a 131.31982,119.198 0 0 1 64.9167,-160.58411"
       transform="matrix(-1.292665,0,0,0.85295793,735.17654,-40.534817)"
       sodipodi:start="2.693043"
       sodipodi:end="4.29351"
       sodipodi:open="true" />
    <path
       sodipodi:type="arc"
       style="fill:#ffffff;stroke:#000000;stroke-width:1.81299996;stroke-miterlimit:4;stroke-opacity:1;stroke-dasharray:none"
       id="path3960"
       sodipodi:cx="665.69055"
       sodipodi:cy="527.08289"
       sodipodi:rx="18.182749"
       sodipodi:ry="12.121831"
       d="m 683.8733,527.08289 a 18.182749,12.121831 0 1 1 -36.3655,0 18.182749,12.121831 0 1 1 36.3655,0 z"
       transform="matrix(0.72097087,0,0,0.36823525,-132.98202,427.30463)" />
    <path
       style="fill:none;stroke:#000000;stroke-width:0.84285122px;stroke-linecap:butt;stroke-linejoin:miter;stroke-opacity:1"
       d="m 323.01045,616.56021 c 22.27018,-8.16403 36.12061,-4.38803 49.33622,0.28833"
       id="path3972"
       inkscape:connector-curvature="0"
       sodipodi:nodetypes="cc" />
    <path
       style="fill:none;stroke:#000000;stroke-width:0.82939959px;stroke-linecap:butt;stroke-linejoin:miter;stroke-opacity:1"
       d="m 211.64028,597.48572 c 12.87868,1.66018 23.10439,7.7426 32.77887,14.74387"
       id="path3982"
       inkscape:connector-curvature="0"
       sodipodi:nodetypes="cc" />
    <path
       style="fill:none;stroke:#000000;stroke-width:1.90347207;stroke-linecap:butt;stroke-linejoin:miter;stroke-miterlimit:4;stroke-opacity:1;stroke-dasharray:none"
       d="m 148.81412,899.01239 c 29.3182,33.67279 47.94425,25.15307 66.16475,15.03294"
       id="path3991"
       inkscape:connector-curvature="0"
       sodipodi:nodetypes="cc" />
    <path
       style="fill:none;stroke:#000000;stroke-width:1.97620451;stroke-linecap:butt;stroke-linejoin:miter;stroke-miterlimit:4;stroke-opacity:1;stroke-dasharray:none"
       d="m 550.18457,899.36005 c -31.69518,33.57283 -51.83123,25.07836 -71.52897,14.98794"
       id="path3991-8"
       inkscape:connector-curvature="0"
       sodipodi:nodetypes="cc" />
    <text
       xml:space="preserve"
       style="font-size:16.58799171px;font-style:normal;font-weight:normal;line-height:125%;letter-spacing:0px;word-spacing:0px;fill:#000000;fill-opacity:1;stroke:none;font-family:Sans"
       x="418.23724"
       y="450.5618"
       id="text4017"
       sodipodi:linespacing="125%"
       transform="matrix(0.94552216,0.36323755,-0.3761264,0.91312166,0,0)"><tspan
         sodipodi:role="line"
         id="tspan4019"
         x="418.23724"
         y="450.5618"> 45x</tspan></text>
    <text
       xml:space="preserve"
       style="font-size:16.58799171px;font-style:normal;font-weight:normal;line-height:125%;letter-spacing:0px;word-spacing:0px;fill:#000000;fill-opacity:1;stroke:none;font-family:Sans"
       x="320.90399"
       y="599.33502"
       id="text4021"
       sodipodi:linespacing="125%"
       transform="scale(1.0246237,0.97596807)"><tspan
         sodipodi:role="line"
         id="tspan4025"
         x="320.90399"
         y="599.33502">10x</tspan></text>
    <path
       style="fill:#000000;stroke:#000000;stroke-width:1.9227972;stroke-miterlimit:4;stroke-opacity:1;stroke-dasharray:none"
       d="m 328.40315,894.82493 c -40.1076,-2.0388 -72.5455,-12.73676 -81.49226,-26.87597 -1.6823,-2.65866 -2.97881,-7.76876 -1.97056,-7.76681 0.3423,6.6e-4 2.50111,1.82475 4.79734,4.05353 19.92155,19.33634 85.68091,27.96917 136.90272,17.9724 21.8964,-4.27343 40.07167,-12.33111 46.4504,-20.59297 l 2.61865,-3.39171 0,3.05556 c 0,14.30629 -27.51327,27.6286 -66.10068,32.00685 -10.57811,1.2002 -32.07591,2.00319 -41.20561,1.53912 l 0,0 z"
       id="path4043"
       inkscape:connector-curvature="0" />
    <path
       style="fill:none;stroke:#000000;stroke-width:1px;stroke-linecap:butt;stroke-linejoin:miter;stroke-opacity:1"
       d="m 291.68155,148.27565 c 117.93531,-0.25253 117.93531,0 117.93531,0"
       id="path3076"
       inkscape:connector-curvature="0" />
    <path
       style="fill:none;stroke:#000000;stroke-width:0.99852377px;stroke-linecap:butt;stroke-linejoin:miter;stroke-opacity:1"
       d="M 316.62755,147.72798 C 316.12099,26.717415 316.12099,26.717415 316.12099,26.717415"
       id="path3080"
       inkscape:connector-curvature="0" />
    <path
       style="fill:none;stroke:#000000;stroke-width:0.99741018px;stroke-linecap:butt;stroke-linejoin:miter;stroke-opacity:1"
       d="M 382.69592,148.0117 C 382.18826,27.53575 382.18826,27.53575 382.18826,27.53575"
       id="path3080-8"
       inkscape:connector-curvature="0" />
    <path
       style="fill:none;stroke:#000000;stroke-width:1.16058719px;stroke-linecap:butt;stroke-linejoin:miter;stroke-opacity:1"
       d="m 297.48632,27.36218 c 102.70592,0 102.70592,0 102.70592,0"
       id="path3110"
       inkscape:connector-curvature="0" />
    <path
       style="fill:none;stroke:#000000;stroke-width:1px;stroke-linecap:butt;stroke-linejoin:miter;stroke-opacity:1"
       d="M 398.21429,49.862181 z"
       id="path3112"
       inkscape:connector-curvature="0" />
    <path
       style="fill:none;stroke:#000000;stroke-width:1px;stroke-linecap:butt;stroke-linejoin:miter;stroke-opacity:1"
       d="M 298.125,27.183609 C 297.76786,9.8621799 297.67858,9.8621799 297.67858,9.8621799"
       id="path3114"
       inkscape:connector-curvature="0" />
    <path
       style="fill:none;stroke:#000000;stroke-width:1px;stroke-linecap:butt;stroke-linejoin:miter;stroke-opacity:1"
       d="M 399.50893,27.005038 C 399.15179,9.6836093 399.06251,9.6836093 399.06251,9.6836093"
       id="path3114-7"
       inkscape:connector-curvature="0" />
    <path
       style="fill:none;stroke:#000000;stroke-width:1.16058719px;stroke-linecap:butt;stroke-linejoin:miter;stroke-opacity:1"
       d="m 297.13878,9.841426 c 102.70592,0 102.70592,0 102.70592,0"
       id="path3110-4"
       inkscape:connector-curvature="0" />
    <path
       style="fill:none;stroke:#000000;stroke-width:0.98937088px;stroke-linecap:butt;stroke-linejoin:miter;stroke-opacity:1"
       d="m 214.77813,913.38181 c -3.98244,-12.49477 4.71656,3.04052 0.71416,28.48734 C 93.469193,975.53916 110.12112,814.16885 172.27283,792.68864"
       id="path3329"
       inkscape:connector-curvature="0"
       sodipodi:nodetypes="ccc" />
    <path
       style="fill:none;stroke:#000000;stroke-width:0.90481067px;stroke-linecap:butt;stroke-linejoin:miter;stroke-opacity:1"
       d="m 479.23812,911.51777 c 1.64523,37.32057 1.64523,37.32057 1.64523,37.32057 153.60182,7.78715 65.57534,-154.13514 64.16424,-139.38089 l 0,0 5.71429,-2.14286"
       id="path3331"
       inkscape:connector-curvature="0"
       sodipodi:nodetypes="ccccc" />
  </g>
</svg>
