<?xml version="1.0" encoding="UTF-8" standalone="no"?>
<!-- Created with Inkscape (http://www.inkscape.org/) -->

<svg
   xmlns:dc="http://purl.org/dc/elements/1.1/"
   xmlns:cc="http://creativecommons.org/ns#"
   xmlns:rdf="http://www.w3.org/1999/02/22-rdf-syntax-ns#"
   xmlns:svg="http://www.w3.org/2000/svg"
   xmlns="http://www.w3.org/2000/svg"
   xmlns:sodipodi="http://sodipodi.sourceforge.net/DTD/sodipodi-0.dtd"
   xmlns:inkscape="http://www.inkscape.org/namespaces/inkscape"
   width="952.09003"
   height="1052.3622"
   id="svg3326"
   version="1.1"
   inkscape:version="0.48.4 r9939"
   sodipodi:docname="moth cells final.svg">
  <defs
     id="defs3328" />
  <sodipodi:namedview
     id="base"
     pagecolor="#ffffff"
     bordercolor="#666666"
     borderopacity="1.0"
     inkscape:pageopacity="0.0"
     inkscape:pageshadow="2"
     inkscape:zoom="0.49497475"
     inkscape:cx="-47.654119"
     inkscape:cy="530.92858"
     inkscape:document-units="px"
     inkscape:current-layer="g3485"
     showgrid="false"
     inkscape:window-width="1301"
     inkscape:window-height="744"
     inkscape:window-x="65"
     inkscape:window-y="24"
     inkscape:window-maximized="1" />
  <metadata
     id="metadata3331">
    <rdf:RDF>
      <cc:Work
         rdf:about="">
        <dc:format>image/svg+xml</dc:format>
        <dc:type
           rdf:resource="http://purl.org/dc/dcmitype/StillImage" />
        <dc:title />
      </cc:Work>
    </rdf:RDF>
  </metadata>
  <g
     inkscape:label="Layer 1"
     inkscape:groupmode="layer"
     id="layer1">
    <g
       transform="matrix(4.0805325,0,0,5.5501439,-808.52542,-2870.7303)"
       id="g3485">
      <g
         id="g3180"
         transform="matrix(0.53463555,0,0,0.60776798,75.44201,228.33918)">
        <path
           sodipodi:nodetypes="ccc"
           style="fill:none;stroke:#000000;stroke-width:0.50646013px;stroke-linecap:butt;stroke-linejoin:miter;stroke-opacity:1"
           d="m 262.42052,619.70459 c 148.08985,-40.0002 129.00045,-43.83303 129.00045,-43.83303 l 0,0"
           id="path3217"
           inkscape:connector-curvature="0" />
        <path
           sodipodi:nodetypes="cc"
           style="fill:none;stroke:#000000;stroke-width:0.53288609px;stroke-linecap:butt;stroke-linejoin:miter;stroke-opacity:1"
           d="m 262.77788,638.82279 c 150.03275,11.97425 131.38352,14.40755 131.38352,14.40755"
           id="path3219"
           inkscape:connector-curvature="0" />
        <g
           id="g3190"
           transform="matrix(0.11088689,0,0,0.07985264,-10.480372,556.32897)">
          <path
             inkscape:connector-curvature="0"
             id="path3065"
             d="m 3665,1213.0566 c -101.6007,-18.2201 -180.2606,-60.4121 -251.8381,-135.0821 -72.841,-75.9882 -117.0595,-168.60969 -132.6716,-277.89803 -4.9348,-34.54498 -4.2315,-110.17049 1.3552,-145.71429 28.638,-182.20304 152.3547,-332.7286 317.9435,-386.84048 89.3426,-29.19583 184.0319,-28.80207 274.1946,1.14021 150.9086,50.11546 266.7911,180.24254 307.8575,345.70027 22.0315,88.76597 16.1065,198.78926 -15.5402,288.57143 -58.4159,165.72659 -200.5587,286.28569 -367.1416,311.39329 -38.1499,5.75 -98.1817,5.1816 -134.1593,-1.2703 l 0,0 z"
             style="fill:#ffaaaa" />
          <g
             transform="translate(4160,211.42857)"
             id="g3057">
            <path
               inkscape:connector-curvature="0"
               id="path4737-3"
               d="m -554.24767,468.29051 c 0,0 0,0 -1.22404,-122.40368 0,0 0,0 -86.90662,-82.01047 0,0 -1.22403,0 -82.01045,86.90662 3.67209,119.95561 3.67209,119.95561 3.67209,119.95561 86.90662,64.87395 86.90662,66.09799 86.90662,66.09799"
               style="fill:none;stroke:#000000;stroke-width:1px;stroke-linecap:butt;stroke-linejoin:miter;stroke-opacity:1" />
            <path
               inkscape:connector-curvature="0"
               id="path4739-4"
               d="m -631.66567,534.08175 c 78.64049,-65.7897 78.64049,-65.7897 78.64049,-65.7897"
               style="fill:none;stroke:#000000;stroke-width:1.0030762px;stroke-linecap:butt;stroke-linejoin:miter;stroke-opacity:1" />
            <path
               inkscape:connector-curvature="0"
               id="path4741-4"
               d="m -556.69575,345.88683 c 99.14699,-64.87396 100.37103,-64.87396 100.37103,-64.87396 105.26717,80.78644 105.26717,80.78644 105.26717,80.78644"
               style="fill:none;stroke:#000000;stroke-width:1px;stroke-linecap:butt;stroke-linejoin:miter;stroke-opacity:1" />
            <path
               inkscape:connector-curvature="0"
               id="path4743-7"
               d="m -554.24767,468.29051 c 97.92295,56.3057 97.92295,56.3057 97.92295,56.3057 97.92294,-41.61725 97.92294,-41.61725 97.92294,-41.61725 6.12019,-121.17965 6.12019,-121.17965 6.12019,-121.17965 52.63358,-69.7701 52.63358,-69.7701 52.63358,-69.7701 113.83543,93.0268 113.83543,93.0268 113.83543,93.0268"
               style="fill:none;stroke:#000000;stroke-width:1px;stroke-linecap:butt;stroke-linejoin:miter;stroke-opacity:1" />
            <path
               inkscape:connector-curvature="0"
               id="path4745-9"
               d="m -358.40178,482.97896 c 101.59506,72.21817 101.59506,72.21817 101.59506,72.21817 78.33836,-68.54606 78.33836,-68.54606 78.33836,-68.54606 -8.56825,-102.8191 -8.56825,-102.8191 -8.56825,-102.8191"
               style="fill:none;stroke:#000000;stroke-width:1px;stroke-linecap:butt;stroke-linejoin:miter;stroke-opacity:1" />
            <path
               inkscape:connector-curvature="0"
               id="path4747-3"
               d="m -631.362,533.16447 c 3.67212,126.07579 3.67212,126.07579 3.67212,126.07579 97.92294,63.64992 97.92294,63.64992 97.92294,63.64992 94.25084,-57.52973 94.25084,-57.52973 94.25084,-57.52973 -19.58459,-143.21231 -19.58459,-143.21231 -19.58459,-143.21231"
               style="fill:none;stroke:#000000;stroke-width:1px;stroke-linecap:butt;stroke-linejoin:miter;stroke-opacity:1" />
            <path
               inkscape:connector-curvature="0"
               id="path4749-6"
               d="m -434.29206,665.36045 c 135.86809,61.20184 135.86809,61.20184 135.86809,61.20184 64.87396,-37.94514 64.87396,-37.94514 64.87396,-37.94514 -22.03267,-133.42002 -22.03267,-133.42002 -22.03267,-133.42002 l 0,0"
               style="fill:none;stroke:#000000;stroke-width:1px;stroke-linecap:butt;stroke-linejoin:miter;stroke-opacity:1" />
            <path
               d="m -362.3149,-572.54675 c 0,5.07012 -3.28812,9.18027 -7.34422,9.18027 -4.0561,0 -7.34422,-4.11015 -7.34422,-9.18027 0,-5.07013 3.28812,-9.18028 7.34422,-9.18028 4.0561,0 7.34422,4.11015 7.34422,9.18028 z"
               sodipodi:ry="9.1802769"
               sodipodi:rx="7.3442211"
               sodipodi:cy="-572.54675"
               sodipodi:cx="-369.65912"
               id="path4751-9-7"
               style="fill:#000000;fill-opacity:1;stroke:#000000;stroke-width:1;stroke-linecap:round;stroke-miterlimit:4;stroke-opacity:1;stroke-dasharray:none"
               sodipodi:type="arc"
               transform="translate(-288.63169,973.51523)" />
            <path
               d="m -362.3149,-572.54675 c 0,5.07012 -3.28812,9.18027 -7.34422,9.18027 -4.0561,0 -7.34422,-4.11015 -7.34422,-9.18027 0,-5.07013 3.28812,-9.18028 7.34422,-9.18028 4.0561,0 7.34422,4.11015 7.34422,9.18028 z"
               sodipodi:ry="9.1802769"
               sodipodi:rx="7.3442211"
               sodipodi:cy="-572.54675"
               sodipodi:cx="-369.65912"
               id="path4751-6-1"
               style="fill:#000000;fill-opacity:1;stroke:#000000;stroke-width:1;stroke-linecap:round;stroke-miterlimit:4;stroke-opacity:1;stroke-dasharray:none"
               sodipodi:type="arc"
               transform="translate(-74.425241,968.61913)" />
            <path
               d="m -362.3149,-572.54675 c 0,5.07012 -3.28812,9.18027 -7.34422,9.18027 -4.0561,0 -7.34422,-4.11015 -7.34422,-9.18027 0,-5.07013 3.28812,-9.18028 7.34422,-9.18028 4.0561,0 7.34422,4.11015 7.34422,9.18028 z"
               sodipodi:ry="9.1802769"
               sodipodi:rx="7.3442211"
               sodipodi:cy="-572.54675"
               sodipodi:cx="-369.65912"
               id="path4751-0-6"
               style="fill:#000000;fill-opacity:1;stroke:#000000;stroke-width:1;stroke-linecap:round;stroke-miterlimit:4;stroke-opacity:1;stroke-dasharray:none"
               sodipodi:type="arc"
               transform="translate(90.819739,1031.0449)" />
            <path
               d="m -362.3149,-572.54675 c 0,5.07012 -3.28812,9.18027 -7.34422,9.18027 -4.0561,0 -7.34422,-4.11015 -7.34422,-9.18027 0,-5.07013 3.28812,-9.18028 7.34422,-9.18028 4.0561,0 7.34422,4.11015 7.34422,9.18028 z"
               sodipodi:ry="9.1802769"
               sodipodi:rx="7.3442211"
               sodipodi:cy="-572.54675"
               sodipodi:cx="-369.65912"
               id="path4751-2-4"
               style="fill:#000000;fill-opacity:1;stroke:#000000;stroke-width:1;stroke-linecap:round;stroke-miterlimit:4;stroke-opacity:1;stroke-dasharray:none"
               sodipodi:type="arc"
               transform="translate(-9.5512814,1196.2899)" />
            <path
               d="m -362.3149,-572.54675 c 0,5.07012 -3.28812,9.18027 -7.34422,9.18027 -4.0561,0 -7.34422,-4.11015 -7.34422,-9.18027 0,-5.07013 3.28812,-9.18028 7.34422,-9.18028 4.0561,0 7.34422,4.11015 7.34422,9.18028 z"
               sodipodi:ry="9.1802769"
               sodipodi:rx="7.3442211"
               sodipodi:cy="-572.54675"
               sodipodi:cx="-369.65912"
               id="path4751-7-8"
               style="fill:#000000;fill-opacity:1;stroke:#000000;stroke-width:1;stroke-linecap:round;stroke-miterlimit:4;stroke-opacity:1;stroke-dasharray:none"
               sodipodi:type="arc"
               transform="translate(-161.33185,1171.8092)" />
            <path
               style="fill:none;stroke:#000000;stroke-width:0.98280609px;stroke-linecap:butt;stroke-linejoin:miter;stroke-opacity:1"
               d="m -724.9914,351.65649 -9.29677,-4.71109 -97.86329,-49.59182 13.06831,3.01684 0,0"
               id="path3214"
               inkscape:connector-curvature="0"
               sodipodi:nodetypes="ccccc" />
            <path
               style="fill:none;stroke:#000000;stroke-width:1.04871941px;stroke-linecap:butt;stroke-linejoin:miter;stroke-opacity:1"
               d="m -720.73865,473.10082 c -140.099,63.44286 -155.66556,72.09414 -155.66556,72.09414"
               id="path3218"
               inkscape:connector-curvature="0" />
            <path
               style="fill:none;stroke:#000000;stroke-width:1px;stroke-linecap:butt;stroke-linejoin:miter;stroke-opacity:1"
               d="M -728.57143,723.79075 -857.14286,672.36218 z"
               id="path3230"
               inkscape:connector-curvature="0" />
            <path
               style="fill:none;stroke:#000000;stroke-width:1px;stroke-linecap:butt;stroke-linejoin:miter;stroke-opacity:1"
               d="M -701.42858,705.93361 -635.71429,660.21932 -630,657.36218"
               id="path3232"
               inkscape:connector-curvature="0" />
            <path
               style="fill:none;stroke:#000000;stroke-width:1px;stroke-linecap:butt;stroke-linejoin:miter;stroke-opacity:1"
               d="m -729.06697,724.47432 c 42.41965,-28.50998 42.41965,-28.50998 42.41965,-28.50998"
               id="path3234"
               inkscape:connector-curvature="0" />
            <path
               style="fill:none;stroke:#000000;stroke-width:1px;stroke-linecap:butt;stroke-linejoin:miter;stroke-opacity:1"
               d="m -728.57143,720.93361 2.85714,105.71429 C -754.28571,838.07647 -760,838.07647 -760,838.07647"
               id="path3236"
               inkscape:connector-curvature="0" />
            <path
               style="fill:none;stroke:#000000;stroke-width:0.88361716px;stroke-linecap:butt;stroke-linejoin:miter;stroke-opacity:1"
               d="m -611.37038,872.42037 -94.27033,-36.81837 -19.41748,-7.58372 0,0 8.09899,3.16316 z"
               id="path3238"
               inkscape:connector-curvature="0"
               sodipodi:nodetypes="cccccc" />
            <path
               style="fill:none;stroke:#000000;stroke-width:1px;stroke-linecap:butt;stroke-linejoin:miter;stroke-opacity:1"
               d="m -608.57143,875.21933 54.28572,-57.14286 c 8.57142,-28.57143 8.57142,-34.28572 8.57142,-34.28572 l 14.28572,-57.14285"
               id="path3244"
               inkscape:connector-curvature="0" />
            <path
               style="fill:none;stroke:#000000;stroke-width:1px;stroke-linecap:butt;stroke-linejoin:miter;stroke-opacity:1"
               d="m -551.42857,815.21933 128.57143,48.57142 0,0 80,-54.28571 34.28571,-14.28571"
               id="path3246"
               inkscape:connector-curvature="0" />
            <path
               style="fill:none;stroke:#000000;stroke-width:1px;stroke-linecap:butt;stroke-linejoin:miter;stroke-opacity:1"
               d="m -314.28571,795.21933 2.686,-12.8928 8.34323,-40.04754 3.25648,-15.63109 -9.14547,43.89826 z"
               id="path3248"
               inkscape:connector-curvature="0"
               sodipodi:nodetypes="cccccc" />
            <path
               style="fill:none;stroke:#000000;stroke-width:0.69671005px;stroke-linecap:butt;stroke-linejoin:miter;stroke-opacity:1"
               d="m -609.84836,874.3534 c -2.32162,40.62636 -3.46871,60.69938 -4.03548,70.61723 -0.55351,9.68605 -0.55351,9.68605 -0.55351,9.68605 l 0,-15.54256 0,0"
               id="path3250"
               inkscape:connector-curvature="0"
               sodipodi:nodetypes="csccc" />
            <path
               style="fill:none;stroke:#000000;stroke-width:1px;stroke-linecap:butt;stroke-linejoin:miter;stroke-opacity:1"
               d="M -422.85714,866.6479 C -420,1000.9336 -420,1000.9336 -420,1000.9336"
               id="path3252"
               inkscape:connector-curvature="0" />
            <path
               style="fill:none;stroke:#000000;stroke-width:1.06295538px;stroke-linecap:butt;stroke-linejoin:miter;stroke-opacity:1"
               d="M -179.31719,931.61642 -307.82566,795.96509"
               id="path3254"
               inkscape:connector-curvature="0" />
            <path
               style="fill:none;stroke:#000000;stroke-width:1px;stroke-linecap:butt;stroke-linejoin:miter;stroke-opacity:1"
               d="m -639.28572,194.50504 -2.85714,68.57142 z"
               id="path3258"
               inkscape:connector-curvature="0" />
            <path
               style="fill:none;stroke:#000000;stroke-width:1px;stroke-linecap:butt;stroke-linejoin:miter;stroke-opacity:1"
               d="M -639.28571,193.79075 C -705,128.07646 -705,128.07646 -705,128.07646 l 39.28572,39.28572 z"
               id="path3260"
               inkscape:connector-curvature="0"
               sodipodi:nodetypes="cccc" />
            <path
               style="fill:none;stroke:#000000;stroke-width:1px;stroke-linecap:butt;stroke-linejoin:miter;stroke-opacity:1"
               d="m -567.14285,153.07647 -71.42858,42.85714 z"
               id="path3264"
               inkscape:connector-curvature="0" />
            <path
               style="fill:none;stroke:#000000;stroke-width:1px;stroke-linecap:butt;stroke-linejoin:miter;stroke-opacity:1"
               d="m -574.28571,152.36218 100,60"
               id="path3268"
               inkscape:connector-curvature="0" />
            <path
               style="fill:none;stroke:#000000;stroke-width:1px;stroke-linecap:butt;stroke-linejoin:miter;stroke-opacity:1"
               d="m -474.28571,215.21933 11.42857,68.57142 2.85714,0 c 0,0 -28.57142,-137.14284 -14.28571,-68.57142 z"
               id="path3270"
               inkscape:connector-curvature="0" />
            <path
               style="fill:none;stroke:#000000;stroke-width:1px;stroke-linecap:butt;stroke-linejoin:miter;stroke-opacity:1"
               d="m -474.03867,213.31008 77.11456,-59.0769 -0.46581,-2.81891"
               id="path3274"
               inkscape:connector-curvature="0" />
            <path
               style="fill:none;stroke:#000000;stroke-width:1px;stroke-linecap:butt;stroke-linejoin:miter;stroke-opacity:1"
               d="m -308.57143,203.79075 -88.57143,-48.57142 z"
               id="path3276"
               inkscape:connector-curvature="0" />
            <path
               style="fill:none;stroke:#000000;stroke-width:1px;stroke-linecap:butt;stroke-linejoin:miter;stroke-opacity:1"
               d="m -231.42857,692.36218 68.57143,68.57143 2.85714,0 -91.42857,94.28572 0,0"
               id="path3278"
               inkscape:connector-curvature="0" />
            <path
               style="fill:none;stroke:#000000;stroke-width:1px;stroke-linecap:butt;stroke-linejoin:miter;stroke-opacity:1"
               d="m -162.85714,763.79075 137.142854,0 2.857143,0 0,0 -14.285714,0 0,0"
               id="path3280"
               inkscape:connector-curvature="0" />
            <path
               style="fill:none;stroke:#000000;stroke-width:1px;stroke-linecap:butt;stroke-linejoin:miter;stroke-opacity:1"
               d="m -177.14286,486.6479 51.42857,34.28571 40.000004,25.71429 11.428572,5.71428"
               id="path3282"
               inkscape:connector-curvature="0" />
            <path
               style="fill:none;stroke:#000000;stroke-width:1.01320505px;stroke-linecap:butt;stroke-linejoin:miter;stroke-opacity:1"
               d="m -71.435174,670.21273 -5.70108,-126.41538"
               id="path3284"
               inkscape:connector-curvature="0" />
            <path
               style="fill:none;stroke:#000000;stroke-width:1px;stroke-linecap:butt;stroke-linejoin:miter;stroke-opacity:1"
               d="m -160.71429,763.07647 82.857147,-82.85715 0,-2.85714 L -75,674.50504"
               id="path3286"
               inkscape:connector-curvature="0" />
            <path
               style="fill:none;stroke:#000000;stroke-width:1px;stroke-linecap:butt;stroke-linejoin:miter;stroke-opacity:1"
               d="m -7.8571424,660.21932 37.1428574,-2.85714 -97.142857,14.28571 -2.857143,0 -5.714286,2.85715"
               id="path3288"
               inkscape:connector-curvature="0" />
            <path
               style="fill:none;stroke:#000000;stroke-width:1.06774604px;stroke-linecap:butt;stroke-linejoin:miter;stroke-opacity:1"
               d="m -79.966127,543.75688 66.210481,-53.13307 6.305761,-11.80734 25.22304,-26.56653 15.764401,-17.71103"
               id="path3290"
               inkscape:connector-curvature="0" />
            <path
               style="fill:none;stroke:#000000;stroke-width:1px;stroke-linecap:butt;stroke-linejoin:miter;stroke-opacity:1"
               d="m -185.71429,383.07647 68.57143,-105.71429 0,0 122.8571458,48.57143 0,0 0,0"
               id="path3292"
               inkscape:connector-curvature="0" />
            <path
               style="fill:none;stroke:#000000;stroke-width:1px;stroke-linecap:butt;stroke-linejoin:miter;stroke-opacity:1"
               d="m -302.85714,292.36218 -5.71429,-91.42857 -2.85714,0"
               id="path3294"
               inkscape:connector-curvature="0" />
            <path
               style="fill:none;stroke:#000000;stroke-width:1px;stroke-linecap:butt;stroke-linejoin:miter;stroke-opacity:1"
               d="m -591.42857,63.790754 22.85714,85.714286 0,2.85714 0,0"
               id="path3304"
               inkscape:connector-curvature="0" />
            <path
               style="fill:none;stroke:#000000;stroke-width:1px;stroke-linecap:butt;stroke-linejoin:miter;stroke-opacity:1"
               d="m -385.71429,163.79075 c 0,0 0,0 0,0 z"
               id="path3306"
               inkscape:connector-curvature="0" />
            <path
               style="fill:none;stroke:#000000;stroke-width:1px;stroke-linecap:butt;stroke-linejoin:miter;stroke-opacity:1"
               d="m -244.28572,154.50504 -62.85714,48.57143 z"
               id="path3312-1"
               inkscape:connector-curvature="0" />
            <path
               style="fill:none;stroke:#000000;stroke-width:1px;stroke-linecap:butt;stroke-linejoin:miter;stroke-opacity:1"
               d="m -242.85714,152.36218 48.57143,22.85715 57.14285,28.57142 0,0"
               id="path3314-0"
               inkscape:connector-curvature="0" />
            <path
               style="fill:none;stroke:#000000;stroke-width:1px;stroke-linecap:butt;stroke-linejoin:miter;stroke-opacity:1"
               d="m -127.14286,263.79076 11.42858,17.14286 -25.71429,-80 0,0 37.14286,-48.57143 0,0"
               id="path3316-7"
               inkscape:connector-curvature="0" />
            <path
               style="fill:none;stroke:#000000;stroke-width:1px;stroke-linecap:butt;stroke-linejoin:miter;stroke-opacity:1"
               d="m -242.85714,153.79075 -14.28571,-91.428568 0,-2.857143"
               id="path3318-4"
               inkscape:connector-curvature="0" />
            <path
               d="m -362.3149,-572.54675 c 0,5.07012 -3.28812,9.18027 -7.34422,9.18027 -4.0561,0 -7.34422,-4.11015 -7.34422,-9.18027 0,-5.07013 3.28812,-9.18028 7.34422,-9.18028 4.0561,0 7.34422,4.11015 7.34422,9.18028 z"
               sodipodi:ry="9.1802769"
               sodipodi:rx="7.3442211"
               sodipodi:cy="-572.54675"
               sodipodi:cx="-369.65912"
               id="path4751-7-8-3"
               style="fill:#000000;fill-opacity:1;stroke:#000000;stroke-width:1;stroke-linecap:round;stroke-miterlimit:4;stroke-opacity:1;stroke-dasharray:none"
               sodipodi:type="arc"
               transform="translate(-347.48374,1153.4804)" />
            <path
               d="m -362.3149,-572.54675 c 0,5.07012 -3.28812,9.18027 -7.34422,9.18027 -4.0561,0 -7.34422,-4.11015 -7.34422,-9.18027 0,-5.07013 3.28812,-9.18028 7.34422,-9.18028 4.0561,0 7.34422,4.11015 7.34422,9.18028 z"
               sodipodi:ry="9.1802769"
               sodipodi:rx="7.3442211"
               sodipodi:cy="-572.54675"
               sodipodi:cx="-369.65912"
               id="path4751-7-8-6"
               style="fill:#000000;fill-opacity:1;stroke:#000000;stroke-width:1;stroke-linecap:round;stroke-miterlimit:4;stroke-opacity:1;stroke-dasharray:none"
               sodipodi:type="arc"
               transform="translate(-256.05517,1347.7661)" />
            <path
               d="m -362.3149,-572.54675 c 0,5.07012 -3.28812,9.18027 -7.34422,9.18027 -4.0561,0 -7.34422,-4.11015 -7.34422,-9.18027 0,-5.07013 3.28812,-9.18028 7.34422,-9.18028 4.0561,0 7.34422,4.11015 7.34422,9.18028 z"
               sodipodi:ry="9.1802769"
               sodipodi:rx="7.3442211"
               sodipodi:cy="-572.54675"
               sodipodi:cx="-369.65912"
               id="path4751-7-8-37"
               style="fill:#000000;fill-opacity:1;stroke:#000000;stroke-width:1;stroke-linecap:round;stroke-miterlimit:4;stroke-opacity:1;stroke-dasharray:none"
               sodipodi:type="arc"
               transform="translate(-58.91231,1336.3375)" />
            <path
               d="m -362.3149,-572.54675 c 0,5.07012 -3.28812,9.18027 -7.34422,9.18027 -4.0561,0 -7.34422,-4.11015 -7.34422,-9.18027 0,-5.07013 3.28812,-9.18028 7.34422,-9.18028 4.0561,0 7.34422,4.11015 7.34422,9.18028 z"
               sodipodi:ry="9.1802769"
               sodipodi:rx="7.3442211"
               sodipodi:cy="-572.54675"
               sodipodi:cx="-369.65912"
               id="path4751-7-8-1"
               style="fill:#000000;fill-opacity:1;stroke:#000000;stroke-width:1;stroke-linecap:round;stroke-miterlimit:4;stroke-opacity:1;stroke-dasharray:none"
               sodipodi:type="arc"
               transform="translate(112.51626,1339.1946)" />
            <path
               d="m -362.3149,-572.54675 c 0,5.07012 -3.28812,9.18027 -7.34422,9.18027 -4.0561,0 -7.34422,-4.11015 -7.34422,-9.18027 0,-5.07013 3.28812,-9.18028 7.34422,-9.18028 4.0561,0 7.34422,4.11015 7.34422,9.18028 z"
               sodipodi:ry="9.1802769"
               sodipodi:rx="7.3442211"
               sodipodi:cy="-572.54675"
               sodipodi:cx="-369.65912"
               id="path4751-7-8-2"
               style="fill:#000000;fill-opacity:1;stroke:#000000;stroke-width:1;stroke-linecap:round;stroke-miterlimit:4;stroke-opacity:1;stroke-dasharray:none"
               sodipodi:type="arc"
               transform="translate(3.9448329,1507.7661)" />
            <path
               d="m -362.3149,-572.54675 c 0,5.07012 -3.28812,9.18027 -7.34422,9.18027 -4.0561,0 -7.34422,-4.11015 -7.34422,-9.18027 0,-5.07013 3.28812,-9.18028 7.34422,-9.18028 4.0561,0 7.34422,4.11015 7.34422,9.18028 z"
               sodipodi:ry="9.1802769"
               sodipodi:rx="7.3442211"
               sodipodi:cy="-572.54675"
               sodipodi:cx="-369.65912"
               id="path4751-7-8-62"
               style="fill:#000000;fill-opacity:1;stroke:#000000;stroke-width:1;stroke-linecap:round;stroke-miterlimit:4;stroke-opacity:1;stroke-dasharray:none"
               sodipodi:type="arc"
               transform="translate(-193.19802,827.76608)" />
            <path
               d="m -362.3149,-572.54675 c 0,5.07012 -3.28812,9.18027 -7.34422,9.18027 -4.0561,0 -7.34422,-4.11015 -7.34422,-9.18027 0,-5.07013 3.28812,-9.18028 7.34422,-9.18028 4.0561,0 7.34422,4.11015 7.34422,9.18028 z"
               sodipodi:ry="9.1802769"
               sodipodi:rx="7.3442211"
               sodipodi:cy="-572.54675"
               sodipodi:cx="-369.65912"
               id="path4751-7-8-10"
               style="fill:#000000;fill-opacity:1;stroke:#000000;stroke-width:1;stroke-linecap:round;stroke-miterlimit:4;stroke-opacity:1;stroke-dasharray:none"
               sodipodi:type="arc"
               transform="translate(-13.198024,836.33751)" />
            <path
               d="m -362.3149,-572.54675 c 0,5.07012 -3.28812,9.18027 -7.34422,9.18027 -4.0561,0 -7.34422,-4.11015 -7.34422,-9.18027 0,-5.07013 3.28812,-9.18028 7.34422,-9.18028 4.0561,0 7.34422,4.11015 7.34422,9.18028 z"
               sodipodi:ry="9.1802769"
               sodipodi:rx="7.3442211"
               sodipodi:cy="-572.54675"
               sodipodi:cx="-369.65912"
               id="path4751-7-8-9"
               style="fill:#000000;fill-opacity:1;stroke:#000000;stroke-width:1;stroke-linecap:round;stroke-miterlimit:4;stroke-opacity:1;stroke-dasharray:none"
               sodipodi:type="arc"
               transform="translate(158.23055,862.05179)" />
            <path
               d="m -362.3149,-572.54675 c 0,5.07012 -3.28812,9.18027 -7.34422,9.18027 -4.0561,0 -7.34422,-4.11015 -7.34422,-9.18027 0,-5.07013 3.28812,-9.18028 7.34422,-9.18028 4.0561,0 7.34422,4.11015 7.34422,9.18028 z"
               sodipodi:ry="9.1802769"
               sodipodi:rx="7.3442211"
               sodipodi:cy="-572.54675"
               sodipodi:cx="-369.65912"
               id="path4751-7-8-7"
               style="fill:#000000;fill-opacity:1;stroke:#000000;stroke-width:1;stroke-linecap:round;stroke-miterlimit:4;stroke-opacity:1;stroke-dasharray:none"
               sodipodi:type="arc"
               transform="translate(246.80198,984.90894)" />
            <path
               d="m -362.3149,-572.54675 c 0,5.07012 -3.28812,9.18027 -7.34422,9.18027 -4.0561,0 -7.34422,-4.11015 -7.34422,-9.18027 0,-5.07013 3.28812,-9.18028 7.34422,-9.18028 4.0561,0 7.34422,4.11015 7.34422,9.18028 z"
               sodipodi:ry="9.1802769"
               sodipodi:rx="7.3442211"
               sodipodi:cy="-572.54675"
               sodipodi:cx="-369.65912"
               id="path4751-7-8-18"
               style="fill:#000000;fill-opacity:1;stroke:#000000;stroke-width:1;stroke-linecap:round;stroke-miterlimit:4;stroke-opacity:1;stroke-dasharray:none"
               sodipodi:type="arc"
               transform="translate(218.23055,1153.4804)" />
            <path
               d="m -362.3149,-572.54675 c 0,5.07012 -3.28812,9.18027 -7.34422,9.18027 -4.0561,0 -7.34422,-4.11015 -7.34422,-9.18027 0,-5.07013 3.28812,-9.18028 7.34422,-9.18028 4.0561,0 7.34422,4.11015 7.34422,9.18028 z"
               sodipodi:ry="9.1802769"
               sodipodi:rx="7.3442211"
               sodipodi:cy="-572.54675"
               sodipodi:cx="-369.65912"
               id="path4751-7-8-66"
               style="fill:#000000;fill-opacity:1;stroke:#000000;stroke-width:1;stroke-linecap:round;stroke-miterlimit:4;stroke-opacity:1;stroke-dasharray:none"
               sodipodi:type="arc"
               transform="translate(349.65912,1179.1946)" />
            <path
               d="m -362.3149,-572.54675 c 0,5.07012 -3.28812,9.18027 -7.34422,9.18027 -4.0561,0 -7.34422,-4.11015 -7.34422,-9.18027 0,-5.07013 3.28812,-9.18028 7.34422,-9.18028 4.0561,0 7.34422,4.11015 7.34422,9.18028 z"
               sodipodi:ry="9.1802769"
               sodipodi:rx="7.3442211"
               sodipodi:cy="-572.54675"
               sodipodi:cx="-369.65912"
               id="path4751-7-8-33"
               style="fill:#000000;fill-opacity:1;stroke:#000000;stroke-width:1;stroke-linecap:round;stroke-miterlimit:4;stroke-opacity:1;stroke-dasharray:none"
               sodipodi:type="arc"
               transform="translate(-333.19802,830.62322)" />
            <path
               d="m -362.3149,-572.54675 c 0,5.07012 -3.28812,9.18027 -7.34422,9.18027 -4.0561,0 -7.34422,-4.11015 -7.34422,-9.18027 0,-5.07013 3.28812,-9.18028 7.34422,-9.18028 4.0561,0 7.34422,4.11015 7.34422,9.18028 z"
               sodipodi:ry="9.1802769"
               sodipodi:rx="7.3442211"
               sodipodi:cy="-572.54675"
               sodipodi:cx="-369.65912"
               id="path4751-7-8-68"
               style="fill:#000000;fill-opacity:1;stroke:#000000;stroke-width:1;stroke-linecap:round;stroke-miterlimit:4;stroke-opacity:1;stroke-dasharray:none"
               sodipodi:type="arc"
               transform="translate(12.516262,682.05179)" />
          </g>
        </g>
      </g>
    </g>
  </g>
</svg>
